<?xml version="1.0" encoding="utf-8"?>
<!-- Generator: Adobe Illustrator 12.0.1, SVG Export Plug-In . SVG Version: 6.00 Build 51448)  -->
<!DOCTYPE svg PUBLIC "-//W3C//DTD SVG 1.0//EN" "http://www.w3.org/TR/2001/REC-SVG-20010904/DTD/svg10.dtd" [
	<!ENTITY ns_svg "http://www.w3.org/2000/svg">
	<!ENTITY ns_xlink "http://www.w3.org/1999/xlink">
]>
<svg  version="1.0" id="Layer_1" xmlns="&ns_svg;" xmlns:xlink="&ns_xlink;" width="577.77" height="168.283"
	 viewBox="0 0 577.77 168.283" overflow="visible" enable-background="new 0 0 577.77 168.283" xml:space="preserve">
<g>
	<path fill="#00476B" d="M183.669,65.095c0.934,1.908,1.827,3.775,2.801,5.562h0.081c1.096-1.908,2.111-4.02,3.126-6.09l3.816-7.755
		c1.868-3.694,3.004-5.927,3.086-7.795c1.38,0.122,2.233,0.122,3.044,0.122c1.015,0,2.355-0.041,3.614-0.122
		c0.244,0.162,0.244,0.853,0.041,1.015l-0.853,0.082c-2.558,0.284-2.882,1.015-2.842,3.857c0.081,4.303,0.122,11.814,0.446,17.661
		c0.122,2.03,0.082,3.085,1.99,3.289l1.299,0.122c0.244,0.243,0.203,0.853-0.081,1.015c-1.665-0.081-3.329-0.122-4.791-0.122
		c-1.421,0-3.248,0.041-4.913,0.122c-0.284-0.203-0.325-0.771-0.082-1.015l1.177-0.122c1.989-0.203,1.989-0.853,1.989-3.451
		l-0.122-16.93h-0.081c-0.284,0.447-1.827,3.694-2.639,5.278l-3.614,7.105c-1.827,3.573-3.654,7.389-4.385,9.257
		c-0.081,0.122-0.243,0.163-0.406,0.163c-0.082,0-0.284-0.041-0.366-0.163c-0.69-2.152-2.639-6.131-3.572-8.12l-3.654-7.835
		c-0.853-1.868-1.705-3.979-2.598-5.847h-0.082c-0.163,2.518-0.284,4.872-0.406,7.227c-0.122,2.477-0.284,6.09-0.284,9.541
		c0,3.004,0.244,3.654,1.827,3.775l1.543,0.122c0.284,0.243,0.244,0.893-0.041,1.015c-1.38-0.081-2.964-0.122-4.507-0.122
		c-1.299,0-2.761,0.041-4.141,0.122c-0.243-0.203-0.325-0.812-0.081-1.015l0.893-0.122c1.705-0.203,2.274-0.487,2.518-3.329
		c0.243-2.68,0.446-4.913,0.69-8.932c0.203-3.37,0.365-6.821,0.447-9.054c0.081-2.558-0.244-3.085-2.72-3.491l-0.649-0.082
		c-0.203-0.243-0.163-0.853,0.162-1.015c1.218,0.081,2.192,0.122,3.208,0.122c0.934,0,2.03,0,3.37-0.122
		c-0.162,1.583,0.853,4.101,2.111,6.699L183.669,65.095z"/>
	<path fill="#00476B" d="M209.208,65.542c-1.055,0-1.096,0.081-1.096,1.096c0,4.101,2.396,7.592,6.74,7.592
		c1.34,0,2.477-0.406,3.735-1.989c0.406-0.122,0.69,0.122,0.731,0.487c-1.34,2.761-4.263,3.776-6.374,3.776
		c-2.639,0-4.71-1.137-5.887-2.68c-1.218-1.583-1.706-3.491-1.706-5.278c0-4.994,3.289-9.176,8.161-9.176
		c3.492,0,5.765,2.396,5.765,4.832c0,0.569-0.081,0.894-0.163,1.056c-0.122,0.244-0.69,0.284-2.395,0.284H209.208z M211.726,64.324
		c3.004,0,3.897-0.163,4.222-0.406c0.122-0.081,0.244-0.244,0.244-0.771c0-1.137-0.771-2.558-3.126-2.558
		c-2.396,0-4.466,2.192-4.507,3.532c0,0.081,0,0.203,0.284,0.203H211.726z"/>
	<path fill="#00476B" d="M245.505,65.501c0-2.761-1.218-4.182-3.776-4.182c-1.542,0-2.802,0.69-3.37,1.421
		c-0.487,0.609-0.609,1.015-0.609,2.436v6.212c0,2.923,0.081,3.329,1.542,3.532l0.853,0.122c0.284,0.203,0.203,0.893-0.081,1.015
		c-1.218-0.081-2.396-0.122-3.816-0.122c-1.462,0-2.558,0.041-3.694,0.122c-0.285-0.122-0.366-0.812-0.082-1.015l0.731-0.122
		c1.502-0.243,1.543-0.609,1.543-3.532v-5.887c0-2.72-1.218-4.182-3.735-4.182c-1.665,0-2.801,0.73-3.411,1.461
		c-0.406,0.487-0.609,1.015-0.609,2.314v6.292c0,2.923,0.082,3.289,1.543,3.532l0.73,0.122c0.285,0.203,0.203,0.893-0.081,1.015
		c-1.096-0.081-2.273-0.122-3.694-0.122c-1.462,0-2.68,0.041-3.938,0.122c-0.284-0.122-0.365-0.812-0.081-1.015l0.974-0.122
		c1.502-0.203,1.543-0.609,1.543-3.532v-7.105c0-1.583,0-1.786-1.096-2.517l-0.365-0.244c-0.163-0.162-0.163-0.609,0.041-0.73
		c0.934-0.325,3.248-1.38,4.06-1.99c0.162,0,0.365,0.082,0.447,0.285c-0.082,0.934-0.082,1.542-0.082,1.908
		c0,0.243,0.163,0.446,0.447,0.446c1.543-1.096,3.451-2.071,5.4-2.071c2.03,0,3.167,0.731,4.303,2.396
		c0.366,0.081,0.65-0.082,1.015-0.325c1.624-1.137,3.613-2.071,5.521-2.071c3.248,0,4.832,2.233,4.832,5.035v6.983
		c0,2.923,0.081,3.329,1.542,3.532l0.975,0.122c0.284,0.203,0.203,0.893-0.082,1.015c-1.34-0.081-2.517-0.122-3.938-0.122
		c-1.461,0-2.558,0.041-3.694,0.122c-0.284-0.122-0.366-0.812-0.082-1.015l0.731-0.122c1.502-0.243,1.543-0.609,1.543-3.532V65.501z
		"/>
	<path fill="#00476B" d="M269.565,67.775c0,5.074-3.492,8.729-8.567,8.729c-4.669,0-8.323-3.289-8.323-8.363
		c0-5.116,3.857-8.77,8.648-8.77C265.87,59.37,269.565,62.781,269.565,67.775z M260.836,60.588c-2.68,0-4.669,2.558-4.669,7.023
		c0,3.695,1.665,7.673,5.237,7.673s4.669-3.735,4.669-6.861C266.073,64.973,264.693,60.588,260.836,60.588z"/>
	<path fill="#00476B" d="M273.554,64.283c0-1.583,0-1.786-1.097-2.517l-0.365-0.244c-0.163-0.162-0.163-0.609,0.04-0.73
		c0.934-0.325,3.086-1.38,4.102-1.99c0.203,0.041,0.324,0.122,0.324,0.285v2.354c0,0.203,0.041,0.325,0.122,0.365
		c1.421-1.177,2.964-2.436,4.466-2.436c1.016,0,1.827,0.65,1.827,1.625c0,1.34-1.097,1.867-1.745,1.867
		c-0.406,0-0.609-0.122-0.895-0.284c-0.609-0.406-1.217-0.649-1.785-0.649c-0.65,0-1.138,0.365-1.463,0.812
		c-0.405,0.568-0.527,1.746-0.527,3.126v5.521c0,2.923,0.082,3.411,1.625,3.532l1.461,0.122c0.283,0.203,0.203,0.893-0.081,1.015
		c-1.909-0.081-3.086-0.122-4.507-0.122c-1.462,0-2.68,0.041-3.735,0.122c-0.284-0.122-0.365-0.812-0.081-1.015l0.771-0.122
		c1.502-0.243,1.543-0.609,1.543-3.532V64.283z"/>
	<path fill="#00476B" d="M287.032,64.283c0-1.583,0-1.786-1.096-2.517l-0.366-0.244c-0.162-0.162-0.162-0.609,0.04-0.73
		c0.936-0.325,3.249-1.38,4.183-1.99c0.203,0,0.365,0.082,0.406,0.244c-0.081,1.421-0.163,3.37-0.163,5.035v7.308
		c0,2.923,0.082,3.329,1.543,3.532l0.853,0.122c0.284,0.203,0.203,0.893-0.081,1.015c-1.218-0.081-2.396-0.122-3.816-0.122
		c-1.461,0-2.68,0.041-3.816,0.122c-0.284-0.122-0.365-0.812-0.081-1.015l0.853-0.122c1.502-0.203,1.543-0.609,1.543-3.532V64.283z
		 M290.36,51.128c0,1.421-1.014,2.071-2.11,2.071c-1.259,0-2.07-0.893-2.07-1.989c0-1.34,1.015-2.152,2.192-2.152
		C289.59,49.058,290.36,49.992,290.36,51.128z"/>
	<path fill="#00476B" d="M303.109,67.531c0.608-0.203,0.649-0.568,0.69-1.177l0.041-1.868c0.039-1.502-0.447-3.532-2.965-3.532
		c-1.137,0-2.518,0.568-2.598,1.827c-0.041,0.65-0.082,1.137-0.406,1.38c-0.609,0.487-1.705,0.771-2.314,0.771
		c-0.365,0-0.568-0.203-0.568-0.568c0-2.111,4.588-4.994,7.551-4.994c2.924,0,4.345,1.706,4.223,4.75l-0.242,7.064
		c-0.082,1.868,0.283,3.532,1.867,3.532c0.406,0,0.771-0.122,1.014-0.243c0.203-0.122,0.406-0.285,0.529-0.285
		c0.162,0,0.283,0.244,0.283,0.528c0,0.203-1.42,1.787-3.41,1.787c-0.975,0-1.948-0.365-2.639-1.258
		c-0.163-0.244-0.406-0.568-0.649-0.568c-0.284,0-0.772,0.365-1.584,0.812c-0.894,0.487-1.786,1.015-2.923,1.015
		c-1.178,0-2.152-0.325-2.842-0.934c-0.771-0.69-1.259-1.706-1.259-2.842c0-1.583,0.771-2.517,3.37-3.451L303.109,67.531z
		 M300.592,74.677c0.812,0,2.07-0.609,2.477-1.015c0.487-0.487,0.528-1.056,0.528-1.908l0.08-2.396c0-0.447-0.161-0.528-0.405-0.528
		c-0.243,0-0.935,0.163-1.665,0.406c-2.395,0.812-3.572,1.421-3.572,3.004C298.034,72.931,298.521,74.677,300.592,74.677z"/>
	<path fill="#00476B" d="M316.466,71.388c0,2.923,0.082,3.329,1.543,3.532l0.975,0.122c0.284,0.203,0.203,0.893-0.081,1.015
		c-1.34-0.081-2.518-0.122-3.938-0.122c-1.461,0-2.68,0.041-3.897,0.122c-0.284-0.122-0.365-0.812-0.081-1.015l0.934-0.122
		c1.502-0.203,1.543-0.609,1.543-3.532V53.037c0-2.395-0.041-2.639-1.259-3.37l-0.405-0.243c-0.203-0.122-0.203-0.69,0-0.813
		c1.015-0.325,2.922-0.934,4.384-1.705c0.163,0,0.325,0.082,0.406,0.244c-0.04,1.218-0.122,3.248-0.122,5.034V71.388z"/>
	<path fill="#00476B" d="M339.161,76.585c-3.41,0-5.563-1.056-6.333-1.502c-0.487-0.894-1.015-3.776-1.097-5.684
		c0.203-0.284,0.813-0.365,0.975-0.122c0.609,2.07,2.273,6.049,6.982,6.049c3.411,0,5.076-2.233,5.076-4.669
		c0-1.787-0.366-3.776-3.33-5.684l-3.856-2.517c-2.03-1.34-4.386-3.654-4.386-6.983c0-3.857,3.005-6.983,8.283-6.983
		c1.258,0,2.721,0.203,3.775,0.528c0.528,0.122,1.096,0.243,1.421,0.243c0.366,0.975,0.731,3.248,0.731,4.954
		c-0.162,0.244-0.813,0.365-1.016,0.122c-0.527-1.949-1.623-4.587-5.521-4.587c-3.979,0-4.831,2.639-4.831,4.506
		c0,2.354,1.949,4.019,3.451,4.994l3.247,2.03c2.559,1.583,5.076,3.938,5.076,7.795C347.81,73.54,344.439,76.585,339.161,76.585z"/>
	<path fill="#00476B" d="M356.013,71.388c0,2.923,0.08,3.329,1.542,3.532l0.974,0.122c0.285,0.203,0.203,0.893-0.08,1.015
		c-1.34-0.081-2.518-0.122-3.939-0.122c-1.461,0-2.68,0.041-3.896,0.122c-0.284-0.122-0.365-0.812-0.082-1.015l0.935-0.122
		c1.502-0.203,1.543-0.609,1.543-3.532V53.037c0-2.395-0.041-2.639-1.259-3.37l-0.406-0.243c-0.203-0.122-0.203-0.69,0-0.813
		c1.016-0.325,2.924-0.934,4.385-1.705c0.162,0,0.324,0.082,0.406,0.244c-0.041,1.218-0.121,3.248-0.121,5.034V71.388z"/>
	<path fill="#00476B" d="M377.772,67.775c0,5.074-3.49,8.729-8.566,8.729c-4.668,0-8.322-3.289-8.322-8.363
		c0-5.116,3.857-8.77,8.647-8.77C374.079,59.37,377.772,62.781,377.772,67.775z M369.044,60.588c-2.68,0-4.669,2.558-4.669,7.023
		c0,3.695,1.665,7.673,5.237,7.673s4.67-3.735,4.67-6.861C374.282,64.973,372.901,60.588,369.044,60.588z"/>
	<path fill="#00476B" d="M388.816,67.531c0.608-0.203,0.649-0.568,0.689-1.177l0.041-1.868c0.04-1.502-0.446-3.532-2.964-3.532
		c-1.137,0-2.518,0.568-2.598,1.827c-0.041,0.65-0.082,1.137-0.406,1.38c-0.609,0.487-1.705,0.771-2.314,0.771
		c-0.365,0-0.568-0.203-0.568-0.568c0-2.111,4.588-4.994,7.551-4.994c2.924,0,4.345,1.706,4.223,4.75l-0.243,7.064
		c-0.081,1.868,0.284,3.532,1.868,3.532c0.406,0,0.771-0.122,1.014-0.243c0.203-0.122,0.406-0.285,0.528-0.285
		c0.163,0,0.284,0.244,0.284,0.528c0,0.203-1.42,1.787-3.41,1.787c-0.975,0-1.949-0.365-2.639-1.258
		c-0.163-0.244-0.406-0.568-0.65-0.568c-0.283,0-0.771,0.365-1.583,0.812c-0.894,0.487-1.786,1.015-2.923,1.015
		c-1.178,0-2.152-0.325-2.842-0.934c-0.771-0.69-1.259-1.706-1.259-2.842c0-1.583,0.771-2.517,3.37-3.451L388.816,67.531z
		 M386.299,74.677c0.812,0,2.07-0.609,2.477-1.015c0.487-0.487,0.528-1.056,0.528-1.908l0.08-2.396c0-0.447-0.162-0.528-0.405-0.528
		s-0.935,0.163-1.665,0.406c-2.395,0.812-3.572,1.421-3.572,3.004C383.741,72.931,384.228,74.677,386.299,74.677z"/>
	<path fill="#00476B" d="M399.575,64.283c0-1.583,0-1.786-1.096-2.517l-0.366-0.244c-0.163-0.162-0.163-0.609,0.04-0.73
		c0.934-0.325,3.248-1.38,4.061-1.99c0.162,0,0.365,0.082,0.447,0.285c-0.082,0.934-0.082,1.542-0.082,1.908
		c0,0.243,0.162,0.446,0.446,0.446c1.706-1.056,3.614-2.071,5.685-2.071c3.369,0,4.75,2.314,4.75,5.035v6.983
		c0,2.923,0.081,3.329,1.543,3.532l0.893,0.122c0.284,0.203,0.203,0.893-0.08,1.015c-1.219-0.081-2.396-0.122-3.816-0.122
		c-1.463,0-2.68,0.041-3.776,0.122c-0.284-0.122-0.366-0.812-0.081-1.015l0.771-0.122c1.502-0.243,1.543-0.609,1.543-3.532v-6.049
		c0-2.314-1.057-4.02-3.816-4.02c-1.543,0-2.883,0.649-3.451,1.421c-0.527,0.69-0.609,1.259-0.609,2.436v6.212
		c0,2.923,0.082,3.289,1.543,3.532l0.73,0.122c0.285,0.203,0.203,0.893-0.081,1.015c-1.096-0.081-2.274-0.122-3.694-0.122
		c-1.462,0-2.68,0.041-3.816,0.122c-0.284-0.122-0.365-0.812-0.082-1.015l0.854-0.122c1.502-0.203,1.543-0.609,1.543-3.532V64.283z"
		/>
	<path fill="#00476B" d="M427.995,65.907c0.445,0.284,0.608,0.771,0.608,1.299c0,0.406-0.122,0.771-0.325,1.015l-9.459,0.893
		c-0.447-0.365-0.609-0.893-0.609-1.299c0-0.406,0.122-0.771,0.324-1.015L427.995,65.907z"/>
	<path fill="#00476B" d="M435.099,55.229c0-4.263-0.08-4.913-2.436-5.116l-1.015-0.082c-0.243-0.162-0.163-0.893,0.081-1.015
		c1.989,0.081,3.288,0.122,5.115,0.122c1.584,0,2.965-0.041,4.71-0.122c0.243,0.122,0.325,0.853,0.081,1.015l-0.771,0.082
		c-2.355,0.244-2.436,0.853-2.436,5.116v4.669c0,0.771,0.08,1.542,0.527,1.542c0.365,0,0.854-0.244,1.137-0.446
		c0.568-0.488,1.664-1.502,2.07-1.949l4.385-4.344c0.771-0.73,2.762-2.801,3.167-3.37c0.203-0.284,0.284-0.487,0.284-0.649
		c0-0.163-0.162-0.284-0.689-0.406l-1.097-0.244c-0.284-0.284-0.243-0.812,0.081-1.015c1.421,0.081,3.045,0.122,4.467,0.122
		c1.42,0,2.801-0.041,4.019-0.122c0.284,0.203,0.325,0.771,0.081,1.015c-1.055,0.082-2.639,0.487-3.775,1.137
		c-1.137,0.65-3.41,2.558-5.684,4.71l-3.654,3.451c-0.568,0.568-0.934,0.934-0.934,1.258c0,0.284,0.243,0.609,0.771,1.258
		c3.856,4.426,6.982,8.08,10.149,11.409c0.974,0.975,1.868,1.502,3.248,1.665l1.097,0.122c0.284,0.203,0.203,0.893-0.082,1.015
		c-1.055-0.081-2.639-0.122-4.547-0.122c-1.664,0-3.086,0.041-4.953,0.122c-0.284-0.081-0.406-0.771-0.162-1.015l0.934-0.163
		c0.568-0.081,0.975-0.203,0.975-0.406c0-0.244-0.284-0.568-0.568-0.934c-0.771-0.974-1.828-2.07-3.37-3.816l-3.248-3.654
		c-2.313-2.598-2.964-3.41-3.938-3.41c-0.609,0-0.689,0.527-0.689,1.948v5.237c0,4.264,0.08,4.832,2.354,5.075l1.097,0.122
		c0.243,0.162,0.162,0.893-0.082,1.015c-1.988-0.081-3.369-0.122-4.953-0.122c-1.664,0-3.045,0.041-4.709,0.122
		c-0.244-0.122-0.324-0.73-0.082-1.015l0.813-0.122c2.152-0.325,2.232-0.812,2.232-5.075V55.229z"/>
	<path fill="#00476B" d="M462.347,65.542c-1.055,0-1.096,0.081-1.096,1.096c0,4.101,2.395,7.592,6.739,7.592
		c1.34,0,2.477-0.406,3.735-1.989c0.406-0.122,0.689,0.122,0.73,0.487c-1.34,2.761-4.263,3.776-6.374,3.776
		c-2.639,0-4.709-1.137-5.887-2.68c-1.218-1.583-1.705-3.491-1.705-5.278c0-4.994,3.288-9.176,8.16-9.176
		c3.491,0,5.765,2.396,5.765,4.832c0,0.569-0.08,0.894-0.161,1.056c-0.122,0.244-0.69,0.284-2.396,0.284H462.347z M464.864,64.324
		c3.004,0,3.897-0.163,4.223-0.406c0.121-0.081,0.243-0.244,0.243-0.771c0-1.137-0.771-2.558-3.126-2.558
		c-2.396,0-4.467,2.192-4.506,3.532c0,0.081,0,0.203,0.283,0.203H464.864z"/>
	<path fill="#00476B" d="M480.454,61.644c-0.689,0-0.73,0.122-0.73,0.974v7.592c0,2.355,0.284,4.506,2.964,4.506
		c0.405,0,0.771-0.081,1.097-0.203c0.365-0.122,0.893-0.568,1.014-0.568c0.326,0,0.488,0.446,0.406,0.69
		c-0.73,0.853-2.191,1.868-4.263,1.868c-3.491,0-4.223-1.949-4.223-4.385v-9.297c0-1.096-0.04-1.177-0.853-1.177h-1.137
		c-0.243-0.163-0.283-0.609-0.121-0.853c1.177-0.365,2.191-0.893,2.598-1.259c0.527-0.487,1.3-1.583,1.706-2.396
		c0.202-0.081,0.689-0.081,0.853,0.203v1.827c0,0.731,0.04,0.771,0.73,0.771h4.506c0.488,0.366,0.406,1.462,0.041,1.706H480.454z"/>
	<path fill="#00476B" d="M492.918,61.644c-0.689,0-0.73,0.122-0.73,0.974v7.592c0,2.355,0.284,4.506,2.964,4.506
		c0.406,0,0.771-0.081,1.096-0.203c0.365-0.122,0.894-0.568,1.016-0.568c0.324,0,0.486,0.446,0.406,0.69
		c-0.731,0.853-2.193,1.868-4.264,1.868c-3.492,0-4.223-1.949-4.223-4.385v-9.297c0-1.096-0.04-1.177-0.852-1.177h-1.137
		c-0.244-0.163-0.285-0.609-0.123-0.853c1.178-0.365,2.193-0.893,2.6-1.259c0.527-0.487,1.299-1.583,1.704-2.396
		c0.203-0.081,0.69-0.081,0.854,0.203v1.827c0,0.731,0.04,0.771,0.73,0.771h4.507c0.486,0.366,0.406,1.462,0.041,1.706H492.918z"/>
	<path fill="#00476B" d="M503.353,65.542c-1.057,0-1.097,0.081-1.097,1.096c0,4.101,2.396,7.592,6.739,7.592
		c1.34,0,2.477-0.406,3.735-1.989c0.406-0.122,0.69,0.122,0.731,0.487c-1.34,2.761-4.264,3.776-6.375,3.776
		c-2.639,0-4.709-1.137-5.887-2.68c-1.218-1.583-1.705-3.491-1.705-5.278c0-4.994,3.289-9.176,8.16-9.176
		c3.492,0,5.766,2.396,5.766,4.832c0,0.569-0.081,0.894-0.162,1.056c-0.122,0.244-0.691,0.284-2.396,0.284H503.353z M505.87,64.324
		c3.004,0,3.896-0.163,4.222-0.406c0.122-0.081,0.243-0.244,0.243-0.771c0-1.137-0.771-2.558-3.125-2.558
		c-2.396,0-4.467,2.192-4.508,3.532c0,0.081,0,0.203,0.285,0.203H505.87z"/>
	<path fill="#00476B" d="M518.13,64.283c0-1.583,0-1.786-1.096-2.517l-0.365-0.244c-0.162-0.162-0.162-0.609,0.04-0.73
		c0.935-0.325,3.086-1.38,4.101-1.99c0.203,0.041,0.325,0.122,0.325,0.285v2.354c0,0.203,0.04,0.325,0.122,0.365
		c1.421-1.177,2.964-2.436,4.465-2.436c1.016,0,1.828,0.65,1.828,1.625c0,1.34-1.097,1.867-1.746,1.867
		c-0.406,0-0.609-0.122-0.893-0.284c-0.609-0.406-1.219-0.649-1.787-0.649c-0.649,0-1.137,0.365-1.461,0.812
		c-0.406,0.568-0.528,1.746-0.528,3.126v5.521c0,2.923,0.081,3.411,1.624,3.532l1.462,0.122c0.284,0.203,0.202,0.893-0.081,1.015
		c-1.908-0.081-3.086-0.122-4.507-0.122c-1.462,0-2.68,0.041-3.735,0.122c-0.284-0.122-0.365-0.812-0.081-1.015l0.771-0.122
		c1.503-0.243,1.543-0.609,1.543-3.532V64.283z"/>
	<path fill="#00476B" d="M531.608,64.283c0-1.583,0-1.786-1.096-2.517l-0.365-0.244c-0.162-0.162-0.162-0.609,0.041-0.73
		c0.934-0.325,3.248-1.38,4.182-1.99c0.203,0,0.365,0.082,0.406,0.244c-0.082,1.421-0.163,3.37-0.163,5.035v7.308
		c0,2.923,0.081,3.329,1.543,3.532l0.853,0.122c0.284,0.203,0.203,0.893-0.081,1.015c-1.218-0.081-2.396-0.122-3.816-0.122
		c-1.462,0-2.68,0.041-3.816,0.122c-0.284-0.122-0.366-0.812-0.081-1.015l0.853-0.122c1.502-0.203,1.542-0.609,1.542-3.532V64.283z
		 M534.938,51.128c0,1.421-1.016,2.071-2.111,2.071c-1.259,0-2.07-0.893-2.07-1.989c0-1.34,1.015-2.152,2.191-2.152
		C534.167,49.058,534.938,49.992,534.938,51.128z"/>
	<path fill="#00476B" d="M542.042,64.283c0-1.583,0-1.786-1.096-2.517l-0.365-0.244c-0.162-0.162-0.162-0.609,0.041-0.73
		c0.934-0.325,3.248-1.38,4.06-1.99c0.162,0,0.365,0.082,0.446,0.285c-0.081,0.934-0.081,1.542-0.081,1.908
		c0,0.243,0.163,0.446,0.447,0.446c1.704-1.056,3.613-2.071,5.685-2.071c3.369,0,4.749,2.314,4.749,5.035v6.983
		c0,2.923,0.081,3.329,1.543,3.532l0.894,0.122c0.284,0.203,0.203,0.893-0.082,1.015c-1.218-0.081-2.395-0.122-3.816-0.122
		c-1.461,0-2.68,0.041-3.775,0.122c-0.284-0.122-0.365-0.812-0.081-1.015l0.771-0.122c1.502-0.243,1.542-0.609,1.542-3.532v-6.049
		c0-2.314-1.055-4.02-3.815-4.02c-1.543,0-2.883,0.649-3.452,1.421c-0.527,0.69-0.608,1.259-0.608,2.436v6.212
		c0,2.923,0.081,3.289,1.543,3.532l0.73,0.122c0.284,0.203,0.203,0.893-0.081,1.015c-1.096-0.081-2.273-0.122-3.694-0.122
		c-1.462,0-2.68,0.041-3.816,0.122c-0.284-0.122-0.365-0.812-0.081-1.015l0.854-0.122c1.501-0.203,1.541-0.609,1.541-3.532V64.283z"
		/>
	<path fill="#00476B" d="M577.486,60.832c0.446,0.203,0.366,1.583-0.243,1.665h-2.924c0.081,0.69,0.081,1.38,0.081,2.071
		c0,2.801-1.665,6.455-6.82,6.455c-0.73,0-1.3-0.081-1.786-0.122c-0.487,0.284-1.787,1.055-1.787,2.233
		c0,0.934,0.934,1.705,2.843,1.705c1.38,0,3.044-0.122,4.831-0.122c2.273,0,5.684,0.406,5.684,4.466
		c0,4.425-4.832,7.673-10.109,7.673c-4.994,0-6.74-2.68-6.74-4.709c0-0.65,0.163-1.178,0.447-1.502
		c0.689-0.73,1.827-1.787,2.761-2.72c0.366-0.365,0.69-0.731,0.325-0.974c-1.584-0.406-2.964-1.787-2.964-3.208
		c0-0.203,0.163-0.365,0.608-0.69c0.69-0.446,1.463-1.137,2.152-1.868c0.203-0.243,0.406-0.568,0.406-0.771
		c-1.381-0.731-3.045-2.314-3.045-4.913c0-3.492,3.004-6.131,6.617-6.131c1.543,0,2.964,0.406,3.898,0.812
		c1.299,0.569,1.583,0.65,2.476,0.65H577.486z M569.001,77.234c-1.299,0-2.924,0.081-3.491,0.447
		c-0.976,0.608-1.949,1.867-1.949,3.41c0,2.192,1.746,4.02,5.44,4.02c3.613,0,6.008-2.031,6.008-4.345
		c0-2.477-1.704-3.532-4.627-3.532H569.001z M571.519,65.623c0-2.761-1.137-5.075-3.613-5.075c-1.949,0-3.41,1.787-3.41,4.547
		c0,2.882,1.745,4.75,3.694,4.75C570.382,69.845,571.519,68.1,571.519,65.623z"/>
	<path fill="#00476B" d="M174.777,91.841c2.964-2.314,6.74-3.451,10.962-3.451c2.192,0,5.278,0.446,7.186,0.974
		c0.487,0.123,0.771,0.203,1.137,0.163c0.041,0.934,0.244,3.491,0.568,5.968c-0.203,0.285-0.812,0.325-1.096,0.082
		c-0.609-2.762-2.436-5.928-8.323-5.928c-6.211,0-11.49,3.938-11.49,12.342c0,8.526,5.4,13.236,12.058,13.236
		c5.237,0,7.552-3.411,8.485-5.807c0.285-0.203,0.893-0.121,1.056,0.163c-0.284,2.11-1.34,4.79-1.949,5.562
		c-0.487,0.082-0.975,0.244-1.421,0.406c-0.893,0.324-3.816,0.934-6.414,0.934c-3.654,0-7.146-0.73-10.109-2.72
		c-3.248-2.233-5.766-5.928-5.766-11.165C169.662,98.094,171.692,94.236,174.777,91.841z"/>
	<path fill="#00476B" d="M205.755,107.432c0.609-0.203,0.65-0.569,0.69-1.178l0.041-1.867c0.041-1.503-0.446-3.533-2.964-3.533
		c-1.137,0-2.517,0.568-2.598,1.827c-0.041,0.649-0.082,1.137-0.406,1.38c-0.609,0.488-1.705,0.771-2.314,0.771
		c-0.366,0-0.568-0.203-0.568-0.568c0-2.111,4.588-4.994,7.551-4.994c2.923,0,4.344,1.706,4.223,4.751l-0.244,7.064
		c-0.082,1.867,0.284,3.532,1.868,3.532c0.406,0,0.771-0.122,1.015-0.244c0.203-0.121,0.406-0.283,0.528-0.283
		c0.162,0,0.284,0.242,0.284,0.527c0,0.203-1.421,1.786-3.41,1.786c-0.974,0-1.949-0.365-2.639-1.259
		c-0.163-0.243-0.406-0.568-0.65-0.568c-0.284,0-0.771,0.365-1.583,0.813c-0.893,0.486-1.786,1.015-2.923,1.015
		c-1.177,0-2.151-0.325-2.842-0.935c-0.771-0.689-1.258-1.704-1.258-2.842c0-1.582,0.771-2.516,3.37-3.45L205.755,107.432z
		 M203.238,114.576c0.812,0,2.07-0.609,2.476-1.015c0.487-0.487,0.528-1.056,0.528-1.908l0.081-2.396
		c0-0.447-0.162-0.527-0.406-0.527s-0.934,0.162-1.665,0.405c-2.396,0.812-3.573,1.421-3.573,3.005
		C200.68,112.83,201.167,114.576,203.238,114.576z"/>
	<path fill="#00476B" d="M216.514,104.184c0-1.584,0-1.787-1.096-2.518l-0.365-0.244c-0.162-0.162-0.162-0.609,0.041-0.73
		c0.934-0.324,3.248-1.381,4.06-1.989c0.162,0,0.365,0.081,0.447,0.284c-0.082,0.934-0.082,1.543-0.082,1.908
		c0,0.243,0.163,0.446,0.447,0.446c1.705-1.056,3.613-2.071,5.684-2.071c3.37,0,4.75,2.315,4.75,5.035v6.982
		c0,2.924,0.081,3.33,1.543,3.533l0.893,0.121c0.284,0.203,0.203,0.894-0.082,1.016c-1.218-0.082-2.395-0.122-3.816-0.122
		c-1.462,0-2.68,0.04-3.776,0.122c-0.284-0.122-0.365-0.813-0.082-1.016l0.771-0.121c1.502-0.244,1.543-0.609,1.543-3.533v-6.049
		c0-2.314-1.056-4.02-3.816-4.02c-1.542,0-2.882,0.65-3.451,1.422c-0.528,0.689-0.609,1.258-0.609,2.436v6.211
		c0,2.924,0.082,3.289,1.543,3.533l0.731,0.121c0.284,0.203,0.203,0.894-0.082,1.016c-1.096-0.082-2.273-0.122-3.694-0.122
		c-1.461,0-2.68,0.04-3.816,0.122c-0.284-0.122-0.366-0.813-0.081-1.016l0.852-0.121c1.502-0.203,1.543-0.609,1.543-3.533V104.184z"
		/>
	<path fill="#00476B" d="M247.938,99.961c0.325,0.284,0.609,0.934,0.609,1.624c0,0.73-0.406,1.502-0.894,1.502
		c-0.203,0-0.405-0.081-0.568-0.284c-0.893-1.096-2.395-2.152-4.06-2.152c-2.842,0-5.603,2.233-5.603,6.537
		c0,3.166,2.192,6.943,6.537,6.943c2.355,0,3.573-1.057,4.507-2.438c0.325-0.081,0.69,0.203,0.73,0.569
		c-1.38,3.005-4.425,4.141-6.78,4.141c-2.151,0-4.141-0.69-5.562-2.071c-1.421-1.38-2.354-3.369-2.354-6.008
		c0-4.385,3.085-9.055,9.825-9.055C245.258,99.27,246.842,99.473,247.938,99.961z"/>
	<path fill="#00476B" d="M255.368,105.441c-1.056,0-1.096,0.082-1.096,1.096c0,4.102,2.395,7.594,6.739,7.594
		c1.34,0,2.477-0.406,3.735-1.99c0.406-0.122,0.69,0.122,0.731,0.486c-1.34,2.762-4.264,3.776-6.375,3.776
		c-2.639,0-4.709-1.136-5.887-2.679c-1.218-1.584-1.706-3.492-1.706-5.278c0-4.993,3.289-9.177,8.161-9.177
		c3.492,0,5.766,2.396,5.766,4.832c0,0.568-0.082,0.893-0.163,1.056c-0.122,0.243-0.69,0.284-2.396,0.284H255.368z M257.885,104.224
		c3.004,0,3.897-0.163,4.222-0.406c0.122-0.081,0.244-0.243,0.244-0.771c0-1.137-0.771-2.559-3.126-2.559
		c-2.396,0-4.466,2.192-4.507,3.532c0,0.081,0,0.203,0.284,0.203H257.885z"/>
	<path fill="#00476B" d="M270.146,104.184c0-1.584,0-1.787-1.096-2.518l-0.365-0.244c-0.163-0.162-0.163-0.609,0.04-0.73
		c0.934-0.324,3.086-1.381,4.101-1.989c0.203,0.04,0.325,0.122,0.325,0.284v2.354c0,0.203,0.04,0.325,0.122,0.366
		c1.42-1.178,2.963-2.438,4.465-2.438c1.016,0,1.828,0.65,1.828,1.625c0,1.34-1.097,1.867-1.746,1.867
		c-0.406,0-0.609-0.121-0.894-0.284c-0.609-0.405-1.218-0.649-1.786-0.649c-0.649,0-1.137,0.365-1.462,0.813
		c-0.405,0.568-0.527,1.746-0.527,3.126v5.521c0,2.924,0.081,3.411,1.624,3.533l1.461,0.121c0.284,0.203,0.203,0.894-0.08,1.016
		c-1.909-0.082-3.086-0.122-4.508-0.122c-1.461,0-2.68,0.04-3.734,0.122c-0.285-0.122-0.365-0.813-0.082-1.016l0.771-0.121
		c1.502-0.244,1.543-0.609,1.543-3.533V104.184z"/>
	<path fill="#00476B" d="M296.697,91.841c2.964-2.314,6.739-3.451,10.962-3.451c2.192,0,5.278,0.446,7.186,0.974
		c0.488,0.123,0.772,0.203,1.137,0.163c0.041,0.934,0.244,3.491,0.569,5.968c-0.203,0.285-0.812,0.325-1.097,0.082
		c-0.609-2.762-2.436-5.928-8.322-5.928c-6.212,0-11.49,3.938-11.49,12.342c0,8.526,5.4,13.236,12.059,13.236
		c5.237,0,7.551-3.411,8.484-5.807c0.285-0.203,0.895-0.121,1.057,0.163c-0.284,2.11-1.34,4.79-1.949,5.562
		c-0.486,0.082-0.975,0.244-1.421,0.406c-0.894,0.324-3.816,0.934-6.415,0.934c-3.653,0-7.146-0.73-10.109-2.72
		c-3.248-2.233-5.765-5.928-5.765-11.165C291.582,98.094,293.612,94.236,296.697,91.841z"/>
	<path fill="#00476B" d="M323.331,105.441c-1.056,0-1.096,0.082-1.096,1.096c0,4.102,2.395,7.594,6.739,7.594
		c1.34,0,2.477-0.406,3.735-1.99c0.406-0.122,0.689,0.122,0.73,0.486c-1.34,2.762-4.263,3.776-6.374,3.776
		c-2.64,0-4.71-1.136-5.887-2.679c-1.218-1.584-1.706-3.492-1.706-5.278c0-4.993,3.289-9.177,8.161-9.177
		c3.491,0,5.765,2.396,5.765,4.832c0,0.568-0.08,0.893-0.162,1.056c-0.121,0.243-0.69,0.284-2.395,0.284H323.331z M325.849,104.224
		c3.004,0,3.896-0.163,4.222-0.406c0.122-0.081,0.244-0.243,0.244-0.771c0-1.137-0.772-2.559-3.126-2.559
		c-2.396,0-4.467,2.192-4.508,3.532c0,0.081,0,0.203,0.285,0.203H325.849z"/>
	<path fill="#00476B" d="M338.109,104.184c0-1.584,0-1.787-1.097-2.518l-0.365-0.244c-0.162-0.162-0.162-0.609,0.041-0.73
		c0.934-0.324,3.248-1.381,4.06-1.989c0.163,0,0.366,0.081,0.447,0.284c-0.081,0.934-0.081,1.543-0.081,1.908
		c0,0.243,0.162,0.446,0.445,0.446c1.706-1.056,3.614-2.071,5.685-2.071c3.37,0,4.751,2.315,4.751,5.035v6.982
		c0,2.924,0.08,3.33,1.543,3.533l0.893,0.121c0.283,0.203,0.203,0.894-0.081,1.016c-1.218-0.082-2.396-0.122-3.816-0.122
		c-1.462,0-2.68,0.04-3.776,0.122c-0.283-0.122-0.365-0.813-0.08-1.016l0.771-0.121c1.503-0.244,1.543-0.609,1.543-3.533v-6.049
		c0-2.314-1.056-4.02-3.816-4.02c-1.543,0-2.883,0.65-3.451,1.422c-0.527,0.689-0.608,1.258-0.608,2.436v6.211
		c0,2.924,0.081,3.289,1.543,3.533l0.73,0.121c0.284,0.203,0.203,0.894-0.082,1.016c-1.096-0.082-2.273-0.122-3.694-0.122
		c-1.462,0-2.679,0.04-3.815,0.122c-0.285-0.122-0.366-0.813-0.082-1.016l0.853-0.121c1.503-0.203,1.543-0.609,1.543-3.533V104.184z
		"/>
	<path fill="#00476B" d="M361.13,101.544c-0.691,0-0.731,0.122-0.731,0.975v7.593c0,2.354,0.284,4.506,2.964,4.506
		c0.406,0,0.771-0.082,1.096-0.203c0.365-0.122,0.895-0.568,1.016-0.568c0.324,0,0.486,0.446,0.406,0.689
		c-0.73,0.854-2.193,1.868-4.264,1.868c-3.491,0-4.223-1.948-4.223-4.385v-9.298c0-1.096-0.041-1.177-0.852-1.177h-1.137
		c-0.244-0.162-0.285-0.609-0.123-0.853c1.178-0.365,2.193-0.894,2.6-1.258c0.527-0.488,1.299-1.584,1.705-2.396
		c0.203-0.081,0.689-0.081,0.852,0.203v1.827c0,0.73,0.041,0.771,0.731,0.771h4.507c0.486,0.365,0.406,1.462,0.04,1.705H361.13z"/>
	<path fill="#00476B" d="M371.563,105.441c-1.056,0-1.097,0.082-1.097,1.096c0,4.102,2.396,7.594,6.74,7.594
		c1.339,0,2.476-0.406,3.735-1.99c0.404-0.122,0.689,0.122,0.73,0.486c-1.34,2.762-4.264,3.776-6.375,3.776
		c-2.639,0-4.709-1.136-5.887-2.679c-1.217-1.584-1.705-3.492-1.705-5.278c0-4.993,3.289-9.177,8.161-9.177
		c3.491,0,5.765,2.396,5.765,4.832c0,0.568-0.082,0.893-0.162,1.056c-0.123,0.243-0.69,0.284-2.396,0.284H371.563z M374.08,104.224
		c3.005,0,3.897-0.163,4.223-0.406c0.122-0.081,0.243-0.243,0.243-0.771c0-1.137-0.771-2.559-3.126-2.559
		c-2.396,0-4.466,2.192-4.507,3.532c0,0.081,0,0.203,0.285,0.203H374.08z"/>
	<path fill="#00476B" d="M386.342,104.184c0-1.584,0-1.787-1.097-2.518l-0.365-0.244c-0.162-0.162-0.162-0.609,0.041-0.73
		c0.934-0.324,3.086-1.381,4.1-1.989c0.203,0.04,0.326,0.122,0.326,0.284v2.354c0,0.203,0.039,0.325,0.121,0.366
		c1.42-1.178,2.963-2.438,4.466-2.438c1.015,0,1.827,0.65,1.827,1.625c0,1.34-1.096,1.867-1.746,1.867
		c-0.406,0-0.609-0.121-0.893-0.284c-0.609-0.405-1.219-0.649-1.787-0.649c-0.65,0-1.137,0.365-1.461,0.813
		c-0.406,0.568-0.527,1.746-0.527,3.126v5.521c0,2.924,0.08,3.411,1.623,3.533l1.461,0.121c0.285,0.203,0.203,0.894-0.081,1.016
		c-1.907-0.082-3.085-0.122-4.506-0.122c-1.462,0-2.68,0.04-3.735,0.122c-0.284-0.122-0.365-0.813-0.082-1.016l0.772-0.121
		c1.502-0.244,1.543-0.609,1.543-3.533V104.184z"/>
</g>
<g>
	<path fill="#00476B" d="M135.855,130.66c0.235-0.517,0.007-1.121-0.501-1.374c-0.525-0.22-1.132,0.001-1.37,0.518
		c-0.237,0.518-0.006,1.116,0.513,1.353C135.014,131.394,135.618,131.178,135.855,130.66z"/>
	<path fill="#00476B" d="M13.574,131.476c0.244,0.514,0.854,0.727,1.376,0.499c0.505-0.259,0.727-0.867,0.483-1.381
		s-0.853-0.722-1.365-0.478C13.554,130.359,13.33,130.961,13.574,131.476z"/>
	<path fill="#00476B" d="M5.031,119.291c0.449-0.066,0.91-0.135,1.366-0.18l4.324-0.508l2.469-0.228l0.106-0.016
		c-0.114-0.254-0.173-0.533-0.206-0.807c-0.081,0.021-0.162,0.042-0.257,0.054l-1.167,0.237l-4.629,0.661
		c1.296-1.167,2.586-2.357,3.917-3.484l1.139-0.967l-0.034-0.127c-0.619-0.122-1.234-0.224-1.847-0.36l-1.353-0.303l-3.389-0.861
		c0.559-0.218,1.102-0.442,1.664-0.647l4.096-1.444c-0.083-0.175-0.132-0.37-0.179-0.556c-0.045-0.172-0.078-0.348-0.1-0.526
		c-0.968,0.384-1.921,0.786-2.896,1.149l-4.84,1.842l0.038,0.15c0.669,0.171,1.332,0.357,2.001,0.529l3.173,0.795
		c0.629,0.156,1.248,0.316,1.865,0.477c-0.885,0.902-1.76,1.754-2.677,2.577l-2.638,2.347L5.031,119.291z"/>
	<path fill="#00476B" d="M2.247,106.684l0.163,1.273c0.5-0.107,1-0.213,1.491-0.305l1.027-0.196l4.018-0.628l1.489-0.172
		c-0.066-0.328-0.133-0.654-0.187-0.982c-0.056-0.342-0.124-0.678-0.179-1.018c-0.08-0.482-0.149-0.965-0.216-1.447l-0.111-0.813
		c-0.224,0.098-0.458,0.136-0.701,0.127c0.117,0.344,0.21,0.688,0.282,1.05c0.14,0.7,0.302,1.397,0.396,2.104
		c-0.338,0.067-0.676,0.136-1.016,0.192l-1.465,0.242c-0.306,0.052-0.624,0.09-0.941,0.145l-0.108-0.658
		c-0.03-0.176-0.056-0.34-0.084-0.504l-0.084-0.661c-0.057-0.339-0.078-0.686-0.101-1.044c-0.113,0.043-0.227,0.087-0.344,0.105
		c-0.118,0.021-0.239,0.017-0.362,0c0.082,0.35,0.149,0.687,0.232,1.034l0.14,0.626l0.195,1.187
		c-0.223,0.036-0.444,0.085-0.666,0.122c-0.176,0.028-0.351,0.059-0.528,0.087l-1.77,0.231l-0.141-0.855l-0.159-1.178
		c-0.034-0.356-0.057-0.713-0.092-1.07c-0.112,0.056-0.229,0.074-0.347,0.095c-0.116,0.019-0.238,0.015-0.358,0.022
		c0.09,0.395,0.182,0.802,0.248,1.199L2.247,106.684z"/>
	<path fill="#00476B" d="M1.081,100.045c0.455-0.002,0.923-0.004,1.38,0.021l4.357,0.117l2.48,0.13h0.107
		c-0.076-0.268-0.094-0.554-0.089-0.828c-0.082,0.009-0.166,0.019-0.261,0.017L7.866,99.57l-4.681-0.014
		c1.451-0.971,2.9-1.963,4.381-2.89l1.268-0.793l-0.015-0.132c-0.596-0.209-1.192-0.396-1.777-0.621l-1.298-0.496L2.51,93.284
		c0.586-0.134,1.155-0.278,1.742-0.401l4.265-0.84c-0.056-0.186-0.077-0.389-0.097-0.576C8.4,91.289,8.394,91.109,8.397,90.93
		c-1.016,0.24-2.015,0.504-3.035,0.721l-5.061,1.129l0.017,0.154c0.639,0.267,1.267,0.545,1.907,0.813l3.028,1.244
		c0.602,0.246,1.19,0.494,1.78,0.742c-1.008,0.766-1.996,1.481-3.023,2.166L1.06,99.844L1.081,100.045z"/>
	<path fill="#00476B" d="M4.184,81.114c0.357-0.002,0.737,0.031,1.083,0.101c1.595,0.285,2.864,1.537,2.875,3.202
		c0.006,0.928-0.355,1.785-1.053,2.408c-0.732,0.647-1.658,0.854-2.622,0.861c-1.224,0.008-2.628-0.303-3.408-1.344
		c-0.432-0.578-0.639-1.244-0.644-1.979c-0.007-0.952,0.391-1.881,1.148-2.483C2.354,81.257,3.198,81.121,4.184,81.114z M0,84.482
		c0.008,1.154,0.395,2.195,1.173,3.048c0.814,0.897,1.935,1.329,3.136,1.321c0.296-0.002,0.595-0.029,0.891-0.077
		c0.332-0.063,0.641-0.124,0.95-0.268c1.646-0.796,2.371-2.265,2.359-4.058c-0.018-2.651-1.777-4.518-4.452-4.5
		c-1.616,0.011-2.834,0.756-3.576,2.189C0.131,82.818-0.005,83.722,0,84.482z"/>
	<path fill="#00476B" d="M0.809,75.571c0.019-0.323,0.038-0.655,0.069-0.977c0.019-0.226,0.048-0.522,0.104-0.745
		c0.11-0.42,0.175-0.596,0.526-0.873c0.311-0.259,0.701-0.33,1.092-0.294c0.927,0.086,1.46,0.795,1.558,1.679
		c0.037,0.375,0.026,0.614-0.008,0.993c-0.018,0.191-0.048,0.38-0.078,0.569L0.809,75.571z M0.236,76.584l0.285,0.025l2.312,0.145
		l4.151,0.447c0.462,0.054,0.912,0.132,1.373,0.188c0.005-0.191,0.001-0.395,0.019-0.585c0.015-0.179,0.058-0.367,0.086-0.543
		l-2.476-0.183c-0.178-0.017-0.345-0.032-0.511-0.049l-0.951-0.086l0.043-0.451l1.203-0.846l1.95-1.233
		c0.355-0.218,0.711-0.424,1.065-0.632c0.009-0.227-0.018-0.444,0.003-0.67c0.022-0.238,0.09-0.46,0.124-0.695l-0.281,0.177
		l-0.717,0.508l-3.33,2.158c-0.101-1.219-0.651-2.517-2.029-2.646c-0.309-0.028-0.664,0.046-0.951,0.162
		c-0.897,0.373-1.069,1.447-1.137,2.304l-0.123,1.581L0.236,76.584z"/>
	<path fill="#00476B" d="M1.189,67.042c0.05,0.186,0.026,0.399,0.004,0.588c-0.02,0.165-0.078,0.362-0.121,0.525L3.604,68.4
		c0.285,0.032,0.569,0.055,0.853,0.087c0.33,0.038,0.672,0.089,1.002,0.127c0.377,0.056,0.755,0.088,1.131,0.155l2.524,0.412
		c0.012-0.202,0.012-0.405,0.036-0.605c0.021-0.189,0.068-0.386,0.101-0.574l-2.526-0.185c-0.237-0.016-0.475-0.033-0.711-0.06
		c-0.743-0.086-1.485-0.196-2.214-0.305L1.189,67.042z"/>
	<path fill="#00476B" d="M1.94,60.743l7.549,5.037c0.001-0.144,0.016-0.298,0.04-0.438c0.023-0.141,0.047-0.282,0.104-0.406
		c-1.012-0.496-1.972-1.092-2.933-1.678l0.23-1.576l0.273-1.399l1.48-0.341l1.495-0.29l0.357-0.049
		c0.001-0.216,0.038-0.438,0.075-0.649c0.033-0.199,0.079-0.396,0.135-0.592L10.29,58.49l-8.31,2.017L1.94,60.743z M6.483,61.547
		c-0.081,0.47-0.172,0.935-0.25,1.405L3.46,61.167l3.22-0.793L6.483,61.547z"/>
	<path fill="#00476B" d="M8.587,54.467c-0.45-0.107-0.916-0.208-1.377-0.32c-0.589-0.144-1.164-0.295-1.733-0.469l-1.763-0.5
		l-0.069,0.288l-0.197,0.81c0.494,0.083,0.984,0.178,1.47,0.295l4.967,1.202l1.436,0.434c0.068-0.327,0.135-0.653,0.212-0.976
		c0.081-0.335,0.151-0.674,0.232-1.008c0.114-0.475,0.241-0.945,0.367-1.416l0.224-0.826c-0.243,0.001-0.475-0.054-0.691-0.169
		c-0.044,0.382-0.084,0.751-0.162,1.124c-0.144,0.7-0.268,1.403-0.46,2.102c-0.335-0.08-0.676-0.139-1.01-0.22L8.587,54.467z"/>
	<path fill="#00476B" d="M13.131,44.8c0.316,0.17,0.63,0.35,0.91,0.583c0.552-0.222,1.099-1.034,1.305-1.578
		c0.569-1.513,0.11-3.096-1.481-3.693c-0.455-0.173-0.9-0.138-1.351,0.012c-0.278,0.099-0.516,0.326-0.741,0.521
		c-0.148,0.123-0.287,0.288-0.427,0.424c-0.141,0.138-0.27,0.281-0.398,0.421c-0.11,0.124-0.232,0.245-0.349,0.352
		c-0.18,0.173-0.208,0.215-0.43,0.334c-0.388,0.221-0.792,0.249-1.215,0.089c-0.79-0.296-1.097-1.137-0.807-1.904
		c0.247-0.657,0.831-0.994,1.519-1.003l0.043-0.111c-0.277-0.207-0.561-0.401-0.8-0.643c-0.521,0.273-0.932,0.855-1.132,1.39
		c-0.502,1.333-0.229,2.733,1.208,3.273c0.6,0.226,1.3,0.158,1.821-0.217c0.503-0.356,0.895-0.858,1.335-1.289
		c0.513-0.518,1.08-0.876,1.825-0.595c0.879,0.33,1.359,1.246,1.02,2.148c-0.326,0.867-0.937,1.209-1.813,1.375L13.131,44.8z"/>
	<path fill="#00476B" d="M15.067,36.443c-0.41-0.214-0.837-0.425-1.258-0.645c-0.536-0.282-1.058-0.566-1.568-0.874l-1.59-0.911
		l-0.137,0.262l-0.386,0.737c0.459,0.201,0.914,0.411,1.355,0.643l4.53,2.369l1.289,0.768c0.143-0.302,0.287-0.601,0.442-0.896
		c0.16-0.306,0.308-0.617,0.468-0.922c0.226-0.432,0.462-0.858,0.698-1.284l0.419-0.749c-0.239-0.057-0.45-0.167-0.633-0.331
		c-0.134,0.359-0.263,0.708-0.429,1.052c-0.309,0.642-0.598,1.296-0.955,1.928c-0.305-0.16-0.623-0.3-0.927-0.458L15.067,36.443z"/>
	<path fill="#00476B" d="M21.238,24.516c0.294,0.202,0.586,0.447,0.831,0.702c1.141,1.15,1.463,2.902,0.518,4.271
		c-0.526,0.764-1.316,1.259-2.245,1.369c-0.971,0.11-1.847-0.25-2.641-0.797c-1.008-0.696-1.979-1.757-2.021-3.057
		c-0.021-0.721,0.19-1.384,0.608-1.992c0.541-0.782,1.399-1.315,2.364-1.373C19.658,23.584,20.426,23.956,21.238,24.516z
		 M15.879,24.875c-0.655,0.948-0.938,2.024-0.788,3.169c0.153,1.202,0.823,2.199,1.811,2.879c0.245,0.169,0.503,0.319,0.774,0.449
		c0.307,0.14,0.595,0.267,0.932,0.324c1.806,0.293,3.241-0.491,4.261-1.969c1.505-2.182,1.135-4.719-1.067-6.238
		c-1.33-0.918-2.756-1.006-4.184-0.258C16.94,23.586,16.31,24.249,15.879,24.875z"/>
	<path fill="#00476B" d="M23.303,16.318l3.145,8.514c0.085-0.118,0.188-0.233,0.289-0.334c0.102-0.099,0.205-0.198,0.322-0.265
		c-0.526-0.997-0.952-2.044-1.387-3.083l1.112-1.14l1.045-0.972l1.397,0.595l1.38,0.646l0.318,0.171
		c0.127-0.176,0.289-0.333,0.442-0.483c0.144-0.141,0.296-0.274,0.457-0.398l-0.443-0.164l-7.908-3.255L23.303,16.318z
		 M26.503,19.638c-0.34,0.333-0.688,0.657-1.027,0.988l-1.195-3.07l3.071,1.25L26.503,19.638z"/>
	<path fill="#00476B" d="M32.954,16.868c0.246,0.461,0.472,0.936,0.688,1.415c0.215-0.177,0.453-0.31,0.715-0.403l-0.612-0.965
		l-0.719-1.204c-0.158-0.281-0.315-0.56-0.468-0.828c-0.285-0.508-0.581-1.011-0.862-1.534l-0.527-0.985l4.621,1.448l2.745,0.923
		c0.351,0.115,0.699,0.248,1.045,0.38l0.156-0.088l-0.69-1.152l-1.276-2.337L36.479,9.03l-0.52-1.044
		c-0.038-0.088-0.083-0.171-0.119-0.26c-0.071,0.067-0.159,0.13-0.241,0.177c-0.146,0.082-0.308,0.159-0.463,0.219l0.057,0.078
		l0.509,0.806l1.867,3.314c0.209,0.373,0.416,0.763,0.604,1.147l-0.106-0.021l-8.164-2.578l-0.177,0.098l1.948,3.458L32.954,16.868z
		"/>
	<path fill="#00476B" d="M41.148,11.594l2.767-1.085l-0.269-0.686l-2.767,1.083L41.148,11.594z"/>
	<path fill="#00476B" d="M45.246,5.467l0.349,1.061c0.159,0.498,0.318,0.998,0.47,1.511c0.154,0.524,0.3,1.064,0.443,1.591
		l0.525,2.039c0.02,0.107,0.045,0.197,0.065,0.303l0.213-0.075c0.29-0.108,0.556-0.213,0.871-0.244l-0.107-0.278l-0.376-1.115
		l-0.343-1.164c-0.118-0.398-0.249-0.806-0.367-1.205c-0.017-0.057-0.034-0.115-0.037-0.163c0.056-0.066,0.133-0.051,0.205-0.023
		l1.26,0.792l2.08,1.383c0.383,0.248,0.733,0.516,1.105,0.765c0.213-0.074,0.405-0.179,0.622-0.244
		c0.205-0.062,0.413-0.071,0.621-0.122l-0.024-0.079L51.58,9.39c-1.225-0.792-2.474-1.541-3.695-2.321l0.682-1.265l1.816-3.26
		c-0.16,0.046-0.324,0.119-0.484,0.166c-0.136,0.041-0.277,0.07-0.417,0.099L47.967,5.83L47.57,6.544
		c-0.114,0.206-0.217,0.398-0.333,0.593c-0.059,0.092-0.246,0.345-0.249,0.333c-0.031,0.022-0.112-0.002-0.123-0.038
		c-0.017-0.057-0.047-0.121-0.068-0.191l-0.832-3.038c-0.033-0.114-0.067-0.229-0.075-0.338C45.596,4,45.289,4.141,44.961,4.163
		c-0.049,0.002-0.093,0.015-0.142,0.018l0.099,0.256L45.246,5.467z"/>
	<path fill="#00476B" d="M54.89,1.73l-1.274,0.162c0.107,0.5,0.213,1.001,0.307,1.491l0.195,1.028l0.627,4.017l0.174,1.489
		c0.326-0.066,0.652-0.131,0.981-0.187c0.34-0.054,0.679-0.122,1.017-0.179c0.482-0.08,0.965-0.147,1.448-0.215l0.813-0.111
		C59.08,9,59.042,8.765,59.049,8.524C58.708,8.641,58.361,8.734,58,8.805c-0.702,0.14-1.396,0.303-2.104,0.397
		c-0.068-0.338-0.136-0.677-0.193-1.018L55.462,6.72c-0.051-0.305-0.092-0.623-0.145-0.94l0.657-0.109
		c0.176-0.029,0.34-0.056,0.505-0.083l0.66-0.085c0.34-0.057,0.686-0.079,1.044-0.102c-0.043-0.112-0.085-0.225-0.105-0.344
		c-0.02-0.116-0.016-0.238,0-0.361c-0.348,0.082-0.685,0.149-1.033,0.231l-0.628,0.14l-1.186,0.197
		c-0.036-0.224-0.085-0.445-0.121-0.667c-0.03-0.177-0.06-0.352-0.088-0.528L54.791,2.3l0.856-0.141L56.825,2
		c0.357-0.036,0.713-0.058,1.07-0.094c-0.054-0.11-0.074-0.229-0.092-0.345c-0.02-0.117-0.017-0.239-0.023-0.358
		c-0.396,0.088-0.803,0.182-1.2,0.246L54.89,1.73z"/>
	<path fill="#00476B" d="M65.932,1.011c0.12,0,0.229,0.002,0.336,0.015c-0.083-0.243-0.094-0.491-0.071-0.746l-1.461,0.199
		l-1.465,0.174l-1.552,0.121c-0.533,0.04-1.083,0.043-1.628,0.082c0.058,0.234,0.069,0.472,0.056,0.712l1.128-0.191
		c0.495-0.083,0.979-0.127,1.488-0.188l0.113,1.208l0.39,4.762l0.07,1.248c-0.002,0.096,0.007,0.202-0.007,0.298
		c0.198-0.053,0.409-0.086,0.623-0.105c0.188-0.02,0.369-0.012,0.548-0.005l-0.02-0.08l-0.18-1.167l-0.445-4.71L63.77,1.381
		c-0.007-0.083-0.016-0.177-0.013-0.273l0.296-0.028l0.603-0.056L65.932,1.011z"/>
	<path fill="#00476B" d="M73.918,0.709c0.118,0.01,0.226,0.018,0.334,0.041C74.187,0.5,74.193,0.25,74.234,0l-1.472,0.095
		l-1.473,0.071l-1.556,0.015c-0.536,0-1.083-0.033-1.631-0.033c0.041,0.236,0.036,0.475,0.006,0.714l1.138-0.11
		c0.499-0.048,0.987-0.062,1.497-0.084l0.029,1.211l0.057,4.779l-0.017,1.247c-0.009,0.096-0.007,0.204-0.028,0.299
		c0.201-0.041,0.415-0.059,0.628-0.063c0.19-0.005,0.37,0.015,0.547,0.035l-0.013-0.083l-0.1-1.174l-0.115-4.73l0.006-1.262
		c-0.003-0.083-0.005-0.178,0.005-0.272l0.296-0.008l0.605-0.015L73.918,0.709z"/>
	<path fill="#00476B" d="M78.101,0.101l-1.282-0.084c0.009,0.511,0.02,1.022,0.016,1.523L76.83,2.585l-0.149,4.063l-0.114,1.495
		c0.333-0.003,0.666-0.005,0.998,0.004c0.345,0.01,0.689,0.007,1.035,0.016c0.487,0.015,0.974,0.04,1.461,0.065l0.818,0.048
		c-0.052-0.24-0.044-0.477,0.008-0.713c-0.357,0.049-0.714,0.074-1.083,0.076c-0.713,0.005-1.429,0.032-2.14-0.013
		c-0.002-0.345-0.004-0.689,0.004-1.034l0.043-1.485c0.008-0.309,0.03-0.629,0.039-0.95l0.665,0.019
		c0.178,0.006,0.345,0.01,0.51,0.015l0.665,0.043c0.344,0.009,0.688,0.054,1.045,0.1c-0.021-0.119-0.041-0.237-0.039-0.358
		c0.004-0.118,0.031-0.237,0.071-0.354c-0.358,0.014-0.703,0.016-1.061,0.029l-0.641,0.017l-1.202-0.033
		c0.006-0.226,0.002-0.453,0.009-0.677c0.004-0.179,0.009-0.357,0.015-0.535l0.109-1.781l0.867,0.022l1.187,0.07
		c0.357,0.035,0.711,0.08,1.067,0.113c-0.032-0.119-0.029-0.239-0.025-0.356c0.003-0.121,0.03-0.238,0.045-0.356
		c-0.405,0.013-0.82,0.025-1.225,0.014L78.101,0.101z"/>
	<path fill="#00476B" d="M85.387,0.932c0.32,0.026,0.651,0.053,0.972,0.089c0.225,0.026,0.519,0.061,0.739,0.123
		c0.416,0.12,0.589,0.188,0.858,0.542c0.251,0.316,0.314,0.706,0.269,1.096c-0.107,0.921-0.824,1.436-1.707,1.513
		c-0.374,0.028-0.612,0.014-0.99-0.03c-0.189-0.022-0.376-0.056-0.564-0.089L85.387,0.932z M84.39,0.338l-0.032,0.285l-0.195,2.298
		l-0.538,4.126C83.56,7.505,83.473,7.95,83.408,8.41c0.19,0.01,0.393,0.01,0.583,0.03c0.177,0.022,0.364,0.067,0.54,0.099
		l0.237-2.461c0.021-0.178,0.04-0.343,0.058-0.508l0.11-0.944l0.449,0.051l0.816,1.22l1.184,1.967
		c0.21,0.36,0.407,0.718,0.605,1.076c0.226,0.014,0.444-0.008,0.669,0.018c0.235,0.027,0.455,0.101,0.69,0.139l-0.172-0.284
		l-0.489-0.727L86.61,4.725c1.217-0.076,2.522-0.595,2.68-1.964c0.036-0.306-0.03-0.66-0.141-0.949
		c-0.351-0.903-1.416-1.097-2.268-1.185L85.31,0.469L84.39,0.338z"/>
	<path fill="#00476B" d="M94.141,1.687c-0.188,0.037-0.398-0.003-0.585-0.037c-0.163-0.03-0.355-0.103-0.515-0.158l-0.422,2.51
		c-0.053,0.281-0.093,0.563-0.146,0.843c-0.061,0.326-0.136,0.663-0.197,0.991c-0.083,0.372-0.14,0.748-0.233,1.118l-0.588,2.49
		c0.201,0.026,0.405,0.038,0.603,0.076c0.187,0.036,0.381,0.096,0.566,0.143l0.362-2.509c0.031-0.236,0.063-0.472,0.107-0.705
		c0.137-0.736,0.299-1.469,0.458-2.188L94.141,1.687z"/>
	<path fill="#00476B" d="M96.129,8.683c-0.152,0.5-0.328,0.995-0.515,1.485c0.276,0.027,0.54,0.102,0.791,0.22l0.25-1.114
		l0.342-1.36c0.088-0.309,0.174-0.618,0.256-0.917c0.158-0.562,0.303-1.125,0.474-1.694l0.324-1.07l2.244,4.293l1.287,2.594
		c0.167,0.33,0.32,0.669,0.472,1.007l0.171,0.048l0.327-1.304l0.751-2.555l0.862-2.684l0.37-1.106c0.037-0.088,0.063-0.18,0.1-0.267
		c-0.099-0.003-0.204-0.021-0.296-0.046c-0.16-0.045-0.329-0.104-0.482-0.172l-0.015,0.095l-0.211,0.928l-1.022,3.663
		c-0.115,0.414-0.246,0.833-0.382,1.239l-0.063-0.091l-3.95-7.596l-0.194-0.055L96.95,6.05L96.129,8.683z"/>
	<path fill="#00476B" d="M114.359,10.087c0.208-0.244,0.416-0.485,0.642-0.708c-0.026-0.053-0.07-0.1-0.098-0.152
		c-0.684-0.802-1.388-1.311-2.342-1.768c-2.379-1.142-4.806-0.696-6.01,1.812c-0.318,0.665-0.562,1.339-0.527,2.092
		c0.045,0.813,0.263,1.485,0.788,2.12c0.506,0.624,1.148,1.13,1.876,1.479c0.997,0.477,2.066,0.777,3.152,0.904l0.176-0.365
		l0.609-1.275l0.548-1.055c0.051-0.108,0.101-0.215,0.164-0.317c-0.158,0.03-0.369-0.085-0.507-0.151
		c-0.149-0.073-0.301-0.17-0.495-0.289c-0.138,0.343-0.281,0.667-0.44,1.001c-0.093,0.192-0.185,0.385-0.278,0.579l-0.555,1.157
		c-0.648,0.005-1.295-0.185-1.874-0.462c-0.889-0.426-1.612-1.037-1.915-2c-0.303-0.963-0.081-2.083,0.343-2.972
		c0.402-0.837,1.038-1.64,1.913-2.009c0.919-0.378,1.919-0.319,2.81,0.106c0.91,0.437,1.631,1.243,1.904,2.217L114.359,10.087z"/>
	<path fill="#00476B" d="M127.39,20.527c0.262-0.174,0.532-0.34,0.828-0.462c-0.31-0.81-0.79-1.589-1.396-2.208
		c-0.799-0.816-1.786-1.382-2.928-1.495c-1.149-0.104-2.391,0.429-3.207,1.228c-1.859,1.82-1.934,4.089-0.104,5.958
		c0.632,0.645,1.433,1.225,2.312,1.412l0.595-0.431c-0.068-0.068-0.143-0.061-0.193-0.078c-0.839-0.125-1.676-0.488-2.274-1.099
		c-0.648-0.664-0.999-1.583-0.89-2.507c0.055-0.455,0.177-0.823,0.409-1.214c0.222-0.368,0.605-0.876,0.92-1.185
		c1.444-1.413,3.474-1.871,5.005-0.308c0.556,0.569,0.843,1.371,0.859,2.152c0.016,0.068-0.01,0.125-0.003,0.186L127.39,20.527z"/>
	<path fill="#00476B" d="M132.592,24.832l-8.901,1.775c0.101,0.104,0.2,0.222,0.283,0.338c0.083,0.116,0.166,0.233,0.213,0.36
		c1.067-0.364,2.167-0.622,3.26-0.888l0.952,1.277l0.797,1.183l-0.806,1.288l-0.853,1.262l-0.218,0.286
		c0.152,0.154,0.283,0.338,0.407,0.513c0.117,0.165,0.223,0.336,0.322,0.515l0.231-0.412l4.451-7.302L132.592,24.832z
		 M128.811,27.474c-0.275-0.388-0.54-0.782-0.814-1.169l3.22-0.7l-1.717,2.838L128.811,27.474z"/>
	<path fill="#00476B" d="M130.584,34.036c-0.474,0.222-0.958,0.422-1.448,0.613c0.165,0.223,0.285,0.468,0.365,0.734l0.996-0.561
		l1.24-0.655c0.289-0.143,0.576-0.285,0.853-0.424c0.521-0.258,1.038-0.527,1.575-0.782l1.011-0.475l-1.688,4.54l-1.067,2.691
		c-0.133,0.345-0.283,0.687-0.432,1.025l0.079,0.16l1.187-0.629l2.401-1.151l2.571-1.156l1.069-0.466
		c0.091-0.03,0.175-0.072,0.269-0.105c-0.065-0.073-0.123-0.165-0.165-0.249c-0.075-0.15-0.143-0.315-0.196-0.473l-0.079,0.053
		l-0.833,0.465l-3.406,1.69c-0.384,0.19-0.782,0.376-1.176,0.545l0.027-0.107l3.001-8.019l-0.09-0.18l-3.556,1.763L130.584,34.036z"
		/>
	<path fill="#00476B" d="M141.906,47.446c0.312-0.04,0.627-0.071,0.947-0.051c0.076-0.865-0.012-1.775-0.286-2.597
		c-0.36-1.083-1.001-2.023-1.977-2.626c-0.988-0.598-2.337-0.662-3.42-0.302c-2.469,0.82-3.532,2.827-2.707,5.308
		c0.286,0.858,0.751,1.73,1.46,2.283l0.721-0.126c-0.029-0.09-0.101-0.117-0.138-0.155c-0.699-0.48-1.293-1.174-1.563-1.985
		c-0.292-0.88-0.206-1.859,0.299-2.642c0.248-0.383,0.52-0.662,0.899-0.913c0.361-0.233,0.929-0.522,1.347-0.662
		c1.916-0.636,3.942-0.158,4.632,1.918c0.252,0.756,0.156,1.602-0.17,2.312c-0.015,0.067-0.063,0.107-0.083,0.165L141.906,47.446z"
		/>
	<path fill="#00476B" d="M144.402,51.313l-0.272-1.256c-0.49,0.15-0.979,0.299-1.46,0.435l-1.007,0.285l-3.946,0.976l-1.469,0.303
		c0.095,0.319,0.189,0.638,0.272,0.961c0.085,0.334,0.182,0.666,0.268,0.999c0.121,0.472,0.231,0.947,0.341,1.422l0.181,0.8
		c0.216-0.116,0.447-0.175,0.688-0.188c-0.146-0.332-0.27-0.668-0.372-1.021c-0.2-0.687-0.423-1.365-0.579-2.062
		c0.332-0.095,0.663-0.193,0.996-0.279l1.438-0.369c0.302-0.077,0.613-0.145,0.924-0.225l0.167,0.645
		c0.043,0.173,0.086,0.334,0.128,0.497l0.14,0.65c0.088,0.333,0.139,0.677,0.191,1.031c0.11-0.052,0.22-0.105,0.336-0.135
		c0.114-0.029,0.233-0.036,0.359-0.031c-0.112-0.34-0.208-0.67-0.321-1.009l-0.193-0.613l-0.299-1.163
		c0.22-0.058,0.434-0.125,0.654-0.18c0.173-0.045,0.345-0.09,0.517-0.133l1.744-0.387l0.213,0.841l0.261,1.161
		c0.068,0.351,0.12,0.706,0.188,1.057c0.106-0.063,0.221-0.094,0.335-0.124c0.115-0.029,0.236-0.035,0.354-0.053
		c-0.123-0.386-0.249-0.783-0.35-1.175L144.402,51.313z"/>
	<path fill="#00476B" d="M145.682,58.53c0.064,0.315,0.132,0.64,0.183,0.958c0.038,0.223,0.085,0.515,0.087,0.743
		c-0.001,0.434-0.018,0.618-0.285,0.976c-0.235,0.328-0.591,0.495-0.98,0.559c-0.914,0.153-1.606-0.395-1.924-1.223
		c-0.129-0.352-0.18-0.585-0.244-0.96c-0.03-0.188-0.049-0.377-0.07-0.567L145.682,58.53z M145.978,57.408l-0.28,0.047l-2.264,0.446
		l-4.114,0.62c-0.46,0.065-0.911,0.104-1.372,0.167c0.044,0.186,0.1,0.382,0.133,0.569c0.028,0.176,0.035,0.368,0.053,0.545
		l2.431-0.45c0.176-0.03,0.34-0.056,0.504-0.084l0.938-0.154l0.074,0.445l-0.945,1.121l-1.567,1.681
		c-0.285,0.299-0.576,0.589-0.867,0.878c0.05,0.221,0.132,0.424,0.168,0.647c0.039,0.235,0.028,0.466,0.056,0.701l0.225-0.241
		l0.563-0.671l2.661-2.922c0.409,1.148,1.267,2.259,2.627,2.034c0.303-0.05,0.626-0.21,0.875-0.396
		c0.77-0.585,0.664-1.665,0.512-2.507l-0.281-1.555L145.978,57.408z"/>
	<path fill="#00476B" d="M147.254,77.125c0.314,0.027,0.63,0.064,0.941,0.151c0.258-0.832,0.366-1.743,0.272-2.609
		c-0.123-1.138-0.545-2.196-1.375-2.995c-0.842-0.798-2.153-1.15-3.29-1.027c-2.597,0.276-4.069,2.017-3.79,4.628
		c0.097,0.901,0.37,1.855,0.945,2.549l0.736,0.03c-0.012-0.095-0.074-0.136-0.103-0.181c-0.583-0.622-1.019-1.426-1.111-2.281
		c-0.097-0.925,0.197-1.869,0.859-2.527c0.326-0.322,0.65-0.538,1.075-0.703c0.405-0.152,1.023-0.313,1.462-0.36
		c2.016-0.216,3.901,0.686,4.133,2.869c0.087,0.795-0.186,1.604-0.661,2.23c-0.028,0.063-0.086,0.092-0.114,0.145L147.254,77.125z"
		/>
	<path fill="#00476B" d="M148.472,81l-0.09-1.287c-0.508,0.077-1.016,0.156-1.512,0.221l-1.042,0.136l-4.065,0.399l-1.505,0.087
		c0.047,0.333,0.095,0.664,0.13,0.998c0.035,0.344,0.084,0.687,0.122,1.031c0.053,0.486,0.093,0.976,0.133,1.464l0.063,0.82
		c0.232-0.084,0.47-0.109,0.713-0.088c-0.098-0.35-0.173-0.701-0.225-1.069c-0.099-0.71-0.223-1.417-0.275-2.132
		c0.343-0.049,0.687-0.098,1.031-0.135l1.484-0.159c0.31-0.032,0.631-0.055,0.951-0.088l0.072,0.664
		c0.021,0.179,0.038,0.345,0.056,0.511l0.045,0.667c0.039,0.346,0.04,0.694,0.042,1.052c0.116-0.035,0.23-0.072,0.35-0.084
		c0.119-0.014,0.242-0.002,0.364,0.022c-0.063-0.355-0.11-0.698-0.174-1.052l-0.103-0.638l-0.127-1.2
		c0.226-0.023,0.449-0.061,0.673-0.084c0.179-0.019,0.358-0.039,0.536-0.057l1.788-0.131l0.092,0.866l0.092,1.193
		c0.016,0.358,0.018,0.718,0.03,1.078c0.116-0.049,0.236-0.063,0.354-0.076c0.118-0.011,0.241,0,0.36-0.002
		c-0.067-0.399-0.133-0.813-0.176-1.216L148.472,81z"/>
	<path fill="#00476B" d="M142.178,87.796c-0.521-0.06-1.039-0.145-1.558-0.241c0.021,0.279-0.003,0.552-0.077,0.82l1.146,0.047
		l1.404,0.096c0.32,0.029,0.643,0.06,0.952,0.089c0.58,0.054,1.166,0.097,1.756,0.163l1.114,0.128l-3.836,2.985l-2.33,1.735
		c-0.298,0.224-0.604,0.435-0.91,0.646l-0.017,0.178l1.346,0.092l2.657,0.282l2.804,0.37l1.158,0.168
		c0.094,0.02,0.188,0.028,0.283,0.049c-0.013-0.096-0.018-0.204-0.006-0.301c0.016-0.166,0.043-0.342,0.083-0.506l-0.099,0.002
		l-0.952-0.04l-3.803-0.355c-0.427-0.04-0.863-0.093-1.291-0.155l0.08-0.077l6.791-5.261l0.019-0.203l-3.964-0.369L142.178,87.796z"
		/>
	<path fill="#00476B" d="M146.615,103.389c-0.024,0.115-0.048,0.223-0.08,0.324c0.254-0.033,0.5,0.003,0.743,0.075l0.087-1.474
		l0.107-1.47l0.177-1.548c0.064-0.531,0.165-1.07,0.231-1.613c-0.242,0.012-0.476-0.022-0.71-0.082l-0.03,1.144
		c-0.013,0.501-0.059,0.985-0.099,1.495l-1.207-0.117l-4.748-0.527l-1.238-0.169c-0.095-0.021-0.202-0.031-0.292-0.063
		c0.014,0.203,0.007,0.418-0.016,0.631c-0.017,0.189-0.059,0.364-0.1,0.54l0.083-0.005l1.179,0.045l4.709,0.463l1.249,0.157
		c0.082,0.009,0.18,0.019,0.271,0.039l-0.029,0.296l-0.059,0.604L146.615,103.389z"/>
	<path fill="#00476B" d="M146.442,107.982l0.282-1.253c-0.509-0.069-1.014-0.142-1.507-0.222l-1.032-0.17l-3.991-0.783l-1.458-0.346
		c-0.05,0.328-0.1,0.658-0.16,0.986c-0.063,0.338-0.116,0.68-0.179,1.018c-0.09,0.479-0.191,0.957-0.292,1.434l-0.173,0.801
		c0.245-0.014,0.477,0.03,0.702,0.12c0.009-0.361,0.039-0.718,0.095-1.083c0.107-0.705,0.191-1.414,0.346-2.111
		c0.341,0.051,0.683,0.104,1.02,0.167l1.462,0.274c0.304,0.055,0.616,0.127,0.933,0.187l-0.123,0.653
		c-0.033,0.176-0.063,0.34-0.095,0.502l-0.145,0.65c-0.063,0.34-0.163,0.671-0.263,1.016c0.119-0.002,0.242-0.004,0.357,0.019
		c0.119,0.021,0.23,0.067,0.341,0.125c0.043-0.355,0.094-0.696,0.137-1.051l0.082-0.638l0.222-1.18
		c0.222,0.04,0.447,0.07,0.669,0.112c0.175,0.032,0.349,0.064,0.525,0.099l1.742,0.387l-0.163,0.853l-0.253,1.161
		c-0.089,0.346-0.189,0.689-0.277,1.037c0.123-0.014,0.238,0.01,0.356,0.03c0.115,0.021,0.229,0.066,0.344,0.101
		c0.052-0.401,0.103-0.814,0.178-1.211L146.442,107.982z"/>
	<path fill="#00476B" d="M144.439,115.024c-0.072,0.313-0.144,0.64-0.224,0.948c-0.056,0.219-0.132,0.507-0.225,0.715
		c-0.175,0.396-0.267,0.559-0.655,0.776c-0.348,0.203-0.744,0.212-1.124,0.112c-0.896-0.234-1.307-1.016-1.26-1.9
		c0.022-0.375,0.07-0.607,0.166-0.977c0.048-0.184,0.108-0.363,0.169-0.545L144.439,115.024z M145.166,114.121l-0.278-0.072
		l-2.248-0.514l-4.012-1.106c-0.446-0.128-0.873-0.276-1.319-0.405c-0.038,0.187-0.063,0.389-0.111,0.572
		c-0.045,0.173-0.118,0.352-0.174,0.521l2.404,0.577c0.174,0.046,0.334,0.087,0.495,0.13l0.92,0.239l-0.113,0.438l-1.322,0.639
		l-2.113,0.898c-0.385,0.158-0.767,0.303-1.15,0.45c-0.045,0.222-0.053,0.439-0.11,0.658c-0.06,0.23-0.162,0.438-0.235,0.663
		l0.304-0.129l0.789-0.384l3.621-1.587c-0.096,1.216,0.235,2.578,1.57,2.928c0.299,0.078,0.659,0.063,0.96-0.008
		c0.942-0.223,1.283-1.251,1.487-2.081l0.375-1.536L145.166,114.121z"/>
	<path fill="#00476B" d="M125.961,139.721c-0.152,0.228-0.307,0.441-0.505,0.633c0.411,1.331,0.799,2.675,1.186,4.02l0.707,2.465
		l0.148,0.119l2.271-2.901l0.771,0.615l0.722,0.638c0.058,0.063,0.132,0.121,0.198,0.189c0.103-0.146,0.206-0.293,0.317-0.434
		c0.103-0.129,0.224-0.261,0.336-0.383l-0.072-0.043l-1.709-1.288l0.749-0.862c-0.219-0.146-0.432-0.299-0.597-0.508l-0.66,0.918
		l-1.949-1.556c-0.4-0.319-0.792-0.647-1.176-0.985L125.961,139.721z M127.51,145.703l-0.648-2.1l-0.663-2.354l0.075-0.017
		l2.992,2.388l-1.669,2.09L127.51,145.703z"/>
	<path fill="#00476B" d="M24.185,140.811l-0.778-1.021c-0.38,0.344-0.761,0.686-1.139,1.012l-0.793,0.682l-3.165,2.553l-1.203,0.896
		c0.221,0.251,0.441,0.499,0.652,0.757c0.22,0.266,0.447,0.523,0.666,0.791c0.309,0.377,0.609,0.761,0.909,1.145l0.503,0.65
		c0.145-0.199,0.329-0.349,0.542-0.464c-0.272-0.235-0.525-0.489-0.768-0.767c-0.471-0.537-0.962-1.057-1.395-1.623
		c0.258-0.229,0.518-0.456,0.784-0.676l1.147-0.942c0.239-0.196,0.495-0.391,0.742-0.595l0.422,0.514
		c0.115,0.139,0.22,0.268,0.326,0.397l0.403,0.528c0.219,0.266,0.411,0.556,0.61,0.854c0.076-0.094,0.153-0.188,0.245-0.263
		c0.092-0.076,0.199-0.133,0.313-0.181c-0.244-0.26-0.472-0.52-0.716-0.781l-0.436-0.472l-0.762-0.928
		c0.174-0.144,0.342-0.296,0.516-0.439c0.139-0.112,0.276-0.227,0.414-0.339l1.416-1.086l0.55,0.67l0.729,0.941
		c0.207,0.291,0.406,0.59,0.613,0.881c0.069-0.104,0.162-0.18,0.254-0.256c0.091-0.075,0.198-0.133,0.298-0.198
		c-0.275-0.298-0.558-0.603-0.814-0.916L24.185,140.811z"/>
	<path fill="#00476B" d="M23.244,149.646c-0.278,0.229-0.562,0.453-0.882,0.626c-0.001,0.597,0.545,1.407,0.975,1.801
		c1.189,1.094,2.828,1.262,3.979,0.011c0.331-0.359,0.463-0.785,0.495-1.258c0.013-0.295-0.109-0.602-0.206-0.883
		c-0.059-0.182-0.158-0.371-0.233-0.555c-0.075-0.182-0.158-0.354-0.24-0.527c-0.073-0.148-0.139-0.307-0.196-0.453
		c-0.093-0.232-0.121-0.273-0.148-0.524c-0.061-0.444,0.067-0.827,0.374-1.159c0.571-0.622,1.464-0.593,2.068-0.037
		c0.515,0.477,0.609,1.145,0.36,1.785l0.087,0.08c0.294-0.18,0.582-0.369,0.895-0.499c-0.057-0.587-0.444-1.186-0.864-1.571
		c-1.05-0.966-2.449-1.234-3.488-0.107c-0.435,0.475-0.632,1.146-0.48,1.77c0.143,0.602,0.459,1.15,0.694,1.723
		c0.29,0.668,0.41,1.328-0.13,1.914c-0.636,0.691-1.666,0.793-2.375,0.142c-0.681-0.627-0.769-1.322-0.596-2.196L23.244,149.646z"/>
	<path fill="#00476B" d="M36.976,152.84c0.095,0.074,0.179,0.143,0.256,0.221c0.084-0.243,0.228-0.447,0.403-0.633l-1.274-0.743
		l-1.26-0.765l-1.299-0.857c-0.443-0.299-0.879-0.634-1.333-0.939c-0.099,0.221-0.237,0.413-0.395,0.596l1.006,0.545
		c0.44,0.238,0.851,0.5,1.288,0.766l-0.654,1.022l-2.625,3.992l-0.712,1.026c-0.061,0.074-0.119,0.164-0.189,0.23
		c0.189,0.08,0.375,0.186,0.554,0.3c0.162,0.103,0.298,0.22,0.436,0.333l0.035-0.073l0.574-1.029l2.548-3.987l0.71-1.041
		c0.045-0.07,0.096-0.15,0.157-0.225l0.251,0.159l0.51,0.327L36.976,152.84z"/>
	<path fill="#00476B" d="M41.55,154.073l-6.716,6.104c0.139,0.035,0.286,0.088,0.418,0.145c0.13,0.057,0.26,0.113,0.366,0.199
		c0.727-0.863,1.538-1.65,2.338-2.441l1.474,0.605l1.293,0.604l-0.028,1.518l-0.082,1.521l-0.04,0.358
		c0.209,0.055,0.417,0.144,0.613,0.229c0.185,0.084,0.365,0.175,0.542,0.278l-0.014-0.475l0.054-8.553L41.55,154.073z
		 M39.67,158.285c-0.436-0.192-0.867-0.394-1.302-0.585l2.399-2.256l-0.009,3.314L39.67,158.285z"/>
	<path fill="#00476B" d="M48.052,156.684c-0.285-0.081-0.56-0.158-0.84-0.262l-0.264,1.125l-0.36,1.377l-1.111,3.889
		c-0.148,0.488-0.317,0.959-0.486,1.43l0.286,0.081l1.374,0.384c0.785,0.232,1.737,0.497,2.543,0.217
		c0.792-0.271,1.344-0.834,1.571-1.647c0.084-0.296,0.06-0.698-0.033-0.984c-0.091-0.298-0.283-0.535-0.482-0.751
		c-0.207-0.231-0.677-0.447-0.943-0.598c-0.044-0.023-0.088-0.035-0.135-0.049c1.078,0.028,2.074-0.446,2.375-1.52
		c0.123-0.436,0.061-0.924-0.191-1.301c-0.233-0.362-0.581-0.532-0.962-0.715c-0.307-0.135-0.628-0.225-0.948-0.313l-0.504-0.143
		L48.052,156.684z M47.832,158.051c0.083-0.297,0.166-0.597,0.271-0.887c0.278,0.066,0.559,0.119,0.834,0.197
		c0.412,0.114,0.91,0.277,1.224,0.563c0.386,0.342,0.455,0.943,0.322,1.412c-0.172,0.617-0.634,1.03-1.268,1.137
		c-0.698,0.115-1.323-0.122-1.991-0.295l0.287-0.98L47.832,158.051z M47.107,160.602c0.218,0.061,0.434,0.121,0.652,0.182
		c0.538,0.151,1.19,0.332,1.562,0.77c0.438,0.504,0.503,0.979,0.324,1.621c-0.13,0.468-0.483,0.889-0.904,1.117
		c-0.499,0.282-0.976,0.27-1.514,0.121c-0.367-0.104-0.708-0.25-1.061-0.357L47.107,160.602z"/>
	<path fill="#00476B" d="M55.245,163.574c0.076-0.457,0.144-0.928,0.224-1.396c0.1-0.6,0.21-1.183,0.345-1.762l0.377-1.795
		l-0.293-0.048l-0.821-0.139c-0.047,0.497-0.108,0.995-0.191,1.486l-0.854,5.039l-0.33,1.463c0.33,0.042,0.659,0.085,0.988,0.144
		c0.339,0.057,0.682,0.104,1.021,0.158c0.48,0.084,0.959,0.176,1.437,0.27l0.841,0.166c-0.02-0.246,0.021-0.479,0.12-0.701
		c-0.384-0.018-0.755-0.033-1.133-0.086c-0.706-0.095-1.417-0.168-2.128-0.311c0.057-0.341,0.091-0.686,0.149-1.023L55.245,163.574z
		"/>
	<path fill="#00476B" d="M63.051,159.586c-0.186,0.051-0.397,0.024-0.586,0.004c-0.166-0.021-0.361-0.078-0.524-0.123L61.695,162
		c-0.034,0.283-0.054,0.567-0.087,0.853c-0.039,0.329-0.09,0.671-0.128,1.003c-0.056,0.373-0.086,0.756-0.155,1.129l-0.412,2.525
		c0.202,0.012,0.405,0.013,0.607,0.035c0.188,0.021,0.386,0.068,0.573,0.101l0.185-2.525c0.015-0.237,0.031-0.475,0.06-0.713
		c0.085-0.743,0.195-1.485,0.303-2.213L63.051,159.586z"/>
	<path fill="#00476B" d="M65.311,166.344c-0.07,0.353-0.152,0.706-0.292,1.041c0.375,0.463,1.311,0.748,1.89,0.785
		c1.614,0.104,2.993-0.799,3.099-2.494c0.032-0.488-0.132-0.901-0.405-1.289c-0.177-0.236-0.463-0.398-0.716-0.557
		c-0.159-0.105-0.356-0.188-0.53-0.284c-0.173-0.093-0.345-0.177-0.52-0.259c-0.151-0.068-0.299-0.15-0.438-0.23
		c-0.218-0.119-0.265-0.135-0.445-0.313c-0.326-0.306-0.468-0.686-0.44-1.136c0.053-0.842,0.766-1.381,1.584-1.328
		c0.7,0.044,1.195,0.504,1.403,1.159l0.119,0.007c0.116-0.324,0.22-0.65,0.382-0.949c-0.414-0.42-1.091-0.641-1.66-0.679
		c-1.424-0.088-2.68,0.581-2.777,2.11c-0.041,0.641,0.227,1.291,0.74,1.682c0.488,0.374,1.082,0.604,1.623,0.899
		c0.645,0.339,1.154,0.775,1.104,1.569c-0.06,0.938-0.797,1.665-1.758,1.605c-0.925-0.06-1.431-0.543-1.845-1.332L65.311,166.344z"
		/>
	<path fill="#00476B" d="M79.022,164.015l0.029,2.64l-0.03,1.225c-0.009,0.083-0.008,0.18-0.017,0.262
		c0.214-0.018,0.414-0.068,0.628-0.074c0.179-0.005,0.357,0.039,0.537,0.047l-0.089-1.26l-0.1-2.672l0.012-3.877
		c0.01-0.107,0.007-0.214,0.028-0.32c-0.19,0.018-0.367,0.043-0.558,0.049c-0.202,0.005-0.405-0.026-0.607-0.033l0.082,0.963
		l0.063,2.519L75.6,163.6l-1.534,0.002l0.009-2.072l0.021-1.081c0.01-0.108,0.007-0.214,0.017-0.321
		c-0.179,0.018-0.369,0.043-0.546,0.049c-0.202,0.006-0.405-0.025-0.607-0.033l0.09,1.259l0.06,2.448l0.011,0.451l0.02,2.781
		l-0.026,0.941c-0.009,0.084-0.007,0.178-0.016,0.26c0.213-0.015,0.414-0.068,0.627-0.073c0.179-0.005,0.369,0.038,0.548,0.045
		l-0.029-0.261l-0.078-1.281l-0.1-2.578L79.022,164.015z"/>
	<path fill="#00476B" d="M84.333,159.682l-1.282,0.072c0.072,0.509,0.144,1.016,0.202,1.51l0.122,1.039l0.346,4.051l0.07,1.499
		c0.331-0.043,0.661-0.087,0.992-0.118c0.343-0.033,0.686-0.076,1.029-0.109c0.485-0.047,0.972-0.078,1.458-0.114l0.818-0.054
		c-0.083-0.23-0.104-0.467-0.079-0.707c-0.351,0.094-0.701,0.161-1.067,0.209c-0.708,0.09-1.413,0.202-2.125,0.246
		c-0.045-0.342-0.089-0.682-0.122-1.027l-0.14-1.479c-0.028-0.308-0.046-0.628-0.076-0.947l0.663-0.063
		c0.176-0.018,0.343-0.032,0.508-0.048l0.666-0.039c0.343-0.034,0.688-0.029,1.047-0.028c-0.035-0.117-0.07-0.231-0.081-0.351
		c-0.01-0.118,0.001-0.237,0.025-0.36c-0.352,0.057-0.694,0.104-1.046,0.158l-0.637,0.096l-1.195,0.114
		c-0.021-0.226-0.054-0.45-0.076-0.673c-0.017-0.18-0.033-0.355-0.05-0.532l-0.108-1.784l0.864-0.078l1.186-0.078
		c0.358-0.01,0.716-0.007,1.073-0.016c-0.046-0.115-0.058-0.234-0.069-0.353c-0.01-0.119,0.001-0.237,0.003-0.36
		c-0.4,0.063-0.813,0.127-1.216,0.164L84.333,159.682z"/>
	<path fill="#00476B" d="M92.243,164.967l-0.64-3.184c-0.163-0.803-0.279-1.616-0.416-2.426c0.475-0.105,0.957-0.239,1.435-0.337
		c1.002-0.201,1.913-0.374,2.865,0.139c0.844,0.46,1.293,1.604,1.471,2.492c0.139,0.685,0.181,1.37,0,2.048
		c-0.175,0.752-0.429,1.179-1.039,1.64c-0.253,0.198-0.492,0.331-0.785,0.438c-0.385,0.14-0.905,0.267-1.302,0.349
		c-0.417,0.084-0.847,0.12-1.271,0.184L92.243,164.967z M93.912,166.569c1.237-0.236,2.527-0.521,3.343-1.584
		c0.396-0.503,0.663-1.104,0.817-1.728c0.15-0.638,0.089-1.363-0.041-2.006c-0.222-1.106-0.814-2.115-1.834-2.662
		c-1.152-0.604-2.304-0.311-3.517-0.066c-0.781,0.157-1.564,0.363-2.343,0.472l-0.292,0.06l0.326,1.426l1.065,5.41l0.172,1.155
		c0.287-0.082,0.575-0.151,0.867-0.21L93.912,166.569z"/>
	<path fill="#00476B" d="M108.589,159.683l0.832,2.166c0.028,0.093,0.06,0.17,0.07,0.257c0.172-0.088,0.347-0.191,0.522-0.267
		c0.164-0.071,0.348-0.123,0.506-0.18l-0.1-0.229l-1.632-3.594l-1.01-2.516l-0.311-0.835c-0.022-0.082-0.06-0.168-0.088-0.262
		l-0.126-0.024l-0.732,0.85l-0.981,1.058l-0.214,0.223l-0.08,0.114c0.124,0.05,0.208,0.065,0.28,0.109
		c0.09,0.029,0.151,0.078,0.235,0.122l0.927-1.179l0.092-0.001L108.589,159.683z"/>
	<path fill="#00476B" d="M114.645,154.629c-0.707,0.711-0.877,1.873-0.351,2.734c0.83,1.36,2.18,1.426,3.458,0.645
		c1.329-0.809,1.758-2.252,0.933-3.604c-0.494-0.813-1.416-1.112-2.306-0.833c-0.059-0.008-0.109,0.025-0.166,0.046l-0.043-0.073
		c0.524-0.556,0.666-1.464,0.257-2.134c-0.297-0.486-0.682-0.727-1.245-0.785c-0.609-0.062-1.078,0.129-1.586,0.438
		c-0.953,0.582-1.596,1.741-0.953,2.797c0.39,0.637,1.143,0.891,1.857,0.718c0.039-0.009,0.064-0.011,0.101-0.019L114.645,154.629z
		 M113.78,151.384c0.699-0.427,1.421-0.087,1.818,0.562c0.185,0.305,0.353,0.647,0.325,1.012c-0.014,0.412-0.212,0.771-0.567,0.986
		c-0.283,0.174-0.601,0.271-0.931,0.166c-0.355-0.104-0.675-0.355-0.866-0.669c-0.217-0.355-0.37-0.652-0.344-1.087
		C113.235,151.952,113.423,151.6,113.78,151.384z M115.543,154.274c0.954-0.581,1.814-0.062,2.334,0.792
		c0.502,0.821,0.701,1.992-0.263,2.582c-0.994,0.605-1.895,0.041-2.439-0.852C114.673,155.977,114.631,154.832,115.543,154.274z"/>
	<path fill="#00476B" d="M121.332,149.821c-0.574,0.823-0.54,1.996,0.128,2.755c1.054,1.195,2.394,1.025,3.518,0.035
		c1.167-1.029,1.339-2.525,0.293-3.713c-0.629-0.713-1.589-0.848-2.415-0.422c-0.06,0.006-0.105,0.046-0.156,0.075l-0.056-0.062
		c0.42-0.64,0.401-1.559-0.117-2.146c-0.378-0.429-0.797-0.598-1.363-0.559c-0.609,0.045-1.04,0.313-1.485,0.707
		c-0.838,0.738-1.27,1.991-0.453,2.918c0.495,0.563,1.279,0.68,1.955,0.385c0.036-0.016,0.06-0.021,0.096-0.035L121.332,149.821z
		 M119.916,146.776c0.616-0.542,1.386-0.333,1.888,0.235c0.236,0.269,0.459,0.579,0.496,0.943c0.059,0.407-0.075,0.793-0.388,1.069
		c-0.249,0.22-0.546,0.37-0.887,0.321c-0.369-0.037-0.728-0.229-0.972-0.507c-0.274-0.312-0.477-0.576-0.525-1.009
		C119.479,147.431,119.603,147.051,119.916,146.776z M122.155,149.316c0.838-0.738,1.775-0.375,2.436,0.375
		c0.637,0.72,1.038,1.841,0.19,2.588c-0.874,0.771-1.859,0.371-2.55-0.414C121.594,151.144,121.353,150.025,122.155,149.316z"/>
	<path fill="#00476B" d="M46.479,78.439c10.867,0.432,13.619,0.339,13.619,0.339l28.527-0.195c0,0,8.161-0.233,13.613-0.524
		c0,0-0.208,1.619-0.198,2.811c0.012,1.192,0.236,2.808,0.236,2.808c-5.325-0.211-13.618-0.339-13.618-0.339L60.13,83.534
		c0,0-2.752-0.055-13.612,0.525c0,0,0.203-1.619,0.196-2.811C46.709,80.056,46.479,78.439,46.479,78.439z"/>
	<path fill="#00476B" d="M46.576,92.486c10.867,0.433,13.618,0.34,13.618,0.34l28.527-0.195c0,0,8.16-0.232,13.612-0.523
		c0,0-0.208,1.618-0.198,2.811c0.012,1.191,0.236,2.807,0.236,2.807c-5.325-0.21-13.618-0.338-13.618-0.338l-28.527,0.194
		c0,0-2.752-0.056-13.612,0.524c0,0,0.204-1.618,0.197-2.811C46.805,94.104,46.576,92.486,46.576,92.486z"/>
	<path fill="#00476B" d="M46.671,106.535c10.867,0.432,13.618,0.339,13.618,0.339l28.527-0.194c0,0,8.161-0.235,13.612-0.525
		c0,0-0.208,1.619-0.198,2.811c0.012,1.191,0.236,2.809,0.236,2.809c-5.325-0.211-13.618-0.341-13.618-0.341l-28.527,0.194
		c0,0-2.753-0.055-13.613,0.527c0,0,0.204-1.621,0.197-2.812C46.901,108.15,46.671,106.535,46.671,106.535z"/>
	<path fill="#00476B" d="M71.992,143.102c0.432-10.866,0.339-13.617,0.339-13.617L71.635,27.479l4.755-0.032l0.696,102.006
		c0,0-0.055,2.751,0.525,13.611c0,0-1.619-0.202-2.811-0.196C73.607,142.872,71.992,143.102,71.992,143.102z"/>
	<path fill="#00476B" d="M44.072,51.877c7.989-7.379,9.87-9.389,9.87-9.389L73.976,22.18l3.385,3.339l-20.035,20.31
		c0,0-1.985,1.907-9.253,9.996c0,0-1.001-1.288-1.848-2.127C45.377,52.858,44.072,51.877,44.072,51.877z"/>
	<path fill="#00476B" d="M104.282,51.466c-8.09-7.269-9.998-9.253-9.998-9.253L73.976,22.18l-3.34,3.385l20.31,20.035
		c0,0,2.01,1.88,9.391,9.869c0,0,0.983-1.301,1.819-2.152C102.99,52.465,104.282,51.466,104.282,51.466z"/>
</g>
</svg>
