<?xml version="1.0" encoding="utf-8"?>
<!-- Generator: Adobe Illustrator 12.0.1, SVG Export Plug-In . SVG Version: 6.00 Build 51448)  -->
<!DOCTYPE svg PUBLIC "-//W3C//DTD SVG 1.0//EN" "http://www.w3.org/TR/2001/REC-SVG-20010904/DTD/svg10.dtd" [
	<!ENTITY ns_svg "http://www.w3.org/2000/svg">
	<!ENTITY ns_xlink "http://www.w3.org/1999/xlink">
]>
<svg  version="1.0" id="Layer_1" xmlns="&ns_svg;" xmlns:xlink="&ns_xlink;" width="118.081" height="56.152"
	 viewBox="0 0 118.081 56.152" overflow="visible" enable-background="new 0 0 118.081 56.152" xml:space="preserve">
<g>
	<g>
		<path fill="#72AEB6" d="M69.324,14.71v-4.095h-16.48V24.76c-0.655-2.99-3.224-4.063-5.991-4.74l-5.731-1.408
			c-0.982-0.229-2.489-0.622-2.489-2.457c0-2.129,2.227-2.816,4.094-2.816c4.291,0,4.684,2.489,4.814,3.537h4.716
			c-0.033-2.883-1.965-7.599-9.171-7.599c-7.531,0-9,4.497-9.038,7.133c-0.705,2.465-2.495,3.778-4.984,3.778
			c-4.095,0-5.74-3.742-5.74-7.902c0-6.546,3.418-8.093,5.74-8.093c3.999,0,4.741,2.611,5.128,3.999h4.836
			C38.771,4.772,35.964,0,29.031,0c-4.898,0-8.924,2.785-10.209,8.262V0.478h-4.974v15.377c0,2.827-1.365,4.452-4.713,4.452
			c-2.275,0-4.161-1.43-4.161-4.681V0.478H0v15.474c0.064,2.341,0.554,4.227,1.82,5.656c2.082,2.309,5.267,2.828,7.412,2.828
			c5.71,0,9.37-2.482,9.58-8.243c1.24,5.397,5.114,8.187,10.155,8.187c3.25,0,5.589-1.098,7.19-2.947
			c1.41,1.076,3.365,1.531,5.358,1.996l2.521,0.588c2.489,0.59,4.258,1.08,4.258,2.914c0,2.49-2.587,3.045-4.913,3.045
			c-4.29,0-4.945-2.488-4.979-3.801h-4.716c0,2.916,1.473,7.863,10.055,7.863c1.879,0,8.022-0.516,9.103-5.957v5.938h4.837V24.03
			h10.192v-4.096H57.681V14.71H69.324z"/>
		<g>
			<path d="M39.066,42.811c0,1.529-0.875,2.337-2.388,2.337c-1.563,0-2.49-0.723-2.49-2.337v-3.875h0.807v3.875
				c0,1.07,0.612,1.657,1.683,1.657c1.02,0,1.581-0.587,1.581-1.657v-3.875h0.807V42.811z"/>
			<path d="M40.239,40.61h0.68v0.697h0.017c0.306-0.544,0.799-0.799,1.428-0.799c1.156,0,1.513,0.662,1.513,1.605v2.89h-0.722
				v-2.975c0-0.535-0.34-0.884-0.893-0.884c-0.875,0-1.3,0.587-1.3,1.377v2.481h-0.722V40.61z"/>
			<path d="M45.729,39.82h-0.722v-0.884h0.722V39.82z M45.006,40.61h0.722v4.394h-0.722V40.61z"/>
			<path d="M48.831,45.003h-0.773l-1.631-4.394h0.807l1.232,3.663h0.017l1.198-3.663h0.756L48.831,45.003z"/>
			<path d="M54.847,43.61c-0.195,0.969-0.892,1.495-1.878,1.495c-1.402,0-2.065-0.969-2.107-2.312c0-1.316,0.867-2.285,2.065-2.285
				c1.555,0,2.031,1.453,1.988,2.515h-3.289c-0.025,0.766,0.408,1.445,1.368,1.445c0.595,0,1.011-0.289,1.139-0.858H54.847z
				 M54.15,42.386c-0.034-0.688-0.552-1.241-1.266-1.241c-0.756,0-1.207,0.569-1.258,1.241H54.15z"/>
			<path d="M55.638,40.61h0.68v0.927h0.017c0.348-0.706,0.833-1.055,1.615-1.028v0.765c-1.165,0-1.589,0.663-1.589,1.776v1.954
				h-0.722V40.61z"/>
			<path d="M58.936,43.619c0.025,0.646,0.586,0.85,1.181,0.85c0.45,0,1.063-0.103,1.063-0.654c0-0.562-0.714-0.654-1.437-0.816
				c-0.714-0.161-1.436-0.399-1.436-1.24c0-0.884,0.875-1.249,1.64-1.249c0.969,0,1.742,0.306,1.802,1.376h-0.723
				c-0.051-0.561-0.544-0.739-1.02-0.739c-0.434,0-0.936,0.119-0.936,0.562c0,0.518,0.766,0.603,1.438,0.765
				c0.722,0.161,1.436,0.399,1.436,1.249c0,1.045-0.978,1.385-1.869,1.385c-0.986,0-1.819-0.399-1.861-1.486H58.936z"/>
			<path d="M63.507,39.82h-0.723v-0.884h0.723V39.82z M62.784,40.61h0.723v4.394h-0.723V40.61z"/>
			<path d="M65.632,40.61h0.875v0.638h-0.875v2.728c0,0.331,0.094,0.391,0.544,0.391h0.331v0.638h-0.553
				c-0.747,0-1.045-0.153-1.045-0.96v-2.796h-0.748V40.61h0.748v-1.317h0.723V40.61z"/>
			<path d="M69.03,45.589c-0.331,0.858-0.629,1.173-1.274,1.173c-0.17,0-0.34-0.017-0.501-0.076v-0.663
				c0.136,0.043,0.28,0.103,0.425,0.103c0.297,0,0.459-0.145,0.595-0.399l0.298-0.748L66.83,40.61h0.815l1.283,3.595h0.017
				l1.232-3.595h0.765L69.03,45.589z"/>
			<path d="M75.34,40.508c1.394,0,2.133,1.011,2.133,2.303c0,1.283-0.739,2.294-2.133,2.294c-1.395,0-2.134-1.011-2.134-2.294
				C73.206,41.519,73.945,40.508,75.34,40.508z M75.34,44.468c0.756,0,1.368-0.595,1.368-1.657c0-1.071-0.612-1.666-1.368-1.666
				c-0.757,0-1.369,0.595-1.369,1.666C73.971,43.874,74.583,44.468,75.34,44.468z"/>
			<path d="M78.62,41.248h-0.74V40.61h0.74v-0.654c0-0.714,0.425-1.088,1.215-1.088c0.136,0,0.331,0.025,0.468,0.068v0.629
				c-0.128-0.043-0.281-0.06-0.408-0.06c-0.349,0-0.553,0.11-0.553,0.492v0.612h0.85v0.638h-0.85v3.756H78.62V41.248z"/>
			<path d="M87.112,40.763c-0.17-0.858-0.858-1.292-1.699-1.292c-1.445,0-2.057,1.189-2.057,2.456c0,1.385,0.611,2.541,2.065,2.541
				c1.062,0,1.674-0.748,1.75-1.751h0.808c-0.153,1.513-1.097,2.431-2.626,2.431c-1.887,0-2.805-1.394-2.805-3.161
				c0-1.76,1.003-3.195,2.873-3.195c1.266,0,2.312,0.68,2.498,1.972H87.112z"/>
			<path d="M92.756,44.987c-0.128,0.076-0.289,0.118-0.519,0.118c-0.374,0-0.612-0.203-0.612-0.68
				c-0.399,0.468-0.935,0.68-1.547,0.68c-0.799,0-1.453-0.356-1.453-1.231c0-0.995,0.739-1.207,1.487-1.352
				c0.799-0.153,1.479-0.102,1.479-0.646c0-0.629-0.519-0.731-0.977-0.731c-0.612,0-1.063,0.188-1.097,0.833h-0.723
				c0.043-1.088,0.884-1.47,1.861-1.47c0.79,0,1.648,0.178,1.648,1.206v2.261c0,0.34,0,0.493,0.229,0.493
				c0.06,0,0.128-0.009,0.222-0.043V44.987z M91.583,42.735c-0.281,0.203-0.824,0.212-1.31,0.297
				c-0.476,0.085-0.884,0.255-0.884,0.79c0,0.477,0.408,0.646,0.851,0.646c0.951,0,1.343-0.595,1.343-0.994V42.735z"/>
			<path d="M93.469,38.936h0.723v6.067h-0.723V38.936z"/>
			<path d="M96.078,39.82h-0.723v-0.884h0.723V39.82z M95.355,40.61h0.723v4.394h-0.723V40.61z"/>
			<path d="M97.497,41.248h-0.739V40.61h0.739v-0.654c0-0.714,0.426-1.088,1.216-1.088c0.136,0,0.331,0.025,0.468,0.068v0.629
				c-0.128-0.043-0.281-0.06-0.408-0.06c-0.349,0-0.553,0.11-0.553,0.492v0.612h0.85v0.638h-0.85v3.756h-0.723V41.248z"/>
			<path d="M101.611,40.508c1.394,0,2.133,1.011,2.133,2.303c0,1.283-0.739,2.294-2.133,2.294c-1.395,0-2.134-1.011-2.134-2.294
				C99.478,41.519,100.217,40.508,101.611,40.508z M101.611,44.468c0.756,0,1.368-0.595,1.368-1.657
				c0-1.071-0.612-1.666-1.368-1.666c-0.757,0-1.369,0.595-1.369,1.666C100.242,43.874,100.854,44.468,101.611,44.468z"/>
			<path d="M104.568,40.61h0.68v0.927h0.017c0.349-0.706,0.833-1.055,1.615-1.028v0.765c-1.164,0-1.59,0.663-1.59,1.776v1.954
				h-0.722V40.61z"/>
			<path d="M107.577,40.61h0.68v0.697h0.018c0.306-0.544,0.799-0.799,1.427-0.799c1.156,0,1.513,0.662,1.513,1.605v2.89h-0.722
				v-2.975c0-0.535-0.34-0.884-0.893-0.884c-0.875,0-1.3,0.587-1.3,1.377v2.481h-0.723V40.61z"/>
			<path d="M113.066,39.82h-0.723v-0.884h0.723V39.82z M112.344,40.61h0.723v4.394h-0.723V40.61z"/>
			<path d="M118.081,44.987c-0.128,0.076-0.289,0.118-0.519,0.118c-0.374,0-0.612-0.203-0.612-0.68
				c-0.399,0.468-0.935,0.68-1.547,0.68c-0.799,0-1.453-0.356-1.453-1.231c0-0.995,0.739-1.207,1.487-1.352
				c0.799-0.153,1.479-0.102,1.479-0.646c0-0.629-0.519-0.731-0.977-0.731c-0.612,0-1.063,0.188-1.097,0.833h-0.723
				c0.043-1.088,0.884-1.47,1.861-1.47c0.79,0,1.648,0.178,1.648,1.206v2.261c0,0.34,0,0.493,0.229,0.493
				c0.06,0,0.128-0.009,0.222-0.043V44.987z M116.908,42.735c-0.281,0.203-0.824,0.212-1.31,0.297
				c-0.476,0.085-0.884,0.255-0.884,0.79c0,0.477,0.408,0.646,0.851,0.646c0.951,0,1.343-0.595,1.343-0.994V42.735z"/>
			<path d="M37.731,51.715c-0.093-0.866-0.671-1.24-1.504-1.24c-0.68,0-1.36,0.246-1.36,1.037c0,0.747,0.969,0.857,1.946,1.079
				c0.969,0.221,1.938,0.561,1.938,1.75c0,1.292-1.266,1.811-2.371,1.811c-1.359,0-2.507-0.663-2.507-2.142h0.765
				c0,1.02,0.85,1.462,1.768,1.462c0.731,0,1.539-0.229,1.539-1.105c0-0.832-0.969-0.977-1.938-1.189
				c-0.969-0.212-1.946-0.493-1.946-1.606c0-1.231,1.096-1.775,2.201-1.775c1.241,0,2.184,0.586,2.235,1.92H37.731z"/>
			<path d="M43.502,55.991c-0.127,0.076-0.289,0.118-0.519,0.118c-0.374,0-0.612-0.203-0.612-0.68
				c-0.399,0.468-0.935,0.68-1.546,0.68c-0.799,0-1.453-0.356-1.453-1.231c0-0.995,0.739-1.207,1.487-1.352
				c0.799-0.153,1.479-0.102,1.479-0.646c0-0.629-0.519-0.731-0.978-0.731c-0.612,0-1.062,0.188-1.096,0.833h-0.722
				c0.042-1.088,0.884-1.47,1.861-1.47c0.791,0,1.649,0.178,1.649,1.206v2.261c0,0.34,0,0.493,0.229,0.493
				c0.059,0,0.127-0.009,0.221-0.043V55.991z M42.329,53.739c-0.28,0.203-0.824,0.212-1.309,0.297
				c-0.476,0.085-0.884,0.255-0.884,0.79c0,0.477,0.408,0.646,0.85,0.646c0.952,0,1.343-0.595,1.343-0.994V53.739z"/>
			<path d="M44.173,51.614h0.68v0.697h0.017c0.306-0.544,0.799-0.799,1.428-0.799c1.156,0,1.513,0.662,1.513,1.605v2.89h-0.722
				v-2.975c0-0.535-0.34-0.884-0.893-0.884c-0.875,0-1.3,0.587-1.3,1.377v2.481h-0.722V51.614z"/>
			<path d="M50.907,49.94h3.985v0.68h-3.178v1.929h2.788v0.68h-2.788v2.779h-0.807V49.94z"/>
			<path d="M55.641,51.614h0.68v0.927h0.017c0.348-0.706,0.833-1.055,1.615-1.028v0.765c-1.165,0-1.589,0.663-1.589,1.776v1.954
				h-0.722V51.614z"/>
			<path d="M62.389,55.991c-0.128,0.076-0.289,0.118-0.519,0.118c-0.374,0-0.612-0.203-0.612-0.68
				c-0.399,0.468-0.935,0.68-1.547,0.68c-0.799,0-1.453-0.356-1.453-1.231c0-0.995,0.74-1.207,1.487-1.352
				c0.799-0.153,1.479-0.102,1.479-0.646c0-0.629-0.519-0.731-0.978-0.731c-0.611,0-1.062,0.188-1.096,0.833h-0.722
				c0.042-1.088,0.884-1.47,1.861-1.47c0.79,0,1.648,0.178,1.648,1.206v2.261c0,0.34,0,0.493,0.229,0.493
				c0.06,0,0.128-0.009,0.222-0.043V55.991z M61.216,53.739c-0.281,0.203-0.825,0.212-1.31,0.297
				c-0.476,0.085-0.883,0.255-0.883,0.79c0,0.477,0.407,0.646,0.85,0.646c0.951,0,1.343-0.595,1.343-0.994V53.739z"/>
			<path d="M63.06,51.614h0.68v0.697h0.018c0.306-0.544,0.799-0.799,1.427-0.799c1.156,0,1.513,0.662,1.513,1.605v2.89h-0.722
				v-2.975c0-0.535-0.34-0.884-0.893-0.884c-0.875,0-1.3,0.587-1.3,1.377v2.481H63.06V51.614z"/>
			<path d="M70.767,53.025c-0.11-0.553-0.492-0.876-1.087-0.876c-1.046,0-1.369,0.824-1.369,1.717c0,0.808,0.366,1.606,1.283,1.606
				c0.697,0,1.113-0.408,1.207-1.071h0.739c-0.161,1.071-0.833,1.708-1.938,1.708c-1.343,0-2.057-0.935-2.057-2.243
				c0-1.317,0.68-2.354,2.074-2.354c0.994,0,1.793,0.467,1.895,1.513H70.767z"/>
			<path d="M73.112,50.824H72.39V49.94h0.723V50.824z M72.39,51.614h0.723v4.394H72.39V51.614z"/>
			<path d="M74.676,54.623c0.026,0.646,0.587,0.85,1.182,0.85c0.45,0,1.063-0.103,1.063-0.654c0-0.562-0.714-0.654-1.437-0.816
				c-0.714-0.161-1.437-0.399-1.437-1.24c0-0.884,0.876-1.249,1.641-1.249c0.969,0,1.742,0.306,1.802,1.376h-0.723
				c-0.051-0.561-0.544-0.739-1.02-0.739c-0.434,0-0.935,0.119-0.935,0.562c0,0.518,0.765,0.603,1.436,0.765
				c0.723,0.161,1.437,0.399,1.437,1.249c0,1.045-0.978,1.385-1.869,1.385c-0.986,0-1.819-0.399-1.861-1.486H74.676z"/>
			<path d="M81.466,53.025c-0.11-0.553-0.492-0.876-1.087-0.876c-1.046,0-1.369,0.824-1.369,1.717c0,0.808,0.366,1.606,1.283,1.606
				c0.697,0,1.113-0.408,1.207-1.071h0.739c-0.161,1.071-0.833,1.708-1.938,1.708c-1.343,0-2.057-0.935-2.057-2.243
				c0-1.317,0.68-2.354,2.074-2.354c0.994,0,1.793,0.467,1.895,1.513H81.466z"/>
			<path d="M84.942,51.512c1.394,0,2.133,1.011,2.133,2.303c0,1.283-0.739,2.294-2.133,2.294c-1.395,0-2.134-1.011-2.134-2.294
				C82.809,52.523,83.548,51.512,84.942,51.512z M84.942,55.472c0.756,0,1.368-0.595,1.368-1.657c0-1.071-0.612-1.666-1.368-1.666
				c-0.757,0-1.369,0.595-1.369,1.666C83.573,54.877,84.186,55.472,84.942,55.472z"/>
		</g>
	</g>
</g>
</svg>
