<?xml version="1.0" encoding="utf-8"?>
<!-- Generator: Adobe Illustrator 12.0.1, SVG Export Plug-In . SVG Version: 6.00 Build 51448)  -->
<!DOCTYPE svg PUBLIC "-//W3C//DTD SVG 1.0//EN" "http://www.w3.org/TR/2001/REC-SVG-20010904/DTD/svg10.dtd" [
	<!ENTITY ns_svg "http://www.w3.org/2000/svg">
	<!ENTITY ns_xlink "http://www.w3.org/1999/xlink">
]>
<svg  version="1.0" id="Layer_1" xmlns="&ns_svg;" xmlns:xlink="&ns_xlink;" width="281.76" height="107.334"
	 viewBox="0 0 281.76 107.334" overflow="visible" enable-background="new 0 0 281.76 107.334" xml:space="preserve">
<g>
	<path fill-rule="evenodd" clip-rule="evenodd" fill="#E7A302" d="M204.96,25.2c-3.994-0.37-7.528-4.41-5.76-8.4
		c1.639-3.696,8.097-1.866,9.6,0.96C210.551,20.945,209.433,25.565,204.96,25.2z"/>
	<path fill-rule="evenodd" clip-rule="evenodd" fill="#00589C" d="M281.76,44.64c-3.588,14.676-10.032,31.415-30.96,29.28
		c0-8.8,0-17.6,0-26.4c10.67-2.009,20.245-11.1,21.601-23.04c0.514-4.529-0.136-9.132-1.92-12c0.835-0.361,1.434,0.874,1.92,1.44
		c4.364,5.092,8.109,12.432,9.359,20.88C281.76,38.08,281.76,41.36,281.76,44.64z"/>
	<path fill-rule="evenodd" clip-rule="evenodd" fill="#00589C" d="M252.72,107.04c-1.279,0-2.56,0-3.84,0
		c0.904-6.992-2.003-16.601,1.92-20.4c1.979-1.916,4.486-2.051,8.88-1.92c0,1.2,0,2.4,0,3.601
		C248.775,85.904,253.286,99.883,252.72,107.04z"/>
	<path fill-rule="evenodd" clip-rule="evenodd" fill="#00589C" d="M213.6,107.28c-7.153-0.784-8.863-8.602-7.92-16.8
		c0.849-7.371,14.489-8.826,16.801-1.44c0.798,2.552-0.083,4.653,0.239,8.4c-4.399,0-8.8,0-13.2,0c-0.772,6.876,6.493,6.643,12.48,6
		c0,1.279,0,2.56,0,3.84C219.2,107.28,216.4,107.28,213.6,107.28z M209.52,93.84c3.12,0,6.24,0,9.36,0
		C221.249,85.908,207.169,86.025,209.52,93.84z"/>
	<path fill-rule="evenodd" clip-rule="evenodd" fill="#00589C" d="M77.76,107.28c-9.646-1.874-4.428-18.612-5.76-28.8
		c1.36,0,2.72,0,4.08,0c0,2.079,0,4.159,0,6.239c1.76,0,3.52,0,5.28,0c-0.354,0.903-0.354,2.697,0,3.601c-1.76,0-3.52,0-5.28,0
		c-0.018,4.738-1.614,13.133,1.92,15.12c1.12,0,2.24,0,3.36,0c0,1.279,0,2.56,0,3.84C80.16,107.28,78.96,107.28,77.76,107.28z"/>
	<path fill-rule="evenodd" clip-rule="evenodd" fill="#00589C" d="M26.64,107.04c-1.28,0-2.56,0-3.84,0
		c-1.287-5.407,2.553-16.497-1.92-18.48c-1.929-0.854-4.807,0.136-7.92-0.239c0,6.239,0,12.479,0,18.72c-1.28,0-2.56,0-3.84,0
		c0.155-6.965-0.313-14.553,0.24-21.12c4.393-2.905,13.069-1.805,15.6,1.2C28.692,91.551,25.642,99.827,26.64,107.04z"/>
	<path fill-rule="evenodd" clip-rule="evenodd" fill="#00589C" d="M250.56,39.84c1.117-11.759-4.341-34.528,9.601-32.4
		c1.765,0.27,3.288,1.405,4.32,2.64C272.957,20.229,264.651,40.928,250.56,39.84z"/>
	<path fill-rule="evenodd" clip-rule="evenodd" fill="#FFFFFF" d="M137.04,90.48c0-2.881,0-5.761,0-8.641
		c6.212-0.94,11.724,0.877,9.6,6.24C145.521,90.906,141.461,90.525,137.04,90.48z"/>
	<path fill-rule="evenodd" clip-rule="evenodd" fill="#FFFFFF" d="M166.08,88.32c-0.213,6.62,1.852,16.767-6,15.12
		c-0.549-0.115-2.601-1.324-3.12-2.641c-0.94-2.386-0.809-9.331,0.24-11.04C158.895,86.999,162.159,88.912,166.08,88.32z"/>
	<path fill-rule="evenodd" clip-rule="evenodd" fill="#FFFFFF" d="M0,78.48C0,52.32,0,26.16,0,0c79.44,0,158.88,0,238.32,0
		c-13.928,1.833-22.893,8.627-29.521,17.76c-1.503-2.826-7.961-4.656-9.6-0.96c-1.769,3.99,1.766,8.03,5.76,8.4
		c-7.406,16.739,1.402,38.758,13.2,46.56c3.926,2.596,19.542,4.365,20.88-1.92c1.31-6.154-0.987-15.404,0-22.08
		c-12.647-4.153-22.988-10.611-30.96-19.44c2.01-2.418,5.717-3.344,9.6-1.92c6.941,2.546,13.132,10.206,20.641,11.52
		c-0.476-18.875,2.419-34.381,21.6-33.6C256.162,1.998,251.225,0.855,246,0c11.92,0,23.84,0,35.76,0c0,11.6,0,23.2,0,34.8
		c-1.25-8.448-4.995-15.788-9.359-20.88c-0.486-0.566-1.085-1.801-1.92-1.44c1.784,2.868,2.434,7.471,1.92,12
		c-1.355,11.94-10.931,21.031-21.601,23.04c0,8.8,0,17.6,0,26.4c20.928,2.135,27.372-14.604,30.96-29.28c0,20.879,0,41.76,0,62.64
		c-13.439,0-26.88,0-40.319,0c0.771-0.568,1.846-1.082,2.159-2.16c1.493-5.136-1.116-14.392,0-20.16
		c-0.805-0.555-2.636-0.084-3.84-0.24c0.287,5.897,0.473,13.096,0,18.96c-12.193,2.695-9.383-8.979-9.6-18.72
		c-0.806-0.555-2.636-0.084-3.84-0.24c-0.096,10.176-1.532,21.691,7.68,22.561c-4,0-8,0-12,0c0-1.28,0-2.561,0-3.84
		c-5.987,0.643-13.253,0.876-12.48-6c4.4,0,8.801,0,13.2,0c-0.322-3.747,0.559-5.849-0.239-8.4
		c-2.312-7.386-15.952-5.931-16.801,1.44c-0.943,8.198,0.767,16.016,7.92,16.8c-3.52,0-7.04,0-10.56,0c0-1.28,0-2.561,0-3.84
		c-8.344,1.544-4.337-9.264-5.28-15.12c1.681,0,3.36,0,5.04,0c0.554-0.727,0.085-2.476,0.24-3.601c-1.76,0-3.521,0-5.28,0
		c0-2,0-4,0-6c-0.806-0.555-2.636-0.084-3.84-0.239c1.424,10.016-3.982,26.862,5.521,28.8c-5.04,0-10.08,0-15.12,0
		c5.023-0.993,7.242-6.85,3.6-10.561c-2.688-2.738-9.51-2.261-9.6-5.76c-0.104-4.025,6.336-2.263,10.56-2.64
		c0.554-0.727,0.085-2.476,0.24-3.601c-6.339-0.099-13.279-0.799-14.64,4.08c-3.005,9.027,10.839,7.748,11.039,12
		c0.199,4.211-6.683,2.731-10.56,2.641c-0.009,0.646-0.03,2.669-0.24,3.84c-3.92,0-7.84,0-11.76,0
		c1.026-0.653,2.421-0.939,3.12-1.92c-0.303,2.222,2.17,1.669,4.08,1.68c0-3.309,0-6.816,0-10.8c0-4.031,0.894-10.382-1.44-11.521
		c-2.433-1.187-8.63-0.606-10.8,0c-1.96,0.549-4.586,2.982-5.04,5.04c-0.992,4.495-0.55,12.171,2.4,15.12
		c1.076,1.077,3.046,1.812,4.319,2.4c-14.239,0-28.479,0-42.72,0c-0.172-1.188-0.33-2.391-0.24-3.84
		c-1.309-0.052-2.885,0.165-3.84-0.24c-2.652-2.788-0.965-9.915-1.44-14.88c1.68,0,3.36,0,5.04,0
		c0.554-0.727,0.084-2.476,0.24-3.601c-1.76,0-3.52,0-5.28,0c0-2,0-4,0-6c-0.805-0.555-2.636-0.084-3.84-0.239
		c1.331,10.108-3.826,26.705,5.52,28.8c-4.32,0-8.64,0-12.96,0c0.771-0.568,1.847-1.082,2.16-2.16c1.493-5.136-1.117-14.392,0-20.16
		c-0.806-0.555-2.636-0.084-3.84-0.24c0.488,5.832,0.132,12.509,0.24,18.721c-3.516,0.51-6.741,0.43-8.4-1.2
		c-3.296-3.24-0.508-11.56-1.44-17.28c-0.805-0.555-2.636-0.084-3.84-0.24c-0.127,10.208-1.508,21.668,7.68,22.561
		c-3.76,0-7.52,0-11.28,0c0-1.28,0-2.561,0-3.84c-1.12,0-2.24,0-3.36,0c-3.534-1.987-1.938-10.382-1.92-15.12c1.76,0,3.52,0,5.28,0
		c-0.354-0.903-0.354-2.697,0-3.601c-1.76,0-3.52,0-5.28,0c0-2.08,0-4.16,0-6.239c-1.36,0-2.72,0-4.08,0
		c1.332,10.188-3.886,26.926,5.76,28.8c-6.24,0-12.48,0-18.72,0c-0.499-0.862-0.125-2.596-0.24-3.84
		c-8.283,1.483-4.363-9.237-5.28-15.12c1.68,0,3.36,0,5.04,0c0.554-0.727,0.084-2.476,0.24-3.601c-1.76,0-3.52,0-5.28,0c0-2,0-4,0-6
		c-0.806-0.555-2.636-0.084-3.84-0.239c1.409,10.03-3.963,26.843,5.52,28.8c-4.96,0-9.92,0-14.88,0
		c4.592-1.229,7.012-6.462,3.6-10.32c-2.564-2.9-9.736-2.463-9.84-6c-0.119-4.025,6.347-2.263,10.56-2.64
		c0.554-0.727,0.084-2.476,0.24-3.601c-8.439-0.662-16.195-0.104-14.64,7.681c0.199,0.994,1.102,2.407,1.92,3.119
		c2.525,2.2,8.971,2.062,9.12,5.28c0.201,4.345-6.539,2.672-10.56,2.641c-0.269,0.793,0.204,2.647-0.24,3.84
		C20.4,107.12,9.68,107.6,0,107.04c0.402-0.753,3.137,0.943,4.08,0c0.7-0.7,0-5.71,0-7.2c0-6.706,0-15.658,0-21.12
		C3.195,78.165,1.284,78.637,0,78.48z M259.68,88.32c0-1.2,0-2.4,0-3.601c-4.394-0.131-6.9,0.004-8.88,1.92
		c-3.923,3.8-1.016,13.408-1.92,20.4c1.28,0,2.561,0,3.84,0C253.286,99.883,248.775,85.904,259.68,88.32z M148.8,91.92
		c4.236-4.063,2.229-11.935-3.12-13.439c-2.255-0.635-9.818-1.214-11.76,0.479c-1.928,1.682-0.96,9.682-0.96,13.44
		c0,5.425,0,9.875,0,14.64c1.36,0,2.72,0,4.08,0c0.16-4.24-0.319-9.119,0.24-12.96C142.851,94.151,146.173,94.44,148.8,91.92z
		 M63.36,84.72c-0.174,6.424,0.328,15.5-0.24,22.32c1.28,0,2.56,0,3.84,0c0-7.44,0-14.88,0-22.32
		C65.76,84.72,64.56,84.72,63.36,84.72z M24.96,87.12c-2.531-3.005-11.208-4.105-15.6-1.2c-0.553,6.567-0.085,14.155-0.24,21.12
		c1.28,0,2.56,0,3.84,0c0-6.24,0-12.48,0-18.72c3.113,0.375,5.991-0.615,7.92,0.239c4.473,1.983,0.633,13.073,1.92,18.48
		c1.28,0,2.56,0,3.84,0C25.642,99.827,28.692,91.551,24.96,87.12z M264.48,10.08c-1.032-1.235-2.556-2.371-4.32-2.64
		c-13.941-2.128-8.483,20.641-9.601,32.4C264.651,40.928,272.957,20.229,264.48,10.08z"/>
	<path fill-rule="evenodd" clip-rule="evenodd" fill="#00589C" d="M246,0c5.225,0.855,10.162,1.998,13.92,4.32
		c-19.181-0.781-22.075,14.725-21.6,33.6c-7.509-1.314-13.699-8.974-20.641-11.52c-3.883-1.424-7.59-0.499-9.6,1.92
		c7.972,8.829,18.313,15.287,30.96,19.44c-0.987,6.676,1.31,15.926,0,22.08c-1.338,6.285-16.954,4.516-20.88,1.92
		c-11.798-7.802-20.606-29.82-13.2-46.56c4.473,0.365,5.591-4.255,3.84-7.44C215.428,8.627,224.393,1.833,238.32,0
		C240.88,0,243.44,0,246,0z"/>
	<path fill-rule="evenodd" clip-rule="evenodd" fill="#00589C" d="M0,78.48c1.284,0.156,3.195-0.315,4.08,0.239
		c0,5.462,0,14.414,0,21.12c0,1.49,0.7,6.5,0,7.2c-0.943,0.943-3.678-0.753-4.08,0C0,97.52,0,88,0,78.48z"/>
	<path fill-rule="evenodd" clip-rule="evenodd" fill="#00589C" d="M55.2,107.28c-9.483-1.957-4.111-18.77-5.52-28.8
		c1.204,0.155,3.034-0.315,3.84,0.239c0,2,0,4,0,6c1.76,0,3.52,0,5.28,0c-0.155,1.125,0.314,2.874-0.24,3.601c-1.68,0-3.36,0-5.04,0
		c0.917,5.883-3.003,16.604,5.28,15.12c0.116,1.244-0.258,2.978,0.24,3.84C57.76,107.28,56.48,107.28,55.2,107.28z"/>
	<path fill-rule="evenodd" clip-rule="evenodd" fill="#00589C" d="M113.04,107.28c-9.346-2.095-4.189-18.691-5.52-28.8
		c1.204,0.155,3.035-0.315,3.84,0.239c0,2,0,4,0,6c1.76,0,3.52,0,5.28,0c-0.156,1.125,0.314,2.874-0.24,3.601c-1.68,0-3.36,0-5.04,0
		c0.475,4.965-1.212,12.092,1.44,14.88c0.955,0.405,2.532,0.188,3.84,0.24c-0.09,1.449,0.067,2.651,0.24,3.84
		C115.6,107.28,114.32,107.28,113.04,107.28z"/>
	<path fill-rule="evenodd" clip-rule="evenodd" fill="#00589C" d="M199.44,107.28c-9.503-1.938-4.097-18.784-5.521-28.8
		c1.204,0.155,3.034-0.315,3.84,0.239c0,2,0,4,0,6c1.76,0,3.521,0,5.28,0c-0.155,1.125,0.313,2.874-0.24,3.601
		c-1.68,0-3.359,0-5.04,0c0.943,5.856-3.063,16.664,5.28,15.12c0,1.279,0,2.56,0,3.84C201.84,107.28,200.64,107.28,199.44,107.28z"
		/>
	<path fill-rule="evenodd" clip-rule="evenodd" fill="#00589C" d="M137.28,94.08c-0.559,3.841-0.08,8.72-0.24,12.96
		c-1.36,0-2.72,0-4.08,0c0-4.765,0-9.215,0-14.64c0-3.759-0.968-11.759,0.96-13.44c1.941-1.693,9.505-1.114,11.76-0.479
		c5.35,1.505,7.356,9.376,3.12,13.439C146.173,94.44,142.851,94.151,137.28,94.08z M146.64,88.08c2.124-5.363-3.388-7.181-9.6-6.24
		c0,2.88,0,5.76,0,8.641C141.461,90.525,145.521,90.906,146.64,88.08z"/>
	<path fill-rule="evenodd" clip-rule="evenodd" fill="#00589C" d="M66.96,84.72c0,7.44,0,14.88,0,22.32c-1.28,0-2.56,0-3.84,0
		c0.568-6.82,0.065-15.896,0.24-22.32C64.56,84.72,65.76,84.72,66.96,84.72z"/>
	<path fill-rule="evenodd" clip-rule="evenodd" fill="#00589C" d="M92.64,107.28c-9.188-0.893-7.808-12.353-7.68-22.561
		c1.204,0.156,3.035-0.314,3.84,0.24c0.932,5.721-1.856,14.04,1.44,17.28c1.659,1.63,4.884,1.71,8.4,1.2
		c-0.108-6.212,0.248-12.889-0.24-18.721c1.204,0.156,3.035-0.314,3.84,0.24c-1.117,5.769,1.493,15.024,0,20.16
		c-0.313,1.078-1.389,1.592-2.16,2.16C97.6,107.28,95.12,107.28,92.64,107.28z"/>
	<path fill-rule="evenodd" clip-rule="evenodd" fill="#00589C" d="M159.6,107.28c-1.273-0.589-3.243-1.323-4.319-2.4
		c-2.95-2.949-3.393-10.625-2.4-15.12c0.454-2.058,3.08-4.491,5.04-5.04c2.17-0.606,8.367-1.187,10.8,0
		c2.334,1.139,1.44,7.489,1.44,11.521c0,3.983,0,7.491,0,10.8c-1.91-0.011-4.383,0.542-4.08-1.68c-0.699,0.98-2.094,1.267-3.12,1.92
		C161.84,107.28,160.72,107.28,159.6,107.28z M157.2,89.76c-1.049,1.709-1.181,8.654-0.24,11.04c0.52,1.316,2.571,2.525,3.12,2.641
		c7.852,1.646,5.787-8.5,6-15.12C162.159,88.912,158.895,86.999,157.2,89.76z"/>
	<path fill-rule="evenodd" clip-rule="evenodd" fill="#00589C" d="M234,107.28c-9.212-0.869-7.775-12.385-7.68-22.561
		c1.204,0.156,3.034-0.314,3.84,0.24c0.217,9.741-2.594,21.415,9.6,18.72c0.473-5.864,0.287-13.063,0-18.96
		c1.204,0.156,3.035-0.314,3.84,0.24c-1.116,5.769,1.493,15.024,0,20.16c-0.313,1.078-1.389,1.592-2.159,2.16
		C238.96,107.28,236.48,107.28,234,107.28z"/>
	<path fill-rule="evenodd" clip-rule="evenodd" fill="#00589C" d="M174.72,107.28c0.21-1.171,0.231-3.193,0.24-3.84
		c3.877,0.091,10.759,1.57,10.56-2.641c-0.2-4.252-14.044-2.973-11.039-12c1.36-4.879,8.301-4.179,14.64-4.08
		c-0.155,1.125,0.313,2.874-0.24,3.601c-4.224,0.377-10.664-1.386-10.56,2.64c0.09,3.499,6.911,3.021,9.6,5.76
		c3.643,3.711,1.424,9.567-3.6,10.561C181.12,107.28,177.92,107.28,174.72,107.28z"/>
	<path fill-rule="evenodd" clip-rule="evenodd" fill="#00589C" d="M30.48,107.28c0.444-1.192-0.029-3.047,0.24-3.84
		c4.021,0.031,10.761,1.704,10.56-2.641c-0.149-3.219-6.595-3.08-9.12-5.28c-0.818-0.712-1.721-2.125-1.92-3.119
		c-1.556-7.784,6.2-8.343,14.64-7.681c-0.155,1.125,0.314,2.874-0.24,3.601c-4.213,0.377-10.679-1.386-10.56,2.64
		c0.104,3.537,7.275,3.1,9.84,6c3.412,3.858,0.992,9.091-3.6,10.32C37.04,107.28,33.76,107.28,30.48,107.28z"/>
	<path fill-rule="evenodd" clip-rule="evenodd" fill="#FFFFFF" d="M218.88,93.84c-3.12,0-6.24,0-9.36,0
		C207.169,86.025,221.249,85.908,218.88,93.84z"/>
</g>
</svg>
