<?xml version="1.0" encoding="utf-8"?>
<!-- Generator: Adobe Illustrator 12.0.1, SVG Export Plug-In . SVG Version: 6.00 Build 51448)  -->
<!DOCTYPE svg PUBLIC "-//W3C//DTD SVG 1.0//EN" "http://www.w3.org/TR/2001/REC-SVG-20010904/DTD/svg10.dtd" [
	<!ENTITY ns_svg "http://www.w3.org/2000/svg">
	<!ENTITY ns_xlink "http://www.w3.org/1999/xlink">
]>
<svg  version="1.0" id="Layer_1" xmlns="&ns_svg;" xmlns:xlink="&ns_xlink;" width="281.76" height="107.334"
	 viewBox="0 0 281.76 107.334" overflow="visible" enable-background="new 0 0 281.76 107.334" xml:space="preserve">
<g>
	<path fill="#E7A302" d="M204.96,25.2c-3.994-0.37-7.527-4.41-5.76-8.4c1.639-3.696,8.097-1.866,9.6,0.96
		C210.551,20.945,209.433,25.565,204.96,25.2z"/>
	<path fill="#00589C" d="M281.76,44.64c-3.588,14.675-10.032,31.416-30.96,29.28c0-8.8,0-17.601,0-26.4
		c10.67-2.009,20.245-11.1,21.602-23.04c0.514-4.529-0.137-9.132-1.92-12c0.834-0.361,1.434,0.874,1.92,1.44
		c4.363,5.092,8.109,12.432,9.359,20.88C281.76,38.08,281.76,41.36,281.76,44.64z"/>
	<path fill="#00589C" d="M252.72,107.04c-1.279,0-2.56,0-3.84,0c0.904-6.992-2.003-16.602,1.92-20.4
		c1.979-1.916,4.486-2.051,8.881-1.92c0,1.2,0,2.4,0,3.602C248.774,85.903,253.286,99.883,252.72,107.04z"/>
	<path fill="#00589C" d="M213.601,107.28c-7.154-0.784-8.863-8.603-7.92-16.801c0.848-7.371,14.488-8.826,16.801-1.439
		c0.797,2.552-0.084,4.652,0.238,8.4c-4.398,0-8.8,0-13.199,0c-0.772,6.875,6.492,6.643,12.479,6c0,1.278,0,2.56,0,3.84
		C219.2,107.28,216.399,107.28,213.601,107.28z M209.521,93.84c3.119,0,6.239,0,9.359,0
		C221.249,85.908,207.169,86.024,209.521,93.84z"/>
	<path fill="#00589C" d="M77.76,107.28c-9.646-1.874-4.428-18.612-5.76-28.801c1.36,0,2.72,0,4.08,0c0,2.08,0,4.16,0,6.239
		c1.76,0,3.52,0,5.28,0c-0.354,0.903-0.354,2.697,0,3.601c-1.76,0-3.52,0-5.28,0c-0.018,4.738-1.614,13.134,1.92,15.121
		c1.12,0,2.24,0,3.36,0c0,1.278,0,2.56,0,3.84C80.16,107.28,78.96,107.28,77.76,107.28z"/>
	<path fill="#00589C" d="M26.64,107.04c-1.28,0-2.56,0-3.84,0c-1.287-5.407,2.553-16.497-1.92-18.48
		c-1.929-0.854-4.807,0.137-7.92-0.238c0,6.238,0,12.479,0,18.72c-1.28,0-2.56,0-3.84,0c0.155-6.965-0.313-14.554,0.24-21.12
		c4.393-2.904,13.069-1.805,15.6,1.2C28.692,91.551,25.642,99.827,26.64,107.04z"/>
	<path fill="#00589C" d="M250.56,39.84c1.117-11.759-4.341-34.528,9.602-32.4c1.765,0.27,3.288,1.405,4.32,2.64
		C272.957,20.229,264.651,40.928,250.56,39.84z"/>
	<path fill="none" d="M137.04,90.479c0-2.881,0-5.761,0-8.641c6.212-0.939,11.725,0.877,9.6,6.24
		C145.521,90.906,141.461,90.524,137.04,90.479z"/>
	<path fill="none" d="M166.08,88.319c-0.213,6.621,1.853,16.768-6,15.121c-0.549-0.115-2.601-1.324-3.12-2.642
		c-0.939-2.386-0.809-9.331,0.24-11.04C158.896,86.999,162.159,88.912,166.08,88.319z"/>
	<path fill="none" d="M0,78.479C0,52.32,0,26.16,0,0c79.44,0,158.88,0,238.319,0c-13.928,1.833-22.893,8.627-29.521,17.76
		c-1.503-2.826-7.961-4.656-9.6-0.96c-1.769,3.99,1.766,8.03,5.76,8.4c-7.405,16.739,1.401,38.758,13.2,46.56
		c3.926,2.597,19.542,4.365,20.88-1.92c1.31-6.153-0.987-15.403,0-22.08c-12.647-4.153-22.988-10.611-30.96-19.44
		c2.01-2.418,5.717-3.344,9.6-1.92c6.941,2.546,13.133,10.206,20.641,11.52c-0.475-18.875,2.42-34.381,21.601-33.6
		C256.162,1.998,251.226,0.855,246,0c11.92,0,23.84,0,35.76,0c0,11.6,0,23.2,0,34.8c-1.25-8.448-4.995-15.788-9.358-20.88
		c-0.486-0.566-1.086-1.801-1.92-1.44c1.783,2.868,2.434,7.471,1.92,12c-1.355,11.94-10.932,21.031-21.602,23.04
		c0,8.799,0,17.6,0,26.4c20.928,2.136,27.372-14.604,30.96-29.28c0,20.878,0,41.759,0,62.64c-13.438,0-26.88,0-40.319,0
		c0.771-0.568,1.847-1.082,2.16-2.16c1.492-5.137-1.117-14.393,0-20.16c-0.806-0.555-2.637-0.084-3.841-0.24
		c0.287,5.897,0.474,13.096,0,18.961c-12.192,2.694-9.383-8.979-9.6-18.721c-0.806-0.555-2.636-0.084-3.841-0.24
		c-0.096,10.176-1.531,21.691,7.681,22.562c-4,0-8,0-12,0c0-1.28,0-2.562,0-3.841c-5.987,0.644-13.253,0.877-12.479-6
		c4.399,0,8.801,0,13.199,0c-0.322-3.746,0.559-5.849-0.238-8.399c-2.313-7.386-15.953-5.931-16.801,1.44
		c-0.943,8.197,0.766,16.016,7.92,16.8c-3.521,0-7.041,0-10.561,0c0-1.28,0-2.562,0-3.841c-8.344,1.545-4.337-9.264-5.28-15.119
		c1.681,0,3.36,0,5.04,0c0.555-0.728,0.085-2.477,0.24-3.602c-1.76,0-3.521,0-5.28,0c0-2,0-4,0-6
		c-0.806-0.555-2.636-0.084-3.84-0.238c1.425,10.016-3.981,26.861,5.521,28.8c-5.039,0-10.08,0-15.119,0
		c5.023-0.993,7.242-6.851,3.6-10.562c-2.688-2.738-9.51-2.261-9.6-5.76c-0.104-4.025,6.336-2.263,10.56-2.641
		c0.554-0.727,0.085-2.476,0.24-3.601c-6.339-0.099-13.279-0.799-14.64,4.08c-3.006,9.027,10.838,7.748,11.039,12
		c0.199,4.211-6.684,2.731-10.561,2.642c-0.009,0.646-0.029,2.668-0.24,3.84c-3.92,0-7.84,0-11.76,0
		c1.025-0.653,2.421-0.939,3.12-1.92c-0.304,2.222,2.17,1.668,4.08,1.68c0-3.309,0-6.816,0-10.8c0-4.031,0.894-10.382-1.44-11.521
		c-2.433-1.187-8.63-0.606-10.8,0c-1.96,0.55-4.586,2.982-5.04,5.04c-0.992,4.495-0.55,12.172,2.4,15.12
		c1.076,1.077,3.046,1.812,4.318,2.399c-14.238,0-28.479,0-42.72,0c-0.172-1.188-0.33-2.391-0.24-3.84
		c-1.309-0.051-2.885,0.166-3.84-0.239c-2.652-2.788-0.965-9.915-1.44-14.88c1.68,0,3.36,0,5.04,0
		c0.554-0.728,0.084-2.477,0.24-3.602c-1.76,0-3.52,0-5.28,0c0-2,0-4,0-6c-0.805-0.555-2.636-0.084-3.84-0.238
		c1.331,10.107-3.826,26.705,5.52,28.799c-4.32,0-8.64,0-12.96,0c0.771-0.567,1.847-1.081,2.16-2.159
		c1.493-5.136-1.117-14.392,0-20.16c-0.806-0.556-2.636-0.084-3.84-0.24c0.488,5.832,0.132,12.509,0.24,18.722
		c-3.516,0.51-6.741,0.43-8.4-1.2c-3.296-3.24-0.508-11.56-1.44-17.28c-0.805-0.555-2.636-0.084-3.84-0.24
		c-0.127,10.208-1.508,21.668,7.68,22.562c-3.76,0-7.52,0-11.28,0c0-1.28,0-2.562,0-3.841c-1.12,0-2.24,0-3.36,0
		c-3.534-1.986-1.938-10.381-1.92-15.119c1.76,0,3.52,0,5.28,0c-0.354-0.903-0.354-2.697,0-3.602c-1.76,0-3.52,0-5.28,0
		c0-2.08,0-4.16,0-6.238c-1.36,0-2.72,0-4.08,0c1.332,10.188-3.886,26.926,5.76,28.8c-6.24,0-12.48,0-18.72,0
		c-0.499-0.862-0.125-2.597-0.24-3.841c-8.283,1.483-4.363-9.236-5.28-15.119c1.68,0,3.36,0,5.04,0
		c0.554-0.728,0.084-2.477,0.24-3.602c-1.76,0-3.52,0-5.28,0c0-2,0-4,0-6c-0.806-0.555-2.636-0.084-3.84-0.238
		c1.409,10.029-3.963,26.843,5.52,28.8c-4.96,0-9.92,0-14.88,0c4.592-1.229,7.012-6.462,3.6-10.32c-2.564-2.899-9.736-2.463-9.84-6
		c-0.119-4.024,6.347-2.263,10.56-2.64c0.554-0.728,0.084-2.477,0.24-3.602c-8.439-0.662-16.195-0.104-14.64,7.682
		c0.199,0.994,1.102,2.406,1.92,3.119c2.525,2.199,8.971,2.062,9.12,5.279c0.201,4.346-6.539,2.672-10.56,2.641
		c-0.269,0.793,0.204,2.647-0.24,3.841C20.4,107.12,9.68,107.601,0,107.04c0.402-0.753,3.137,0.943,4.08,0c0.7-0.7,0-5.71,0-7.2
		c0-6.706,0-15.657,0-21.12C3.195,78.165,1.284,78.638,0,78.479z M259.681,88.319c0-1.199,0-2.399,0-3.601
		c-4.395-0.131-6.9,0.005-8.881,1.921c-3.923,3.799-1.016,13.407-1.92,20.399c1.28,0,2.561,0,3.84,0
		C253.286,99.883,248.774,85.903,259.681,88.319z M148.8,91.92c4.236-4.063,2.229-11.935-3.119-13.438
		c-2.256-0.635-9.819-1.215-11.761,0.479c-1.928,1.682-0.96,9.682-0.96,13.439c0,5.426,0,9.875,0,14.641c1.36,0,2.72,0,4.08,0
		c0.16-4.24-0.319-9.119,0.24-12.96C142.851,94.151,146.173,94.44,148.8,91.92z M63.36,84.72c-0.174,6.424,0.328,15.5-0.24,22.32
		c1.28,0,2.56,0,3.84,0c0-7.439,0-14.88,0-22.32C65.76,84.72,64.56,84.72,63.36,84.72z M24.96,87.12
		c-2.531-3.005-11.208-4.105-15.6-1.2c-0.553,6.567-0.085,14.155-0.24,21.12c1.28,0,2.56,0,3.84,0c0-6.24,0-12.48,0-18.721
		c3.113,0.375,5.991-0.614,7.92,0.24c4.473,1.982,0.633,13.072,1.92,18.479c1.28,0,2.56,0,3.84,0
		C25.642,99.827,28.692,91.551,24.96,87.12z M264.479,10.08c-1.031-1.235-2.556-2.371-4.319-2.64
		c-13.94-2.128-8.483,20.641-9.601,32.4C264.651,40.928,272.957,20.229,264.479,10.08z"/>
	<path fill="#00589C" d="M246,0c5.226,0.855,10.162,1.998,13.92,4.32c-19.181-0.781-22.075,14.725-21.601,33.6
		c-7.508-1.314-13.698-8.974-20.641-11.52c-3.883-1.424-7.59-0.499-9.6,1.92c7.972,8.829,18.313,15.287,30.96,19.44
		c-0.987,6.677,1.31,15.927,0,22.08c-1.338,6.285-16.954,4.517-20.88,1.92c-11.799-7.802-20.605-29.82-13.2-46.56
		c4.474,0.365,5.591-4.255,3.84-7.44c6.63-9.133,15.595-15.927,29.521-17.76C240.88,0,243.44,0,246,0z"/>
	<path fill="#00589C" d="M0,78.479c1.284,0.156,3.195-0.314,4.08,0.239c0,5.462,0,14.414,0,21.12c0,1.49,0.7,6.5,0,7.2
		c-0.943,0.942-3.678-0.753-4.08,0C0,97.521,0,88,0,78.479z"/>
	<path fill="#00589C" d="M55.2,107.28c-9.483-1.957-4.111-18.771-5.52-28.801c1.204,0.155,3.034-0.314,3.84,0.239c0,2,0,4,0,6
		c1.76,0,3.52,0,5.28,0c-0.155,1.125,0.314,2.874-0.24,3.601c-1.68,0-3.36,0-5.04,0c0.917,5.884-3.003,16.604,5.28,15.121
		c0.116,1.244-0.258,2.978,0.24,3.84C57.76,107.28,56.48,107.28,55.2,107.28z"/>
	<path fill="#00589C" d="M113.04,107.28c-9.346-2.096-4.189-18.691-5.52-28.801c1.204,0.155,3.035-0.314,3.84,0.239c0,2,0,4,0,6
		c1.76,0,3.52,0,5.28,0c-0.156,1.125,0.314,2.874-0.24,3.601c-1.68,0-3.36,0-5.04,0c0.475,4.966-1.212,12.093,1.44,14.881
		c0.955,0.404,2.532,0.188,3.84,0.24c-0.09,1.449,0.067,2.65,0.24,3.84C115.6,107.28,114.32,107.28,113.04,107.28z"/>
	<path fill="#00589C" d="M199.44,107.28c-9.504-1.938-4.098-18.784-5.521-28.801c1.204,0.155,3.034-0.314,3.84,0.239c0,2,0,4,0,6
		c1.76,0,3.521,0,5.28,0c-0.155,1.125,0.313,2.874-0.24,3.601c-1.68,0-3.358,0-5.04,0c0.943,5.856-3.063,16.664,5.28,15.121
		c0,1.278,0,2.56,0,3.84C201.84,107.28,200.64,107.28,199.44,107.28z"/>
	<path fill="#00589C" d="M137.28,94.08c-0.559,3.841-0.08,8.72-0.24,12.96c-1.36,0-2.72,0-4.08,0c0-4.766,0-9.215,0-14.641
		c0-3.758-0.968-11.758,0.96-13.439c1.941-1.693,9.505-1.113,11.761-0.479c5.35,1.504,7.355,9.375,3.119,13.438
		C146.173,94.44,142.851,94.151,137.28,94.08z M146.64,88.08c2.125-5.363-3.388-7.181-9.6-6.24c0,2.88,0,5.761,0,8.642
		C141.461,90.524,145.521,90.906,146.64,88.08z"/>
	<path fill="#00589C" d="M66.96,84.72c0,7.44,0,14.881,0,22.32c-1.28,0-2.56,0-3.84,0c0.568-6.82,0.065-15.896,0.24-22.32
		C64.56,84.72,65.76,84.72,66.96,84.72z"/>
	<path fill="#00589C" d="M92.64,107.28c-9.188-0.893-7.808-12.354-7.68-22.562c1.204,0.156,3.035-0.313,3.84,0.24
		c0.932,5.722-1.856,14.04,1.44,17.28c1.659,1.63,4.884,1.71,8.4,1.199c-0.108-6.211,0.248-12.889-0.24-18.721
		c1.204,0.156,3.035-0.314,3.84,0.24c-1.117,5.77,1.493,15.023,0,20.16c-0.313,1.078-1.389,1.592-2.16,2.16
		C97.6,107.28,95.12,107.28,92.64,107.28z"/>
	<path fill="#00589C" d="M159.601,107.28c-1.273-0.59-3.244-1.323-4.319-2.4c-2.95-2.949-3.394-10.625-2.4-15.12
		c0.454-2.058,3.08-4.491,5.04-5.04c2.17-0.605,8.367-1.187,10.801,0c2.334,1.139,1.439,7.489,1.439,11.521c0,3.982,0,7.49,0,10.8
		c-1.91-0.011-4.383,0.542-4.08-1.681c-0.699,0.98-2.094,1.268-3.12,1.921C161.84,107.28,160.72,107.28,159.601,107.28z
		 M157.2,89.76c-1.049,1.709-1.182,8.654-0.24,11.04c0.52,1.316,2.57,2.525,3.12,2.641c7.853,1.646,5.787-8.5,6-15.119
		C162.159,88.912,158.896,86.999,157.2,89.76z"/>
	<path fill="#00589C" d="M234,107.28c-9.212-0.869-7.774-12.385-7.681-22.562c1.205,0.156,3.035-0.313,3.841,0.24
		c0.217,9.741-2.595,21.415,9.6,18.72c0.474-5.863,0.287-13.063,0-18.96c1.204,0.156,3.035-0.313,3.841,0.24
		c-1.117,5.769,1.492,15.024,0,20.16c-0.313,1.078-1.39,1.592-2.16,2.159C238.96,107.28,236.479,107.28,234,107.28z"/>
	<path fill="#00589C" d="M174.72,107.28c0.211-1.172,0.231-3.193,0.24-3.84c3.877,0.091,10.76,1.569,10.561-2.642
		c-0.201-4.252-14.045-2.973-11.039-12c1.359-4.879,8.301-4.179,14.64-4.08c-0.155,1.125,0.313,2.874-0.24,3.601
		c-4.224,0.378-10.664-1.385-10.56,2.641c0.09,3.499,6.91,3.021,9.6,5.76c3.643,3.711,1.424,9.567-3.6,10.562
		C181.12,107.28,177.92,107.28,174.72,107.28z"/>
	<path fill="#00589C" d="M30.48,107.28c0.444-1.192-0.029-3.047,0.24-3.84c4.021,0.031,10.761,1.703,10.56-2.642
		c-0.149-3.219-6.595-3.08-9.12-5.28c-0.818-0.711-1.721-2.125-1.92-3.119c-1.556-7.783,6.2-8.342,14.64-7.681
		c-0.155,1.125,0.314,2.874-0.24,3.601c-4.213,0.378-10.679-1.385-10.56,2.641c0.104,3.537,7.275,3.1,9.84,6
		c3.412,3.857,0.992,9.091-3.6,10.32C37.04,107.28,33.76,107.28,30.48,107.28z"/>
	<path fill="none" d="M218.88,93.84c-3.12,0-6.24,0-9.359,0C207.169,86.024,221.249,85.908,218.88,93.84z"/>
</g>
</svg>
