<?xml version="1.0" encoding="utf-8"?>
<!-- Generator: Adobe Illustrator 12.0.1, SVG Export Plug-In . SVG Version: 6.00 Build 51448)  -->
<!DOCTYPE svg PUBLIC "-//W3C//DTD SVG 1.0//EN" "http://www.w3.org/TR/2001/REC-SVG-20010904/DTD/svg10.dtd" [
	<!ENTITY ns_svg "http://www.w3.org/2000/svg">
	<!ENTITY ns_xlink "http://www.w3.org/1999/xlink">
]>
<svg  version="1.0" id="Layer_1" xmlns="&ns_svg;" xmlns:xlink="&ns_xlink;" width="96.625" height="72.357"
	 viewBox="0 0 96.625 72.357" overflow="visible" enable-background="new 0 0 96.625 72.357" xml:space="preserve">
<g>
	<g>
		<polygon points="37.599,0 65.589,0 65.589,4.24 54.292,4.24 55.798,2.479 37.725,2.479 		"/>
		<polygon points="28.954,5.764 75.019,5.764 75.019,10.004 56.568,10.004 58.074,8.243 29.08,8.243 		"/>
		<polygon points="17.657,11.466 85.185,11.466 85.185,15.706 58.828,15.706 60.333,13.945 17.783,13.945 		"/>
		<path d="M8.244,17.21h79.955l-0.377,3.83c0,0-23.182-0.039-29.999,10.36L8.244,17.21z"/>
		<path d="M8.927,20.53c0,0,81.298,18.384,60.727,22.568L32.803,32.019C54.062,33.25,8.927,20.53,8.927,20.53"/>
	</g>
	<g>
		<path d="M74.126,68.901V54.647c0-2.313-1.519-2.529-4.003-2.529v-0.617H80.89c7.637,0,15.734,1.11,15.734,10.305
			c0,9.164-8.512,10.243-15.734,10.243h-6.73L74.126,68.901z M78.221,68.254c0,2.253,0.368,2.592,2.669,2.592
			c7.913,0,11.18-2.839,11.18-9.04c0-5.677-2.438-9.102-11.18-9.102c-2.301,0-2.669,0.186-2.669,2.592V68.254z"/>
		<path d="M25.49,54.647v10.274c0,4.228-0.92,7.436-10.49,7.436c-9.524,0-10.997-3.085-10.997-7.436V54.647
			c0-2.313-1.472-2.529-4.003-2.529v-0.617h7.996v0.617c0,0,0.102,0.216,0.102,2.529v10.274c0,3.147,1.104,6.232,7.085,6.232
			c6.626,0,7.684-2.562,7.684-6.232V54.647c0-2.313-1.519-2.529-4.003-2.529v-0.617h6.688L25.49,54.647z"/>
		<path d="M43.188,70.97c-10.076,0-11.365-6.141-11.365-10.121c0-3.178,0.598-8.453,8.006-8.453c5.706,0,7.546,2.777,8.144,4.504
			h1.15l-0.414-4.844c-2.024-0.369-5.153-0.863-8.834-0.863c-9.846,0-12.606,4.195-12.606,9.904c0,6.571,4.417,11.261,13.619,11.261
			c2.671,0,4.832-0.172,6.728-0.514V70.56C46.556,70.778,45.167,70.97,43.188,70.97z"/>
		<path d="M64.208,60.973c-4.202-1.573-9.951-2.468-9.951-5.214c0-2.037,2.851-3.363,6.087-3.363c5.169,0,7.102,1.913,7.536,3.548
			h1.208l-0.339-4.227c-2.174-0.278-4.251-0.524-7.487-0.524c-6.088,0-10.869,1.512-10.869,5.214c0,1.975,1.014,3.085,3.14,4.135
			c4.492,2.19,12.512,3.208,12.512,6.54c0,2.129-2.754,3.889-7.005,3.889c-0.449,0-0.876-0.016-1.283-0.043
			c-1.279,0.043-4.142-0.239-6.346-0.561v1.52c1.709,0.182,4.642,0.472,7.242,0.472c6.619,0,11.933-1.851,11.933-5.77
			C70.584,63.657,68.024,62.392,64.208,60.973z"/>
	</g>
</g>
</svg>
