<?xml version="1.0" encoding="utf-8"?>
<!-- Generator: Adobe Illustrator 13.0.2, SVG Export Plug-In . SVG Version: 6.00 Build 14948)  -->
<!DOCTYPE svg PUBLIC "-//W3C//DTD SVG 1.1//EN" "http://www.w3.org/Graphics/SVG/1.1/DTD/svg11.dtd">
<svg version="1.1" id="Layer_1" xmlns="http://www.w3.org/2000/svg" xmlns:xlink="http://www.w3.org/1999/xlink" x="0px" y="0px"
	 width="258.573px" height="179.907px" viewBox="0 0 258.573 179.907" enable-background="new 0 0 258.573 179.907"
	 xml:space="preserve">
<linearGradient id="SVGID_1_" gradientUnits="userSpaceOnUse" x1="168.6343" y1="120.644" x2="135.1543" y2="120.644">
	<stop  offset="0" style="stop-color:#FFD773"/>
	<stop  offset="0.0194" style="stop-color:#FFD56F"/>
	<stop  offset="0.1875" style="stop-color:#FFC751"/>
	<stop  offset="0.3639" style="stop-color:#FEBC38"/>
	<stop  offset="0.5499" style="stop-color:#FCB525"/>
	<stop  offset="0.7521" style="stop-color:#FCB11A"/>
	<stop  offset="1" style="stop-color:#FCAF17"/>
</linearGradient>
<path fill="url(#SVGID_1_)" d="M161.049,131.903c-5.938-3.422-3.146-1.539-5.25-2.734c-2.1-1.195-6.562-3.875-8.688-5.125
	c-2.083-1.226-5.718-3.279-7.522-4.43c-1.805-1.148-4.078-3.976-4.267-6.039c-0.285-3.143,0.16-4.19,0.16-4.19
	s0.509,3.327,7.441,7.284c1.85,1.055,5.421,3.303,7.812,4.625c2.375,1.312,7.063,3.979,9.25,5.438c2.062,1.375,7,4.438,8.125,5.172
	H161.049z"/>
<linearGradient id="SVGID_2_" gradientUnits="userSpaceOnUse" x1="166.9097" y1="64.123" x2="116.4459" y2="64.123">
	<stop  offset="0" style="stop-color:#FFD773"/>
	<stop  offset="0.0194" style="stop-color:#FFD56F"/>
	<stop  offset="0.1875" style="stop-color:#FFC751"/>
	<stop  offset="0.3639" style="stop-color:#FEBC38"/>
	<stop  offset="0.5499" style="stop-color:#FCB525"/>
	<stop  offset="0.7521" style="stop-color:#FCB11A"/>
	<stop  offset="1" style="stop-color:#FCAF17"/>
</linearGradient>
<path fill="url(#SVGID_2_)" d="M134.871,64.335c-4.651-1.723-8.389-2.938-8.389-2.938c-4.037-1.26-9.154-4.357-10.56-7.684
	c-1.405-3.326,0.186-5.4,3.167-7.667c2.981-2.267,8.615-2.4,11.538-1.693c2.924,0.707,4.311,2.498,4.311,2.498
	c-0.924,0.669-3.178,2.255-7.227,2.297c-4.049,0.042-5.337-1.743-5.337-1.743s-2.583,2.198-1.805,4.315
	c0.777,2.119,2.431,2.572,4.938,3.706c2.507,1.135,9.808,3.467,9.808,3.467l12.226,4.235c0,0,12.183,4.927,14.965,7.391
	c4.508,3.992,3.362,7.287,3.27,13.753c0,0-1.623-6.303-4.935-8.599c-3.312-2.296-11.381-6.054-13.769-6.936
	C144.434,67.764,141.065,66.628,134.871,64.335z"/>
<linearGradient id="SVGID_3_" gradientUnits="userSpaceOnUse" x1="135.625" y1="94.9292" x2="164.9663" y2="94.9292">
	<stop  offset="0" style="stop-color:#FFD773"/>
	<stop  offset="0.0194" style="stop-color:#FFD56F"/>
	<stop  offset="0.1875" style="stop-color:#FFC751"/>
	<stop  offset="0.3639" style="stop-color:#FEBC38"/>
	<stop  offset="0.5499" style="stop-color:#FCB525"/>
	<stop  offset="0.7521" style="stop-color:#FCB11A"/>
	<stop  offset="1" style="stop-color:#FCAF17"/>
</linearGradient>
<path fill="url(#SVGID_3_)" d="M164.962,107.354c0,0,0.131-5.176-1.111-6.959c-1.242-1.784-3.041-3.252-4.887-4.494
	c-1.845-1.239-6.646-3.361-9.723-4.561c-3.077-1.203-7.492-3.412-8.622-4.329c-1.129-0.918-4.231-3.871-4.989-6.702
	c0,0-0.012,4.048,0,4.914c0.013,0.903,0.981,4.591,1.699,5.672c0.762,1.146,4.505,4.535,12.134,7.4s15.256,7.426,15.062,11.254
	C164.526,109.549,164.925,108.151,164.962,107.354z"/>
<path fill="#0071BC" d="M158.645,42.939v88.953H143.14V42.939H158.645z"/>
<text transform="matrix(1 0 0 1 0 152.9956)" font-family="'Myriad-Roman'" font-size="22.5">N</text>
<text transform="matrix(0.7 0 0 0.7 14.8047 152.9956)" font-family="'Myriad-Roman'" font-size="22.5">ational</text>
<text transform="matrix(1 0 0 1 74.3232 152.9956)" font-family="'Myriad-Roman'" font-size="22.5"> C</text>
<text transform="matrix(0.7 0 0 0.7 92.1431 152.9956)" font-family="'Myriad-Roman'" font-size="22.5">enter</text>
<text transform="matrix(1 0 0 1 134.3047 152.9956)" font-family="'Myriad-Roman'" font-size="22.5"> </text>
<text transform="matrix(0.7 0 0 0.7 139.0747 152.9956)" font-family="'Myriad-Roman'" font-size="22.5">for</text>
<text transform="matrix(1 0 0 1 166.0698 152.9956)" font-family="'Myriad-Roman'" font-size="22.5"> I</text>
<text transform="matrix(0.7 0 0 0.7 176.2173 152.9956)" font-family="'Myriad-Roman'" font-size="22.5">ntegrative</text>
<text transform="matrix(1 0 0 1 35.9556 174.2817)" font-family="'Myriad-Roman'" font-size="22.5">B</text>
<text transform="matrix(0.7 0 0 0.7 48.1504 174.2817)" font-family="'Myriad-Roman'" font-size="22.5">iomedical</text>
<text transform="matrix(1 0 0 1 123.6387 174.2817)" font-family="'Myriad-Roman'" font-size="22.5"> I</text>
<text transform="matrix(0.7 0 0 0.7 133.7861 174.2817)" font-family="'Myriad-Roman'" font-size="22.5">nformatics</text>
<g>
	<path fill="#0071BC" d="M8.241,131.919V63.085h17.51l13.772,25.226c3.935,7.25,7.771,15.829,10.82,23.592h0.197
		c-0.885-9.09-1.18-18.384-1.18-28.801V63.085h13.771v68.834h-15.74l-14.165-26.554c-3.936-7.455-8.362-16.238-11.51-24.307h-0.394
		c0.492,9.192,0.689,18.894,0.689,30.128v20.732H8.241z"/>
	<path fill="#0071BC" d="M122.783,130.081c-2.656,1.328-8.953,2.963-16.92,2.963c-22.92,0-34.725-14.911-34.725-34.623
		c0-23.489,16.133-36.458,36.2-36.458c7.771,0,13.673,1.634,16.33,3.064l-3.148,12.255c-2.951-1.328-7.181-2.553-12.591-2.553
		c-11.805,0-21.052,7.455-21.052,22.876c0,13.787,7.87,22.469,21.149,22.469c4.624,0,9.542-0.92,12.592-2.248L122.783,130.081z"/>
	<path fill="#0071BC" d="M179.597,64.106c3.935-0.817,11.804-1.532,19.378-1.532c9.148,0,14.756,0.919,19.576,3.881
		c4.624,2.553,7.87,7.251,7.87,13.583c0,6.025-3.442,11.643-10.821,14.604v0.205c7.575,2.042,13.183,8.067,13.183,16.952
		c0,6.333-2.755,11.234-6.887,14.604c-4.819,3.983-12.886,6.23-26.068,6.23c-7.378,0-12.886-0.511-16.23-1.021V64.106z
		 M194.451,90.352h4.918c7.969,0,12.101-3.369,12.101-8.476c0-5.208-3.836-7.965-10.624-7.965c-3.346,0-5.215,0.203-6.395,0.51
		V90.352z M194.451,120.889c1.476,0.307,3.247,0.307,5.804,0.307c6.787,0,12.788-2.758,12.788-10.009
		c0-6.945-6.001-9.702-13.477-9.702h-5.115V120.889z"/>
	<path fill="#0071BC" d="M252.578,63.085v68.834h-14.953V63.085H252.578z"/>
</g>
<linearGradient id="SVGID_4_" gradientUnits="userSpaceOnUse" x1="132.4868" y1="119.2329" x2="164.9663" y2="119.2329">
	<stop  offset="0" style="stop-color:#FFD773"/>
	<stop  offset="0.0194" style="stop-color:#FFD56F"/>
	<stop  offset="0.1875" style="stop-color:#FFC751"/>
	<stop  offset="0.3639" style="stop-color:#FEBC38"/>
	<stop  offset="0.5499" style="stop-color:#FCB525"/>
	<stop  offset="0.7521" style="stop-color:#FCB11A"/>
	<stop  offset="1" style="stop-color:#FCAF17"/>
</linearGradient>
<path fill="url(#SVGID_4_)" d="M140.799,131.951c1.104-0.492,16.292-10.694,19.955-13.245c3.795-2.642,4.132-5.017,4.132-5.017
	l0.076-7.173c0,0,0.166,3.309-1.633,5.031c-1.78,1.704-9.384,6.199-14.343,9.704c-4.688,3.312-15.072,10.077-16.5,10.699H140.799z"
	/>
<linearGradient id="SVGID_5_" gradientUnits="userSpaceOnUse" x1="165.7935" y1="97.2769" x2="135.2982" y2="97.2769">
	<stop  offset="0" style="stop-color:#FFD773"/>
	<stop  offset="0.0194" style="stop-color:#FFD56F"/>
	<stop  offset="0.1875" style="stop-color:#FFC751"/>
	<stop  offset="0.3639" style="stop-color:#FEBC38"/>
	<stop  offset="0.5499" style="stop-color:#FCB525"/>
	<stop  offset="0.7521" style="stop-color:#FCB11A"/>
	<stop  offset="1" style="stop-color:#FCAF17"/>
</linearGradient>
<path fill="url(#SVGID_5_)" d="M165.879,81.819l-0.085,7.593c0,0-0.158,2.899-2.828,5.028c-2.666,2.129-8.209,4.455-13.458,6.207
	s-6.976,2.479-10.125,4.959c-3.915,3.08-4.122,6.521-4.14,7.129l0.07-4.147c0,0,0.498-5.448,2.054-7.082
	c1.555-1.634,3.659-3.034,5.797-4.028c2.139-0.99,9.697-3.824,12.137-5.045c2.439-1.217,6.024-2.43,8.018-4.791
	C165.311,85.281,165.82,85.284,165.879,81.819z"/>
<g>
	<polygon fill="#FFFFFF" stroke="#0071BC" points="173.383,56.59 193.327,31.93 159.883,22.32 138.5,46.079 	"/>
	<polygon fill="none" stroke="#0071BC" stroke-width="0.575" stroke-linejoin="round" points="173.383,56.59 193.327,31.93 
		159.883,22.32 138.5,46.079 	"/>
	<polygon fill="#FFFFFF" stroke="#0071BC" stroke-width="0.575" stroke-linejoin="round" points="103.688,33.119 125,8.171 
		159.524,22.427 138.356,46.079 	"/>
	<polygon fill="none" stroke="#0071BC" stroke-width="0.575" stroke-linejoin="round" points="103.688,33.119 125,8.171 
		159.524,22.427 138.356,46.079 	"/>
	<polygon fill="#FFFFFF" stroke="#0071BC" stroke-width="0.575" stroke-linejoin="round" points="103.725,32.543 125,8.171 
		159.524,22.427 138.356,46.079 	"/>
	<polygon fill="none" stroke="#0071BC" stroke-width="0.575" stroke-linejoin="round" points="103.725,32.543 125,8.171 
		159.524,22.427 138.356,46.079 	"/>
	<polygon fill="#FFFFFF" stroke="#0071BC" stroke-width="0.575" stroke-linejoin="round" points="103.832,32.075 125,8.171 
		159.524,22.427 138.356,46.079 	"/>
	<polygon fill="none" stroke="#0071BC" stroke-width="0.575" stroke-linejoin="round" points="103.832,32.075 125,8.171 
		159.524,22.427 138.356,46.079 	"/>
	<polygon fill="#FFFFFF" stroke="#0071BC" stroke-width="0.575" stroke-linejoin="round" points="103.832,31.571 125,8.171 
		159.524,22.427 138.356,46.079 	"/>
	<polygon fill="none" stroke="#0071BC" stroke-width="0.575" stroke-linejoin="round" points="103.832,31.571 125,8.171 
		159.524,22.427 138.356,46.079 	"/>
	<polygon fill="#FFFFFF" stroke="#0071BC" stroke-width="0.575" stroke-linejoin="round" points="105.524,28.439 126.692,5.04 
		159.524,22.427 138.356,46.079 	"/>
	<polygon fill="none" stroke="#0071BC" stroke-width="0.575" stroke-linejoin="round" points="105.524,28.439 126.692,5.04 
		159.524,22.427 138.356,46.079 	"/>
	<polygon fill="#FFFFFF" stroke="#0071BC" stroke-width="0.575" stroke-linejoin="round" points="108.296,25.919 129.428,2.52 
		159.524,22.644 138.356,46.079 	"/>
	<polygon fill="none" stroke="#0071BC" stroke-width="0.575" stroke-linejoin="round" points="108.296,25.919 129.428,2.52 
		159.524,22.644 138.356,46.079 	"/>
	<polygon fill="#FFFFFF" stroke="#0071BC" stroke-width="0.575" stroke-linejoin="round" points="112.796,23.688 133.928,0.288 
		159.524,22.644 138.5,46.079 	"/>
	<polygon fill="none" stroke="#0071BC" stroke-width="0.575" stroke-linejoin="round" points="112.796,23.688 133.928,0.288 
		159.524,22.644 138.356,46.079 	"/>
	<polygon fill="#FFFFFF" stroke="#0071BC" stroke-width="0.575" stroke-linejoin="round" points="116.937,23.795 137.996,0.288 
		159.847,22.391 138.644,46.042 	"/>
	<polygon fill="none" stroke="#0071BC" stroke-width="0.575" stroke-linejoin="round" points="116.937,23.795 137.996,0.288 
		159.847,22.391 138.644,46.042 	"/>
	<polygon fill="#FFFFFF" stroke="#0071BC" stroke-width="0.575" stroke-linejoin="round" points="140.948,25.02 163.447,2.52 
		159.739,22.391 138.356,46.079 	"/>
	<polygon fill="none" stroke="#0071BC" stroke-width="0.575" stroke-linejoin="round" points="140.948,25.02 163.447,2.52 
		159.739,22.391 138.356,46.079 	"/>
	<polygon fill="#FFFFFF" stroke="#0071BC" stroke-width="0.575" stroke-linejoin="round" points="173.023,55.942 193.075,31.39 
		159.883,22.32 138.532,46 	"/>
	<polygon fill="none" stroke="#0071BC" stroke-width="0.575" stroke-linejoin="round" points="173.023,55.942 193.075,31.39 
		159.883,22.32 138.532,46 	"/>
	<polygon fill="#FFFFFF" stroke="#0071BC" stroke-width="0.575" stroke-linejoin="round" points="172.987,54.935 193.003,30.346 
		159.883,22.32 138.5,46.079 	"/>
	<polygon fill="none" stroke="#0071BC" stroke-width="0.575" stroke-linejoin="round" points="172.987,54.935 193.003,30.346 
		159.883,22.32 138.5,46.079 	"/>
	<polygon fill="#FFFFFF" stroke="#0071BC" stroke-width="0.575" stroke-linejoin="round" points="172.555,54.178 192.535,29.626 
		159.883,22.32 138.5,46.079 	"/>
	<polygon fill="none" stroke="#0071BC" stroke-width="0.575" stroke-linejoin="round" points="172.555,54.178 192.535,29.626 
		159.883,22.32 138.5,46.079 	"/>
	<polygon fill="#FFFFFF" stroke="#0071BC" stroke-width="0.575" stroke-linejoin="round" points="172.303,53.279 192.283,28.583 
		159.883,22.32 138.5,46.079 	"/>
	<polygon fill="none" stroke="#0071BC" stroke-width="0.575" stroke-linejoin="round" points="172.303,53.279 192.283,28.583 
		159.883,22.32 138.5,46.079 	"/>
</g>
<g>
	<path d="M156.896,29.782c-0.824-0.154-0.477-1.266,1.158-3.086c1.679-1.853,3.207-2.743,4.064-2.584
		c0.882,0.165,0.461,1.292-1.126,3.042c-1.694,1.869-3.169,2.801-4.09,2.628L156.896,29.782z M157.444,29.211
		c0.577,0.107,1.662-0.729,2.934-2.133c1.227-1.353,1.771-2.289,1.175-2.4c-0.519-0.097-1.639,0.703-2.889,2.081
		c-1.308,1.427-1.753,2.354-1.227,2.451L157.444,29.211z"/>
	<path d="M164.56,25.486l-0.013-0.002l-1.201,0.379l0.403-0.587l1.505-0.472l0.486,0.092l-4.982,5.497l-0.553-0.103L164.56,25.486z"
		/>
	<path d="M163.555,31.023c-0.824-0.154-0.477-1.266,1.159-3.086c1.679-1.852,3.207-2.743,4.063-2.583
		c0.883,0.165,0.461,1.291-1.125,3.042c-1.694,1.869-3.169,2.8-4.091,2.629L163.555,31.023z M164.103,30.453
		c0.577,0.107,1.661-0.728,2.934-2.132c1.227-1.353,1.771-2.29,1.175-2.401c-0.519-0.097-1.639,0.703-2.888,2.081
		c-1.309,1.428-1.754,2.354-1.228,2.451L164.103,30.453z"/>
	<path d="M171.219,26.728l-0.013-0.003l-1.201,0.379l0.404-0.587l1.503-0.471l0.487,0.091l-4.983,5.497l-0.55-0.104L171.219,26.728z
		"/>
	<path d="M170.214,32.264c-0.824-0.153-0.476-1.266,1.158-3.085c1.68-1.853,3.208-2.745,4.064-2.584
		c0.883,0.165,0.461,1.292-1.126,3.042c-1.693,1.869-3.168,2.801-4.09,2.629L170.214,32.264z M170.762,31.694
		c0.578,0.107,1.661-0.729,2.935-2.133c1.226-1.353,1.771-2.289,1.173-2.399c-0.519-0.097-1.638,0.702-2.887,2.08
		c-1.309,1.428-1.753,2.353-1.228,2.451L170.762,31.694z"/>
	<path d="M177.879,27.969l-0.014-0.003l-1.201,0.379l0.403-0.587l1.505-0.471l0.486,0.091l-4.982,5.497l-0.553-0.102L177.879,27.969
		z"/>
	<path d="M176.874,33.505c-0.824-0.154-0.477-1.266,1.159-3.086c1.679-1.852,3.207-2.743,4.063-2.583
		c0.883,0.165,0.462,1.292-1.126,3.042c-1.694,1.87-3.168,2.801-4.09,2.629L176.874,33.505z M177.42,32.936
		c0.579,0.107,1.662-0.729,2.935-2.133c1.228-1.353,1.772-2.29,1.175-2.401c-0.52-0.097-1.639,0.703-2.888,2.081
		c-1.309,1.428-1.754,2.354-1.228,2.451L177.42,32.936z"/>
	<path d="M184.539,29.21l-0.014-0.003l-1.201,0.379L183.727,29l1.505-0.472l0.486,0.091l-4.982,5.498l-0.552-0.103L184.539,29.21z"
		/>
	<path d="M183.534,34.747c-0.824-0.153-0.478-1.266,1.158-3.086c1.678-1.852,3.207-2.744,4.063-2.584
		c0.884,0.164,0.462,1.292-1.126,3.042c-1.694,1.869-3.168,2.801-4.089,2.63L183.534,34.747z M184.081,34.176
		c0.577,0.108,1.662-0.729,2.935-2.133c1.228-1.353,1.771-2.289,1.174-2.4c-0.519-0.097-1.638,0.703-2.888,2.082
		c-1.309,1.426-1.753,2.352-1.228,2.45L184.081,34.176z"/>
</g>
<g>
	<path d="M150.207,37.7c-0.824-0.154-0.477-1.266,1.158-3.086c1.679-1.853,3.207-2.743,4.064-2.584
		c0.882,0.165,0.461,1.292-1.126,3.042c-1.694,1.869-3.169,2.801-4.09,2.628L150.207,37.7z M150.754,37.129
		c0.577,0.107,1.662-0.729,2.934-2.133c1.227-1.353,1.771-2.289,1.175-2.4c-0.519-0.097-1.639,0.703-2.889,2.081
		c-1.308,1.427-1.753,2.354-1.227,2.451L150.754,37.129z"/>
	<path d="M157.871,33.404l-0.013-0.002l-1.201,0.379l0.403-0.587l1.505-0.472l0.486,0.092l-4.982,5.497l-0.553-0.103L157.871,33.404
		z"/>
	<path d="M156.866,38.941c-0.824-0.154-0.477-1.266,1.159-3.086c1.679-1.852,3.207-2.743,4.063-2.583
		c0.883,0.165,0.461,1.291-1.125,3.042c-1.694,1.869-3.169,2.8-4.091,2.629L156.866,38.941z M157.414,38.371
		c0.577,0.107,1.661-0.728,2.934-2.132c1.227-1.353,1.771-2.29,1.175-2.401c-0.519-0.097-1.639,0.703-2.888,2.081
		c-1.309,1.428-1.754,2.354-1.228,2.451L157.414,38.371z"/>
	<path d="M164.53,34.646l-0.013-0.003l-1.201,0.379l0.404-0.587l1.503-0.471l0.487,0.091l-4.983,5.497l-0.55-0.104L164.53,34.646z"
		/>
	<path d="M163.525,40.182c-0.824-0.153-0.476-1.266,1.158-3.085c1.68-1.853,3.208-2.745,4.064-2.584
		c0.883,0.165,0.461,1.292-1.126,3.042c-1.693,1.869-3.168,2.801-4.09,2.629L163.525,40.182z M164.073,39.612
		c0.578,0.107,1.661-0.729,2.935-2.133c1.226-1.353,1.771-2.289,1.173-2.399c-0.519-0.097-1.638,0.702-2.887,2.08
		c-1.309,1.428-1.753,2.353-1.228,2.451L164.073,39.612z"/>
	<path d="M171.19,35.887l-0.014-0.003l-1.201,0.379l0.403-0.587l1.505-0.471l0.486,0.091l-4.982,5.497l-0.553-0.102L171.19,35.887z"
		/>
	<path d="M170.184,41.423c-0.824-0.154-0.477-1.266,1.159-3.086c1.679-1.852,3.207-2.743,4.063-2.583
		c0.883,0.165,0.462,1.292-1.126,3.042c-1.694,1.87-3.168,2.801-4.09,2.629L170.184,41.423z M170.731,40.854
		c0.579,0.107,1.662-0.729,2.935-2.133c1.228-1.353,1.772-2.29,1.175-2.401c-0.52-0.097-1.639,0.703-2.888,2.081
		c-1.309,1.428-1.754,2.354-1.228,2.451L170.731,40.854z"/>
	<path d="M177.849,37.128l-0.014-0.003l-1.201,0.379l0.403-0.586l1.505-0.472l0.486,0.091l-4.982,5.498l-0.552-0.103L177.849,37.128
		z"/>
	<path d="M176.844,42.665c-0.824-0.153-0.478-1.266,1.158-3.086c1.678-1.852,3.207-2.744,4.063-2.584
		c0.884,0.164,0.462,1.292-1.126,3.042c-1.694,1.869-3.168,2.801-4.089,2.63L176.844,42.665z M177.391,42.094
		c0.577,0.108,1.662-0.729,2.935-2.133c1.228-1.353,1.771-2.289,1.174-2.4c-0.519-0.097-1.638,0.703-2.888,2.082
		c-1.309,1.426-1.753,2.352-1.228,2.45L177.391,42.094z"/>
</g>
<g>
	<path d="M143.851,45.575c-0.818-0.187-0.427-1.283,1.279-3.038c1.752-1.783,3.314-2.612,4.165-2.419
		c0.875,0.2,0.409,1.31-1.247,2.995c-1.767,1.8-3.277,2.672-4.191,2.463L143.851,45.575z M144.42,45.027
		c0.573,0.131,1.689-0.661,3.017-2.014c1.279-1.303,1.861-2.217,1.271-2.353c-0.516-0.117-1.666,0.638-2.97,1.965
		c-1.364,1.373-1.846,2.281-1.324,2.399L144.42,45.027z"/>
	<path d="M151.68,41.588l-0.013-0.003l-1.216,0.331l0.427-0.57l1.522-0.411l0.482,0.11l-5.198,5.294l-0.548-0.125L151.68,41.588z"/>
	<path d="M150.455,47.082c-0.817-0.188-0.426-1.284,1.281-3.038c1.752-1.783,3.314-2.613,4.164-2.419
		c0.875,0.199,0.408,1.309-1.246,2.995c-1.768,1.8-3.277,2.671-4.192,2.463L150.455,47.082z M151.025,46.533
		c0.573,0.131,1.689-0.661,3.017-2.014c1.279-1.302,1.861-2.217,1.27-2.352c-0.515-0.118-1.666,0.637-2.969,1.964
		c-1.364,1.374-1.847,2.281-1.324,2.399L151.025,46.533z"/>
	<path d="M158.284,43.095l-0.013-0.003l-1.215,0.331l0.428-0.571l1.521-0.41l0.483,0.109l-5.199,5.295l-0.545-0.126L158.284,43.095z
		"/>
	<path d="M157.059,48.586c-0.817-0.186-0.425-1.284,1.28-3.036c1.752-1.784,3.315-2.614,4.164-2.42
		c0.876,0.199,0.409,1.309-1.246,2.994c-1.767,1.8-3.277,2.673-4.191,2.464L157.059,48.586z M157.629,48.039
		c0.573,0.131,1.689-0.661,3.018-2.014c1.278-1.303,1.861-2.217,1.268-2.351c-0.515-0.118-1.665,0.636-2.968,1.963
		c-1.364,1.374-1.846,2.28-1.324,2.4L157.629,48.039z"/>
	<path d="M164.889,44.601l-0.014-0.003l-1.215,0.331l0.427-0.571l1.521-0.41l0.482,0.11l-5.197,5.293l-0.549-0.124L164.889,44.601z"
		/>
	<path d="M163.664,50.092c-0.817-0.186-0.426-1.283,1.281-3.037c1.751-1.783,3.313-2.612,4.163-2.419
		c0.876,0.2,0.41,1.309-1.246,2.995c-1.768,1.8-3.277,2.672-4.191,2.463L163.664,50.092z M164.233,49.545
		c0.574,0.13,1.689-0.662,3.018-2.014c1.28-1.303,1.861-2.218,1.27-2.353c-0.516-0.117-1.666,0.638-2.969,1.965
		c-1.365,1.373-1.847,2.28-1.324,2.399L164.233,49.545z"/>
	<path d="M171.494,46.107l-0.014-0.004l-1.215,0.332l0.426-0.57l1.522-0.411l0.483,0.109l-5.198,5.294l-0.548-0.124L171.494,46.107z
		"/>
	<path d="M170.268,51.599c-0.817-0.187-0.426-1.284,1.281-3.037c1.751-1.783,3.313-2.613,4.163-2.42
		c0.877,0.199,0.41,1.309-1.246,2.995c-1.768,1.8-3.277,2.672-4.191,2.464L170.268,51.599z M170.838,51.051
		c0.572,0.131,1.689-0.662,3.018-2.015c1.279-1.303,1.86-2.216,1.269-2.351c-0.515-0.118-1.665,0.637-2.969,1.964
		c-1.365,1.373-1.846,2.28-1.325,2.399L170.838,51.051z"/>
</g>
<g>
	<path d="M132.832,9.896c-0.607-0.468-0.116-1.688,1.51-3.322c1.667-1.656,3.026-2.207,3.657-1.72c0.649,0.5,0.099,1.714-1.477,3.28
		c-1.683,1.671-3.008,2.289-3.686,1.766L132.832,9.896z M133.368,9.396c0.425,0.328,1.431-0.307,2.693-1.563
		c1.218-1.21,1.826-2.152,1.387-2.49c-0.381-0.295-1.407,0.286-2.647,1.518c-1.296,1.271-1.825,2.234-1.438,2.533L133.368,9.396z"/>
	<path d="M139.613,7.346l-0.01-0.007l-1.005,0.046l0.429-0.57l1.258-0.053l0.358,0.277l-4.947,4.917l-0.408-0.313L139.613,7.346z"/>
	<path d="M137.732,13.675c-0.605-0.469-0.116-1.689,1.511-3.323c1.667-1.656,3.026-2.207,3.657-1.72
		c0.649,0.5,0.099,1.714-1.477,3.281c-1.682,1.671-3.008,2.287-3.687,1.765L137.732,13.675z M138.269,13.175
		c0.425,0.327,1.43-0.307,2.693-1.564c1.218-1.209,1.825-2.152,1.386-2.49c-0.381-0.295-1.406,0.286-2.646,1.518
		c-1.296,1.272-1.824,2.235-1.437,2.532L138.269,13.175z"/>
	<path d="M144.513,11.125l-0.01-0.007l-1.004,0.044l0.43-0.569l1.255-0.053l0.359,0.276l-4.948,4.918l-0.404-0.314L144.513,11.125z"
		/>
	<path d="M142.632,17.453c-0.605-0.468-0.114-1.688,1.511-3.321c1.668-1.658,3.027-2.208,3.657-1.721
		c0.65,0.501,0.1,1.714-1.477,3.28c-1.682,1.671-3.007,2.289-3.686,1.766L142.632,17.453z M143.17,16.954
		c0.426,0.327,1.43-0.31,2.694-1.565c1.216-1.21,1.825-2.151,1.385-2.489c-0.382-0.294-1.407,0.285-2.647,1.518
		c-1.295,1.271-1.823,2.233-1.438,2.532L143.17,16.954z"/>
	<path d="M149.415,14.903l-0.01-0.007l-1.004,0.045l0.429-0.569l1.258-0.05l0.357,0.275l-4.947,4.917L145.09,19.2L149.415,14.903z"
		/>
</g>
<g>
	<path d="M125.581,17.396c-0.61-0.471-0.124-1.684,1.499-3.301c1.663-1.638,3.023-2.177,3.658-1.687
		c0.654,0.505,0.108,1.711-1.464,3.26c-1.679,1.653-3.006,2.259-3.688,1.732L125.581,17.396z M126.117,16.902
		c0.428,0.331,1.433-0.295,2.693-1.538c1.216-1.196,1.82-2.131,1.379-2.472c-0.384-0.297-1.41,0.274-2.648,1.493
		c-1.293,1.258-1.818,2.213-1.429,2.514L126.117,16.902z"/>
	<path d="M132.369,14.907l-0.009-0.007l-1.008,0.038l0.428-0.564l1.261-0.042l0.36,0.28l-4.938,4.863l-0.41-0.315L132.369,14.907z"
		/>
	<path d="M130.513,21.204c-0.609-0.472-0.124-1.686,1.5-3.301c1.663-1.638,3.024-2.177,3.658-1.686
		c0.654,0.504,0.108,1.709-1.465,3.26c-1.678,1.653-3.004,2.257-3.688,1.73L130.513,21.204z M131.05,20.709
		c0.428,0.331,1.433-0.295,2.693-1.538c1.215-1.197,1.82-2.132,1.378-2.472c-0.384-0.298-1.409,0.273-2.647,1.492
		c-1.294,1.258-1.818,2.215-1.429,2.515L131.05,20.709z"/>
	<path d="M137.302,18.715l-0.01-0.007l-1.007,0.037l0.428-0.564l1.259-0.042l0.361,0.278l-4.938,4.865l-0.407-0.316L137.302,18.715z
		"/>
	<path d="M135.447,25.009c-0.61-0.472-0.123-1.684,1.498-3.299c1.665-1.641,3.026-2.178,3.659-1.688
		c0.655,0.505,0.108,1.711-1.464,3.259c-1.679,1.653-3.005,2.259-3.688,1.732L135.447,25.009z M135.983,24.516
		c0.429,0.33,1.433-0.297,2.694-1.54c1.215-1.197,1.82-2.131,1.377-2.471c-0.385-0.297-1.409,0.273-2.647,1.493
		c-1.293,1.256-1.817,2.213-1.429,2.514L135.983,24.516z"/>
	<path d="M142.236,22.521l-0.01-0.007l-1.008,0.037l0.428-0.564l1.261-0.041l0.36,0.277l-4.938,4.864l-0.41-0.315L142.236,22.521z"
		/>
</g>
<g>
	<path d="M119.389,24.741c-0.583-0.51-0.05-1.707,1.626-3.245c1.716-1.558,3.084-2.023,3.691-1.492
		c0.624,0.547,0.032,1.732-1.591,3.205c-1.732,1.571-3.07,2.108-3.722,1.537L119.389,24.741z M119.939,24.273
		c0.409,0.357,1.43-0.216,2.73-1.397c1.254-1.139,1.893-2.047,1.471-2.417c-0.367-0.322-1.406,0.197-2.683,1.355
		c-1.333,1.194-1.896,2.129-1.522,2.455L119.939,24.273z"/>
	<path d="M126.208,22.617l-0.009-0.008l-0.998-0.02l0.447-0.545l1.249,0.029l0.344,0.302L122.147,27l-0.392-0.342L126.208,22.617z"
		/>
	<path d="M124.099,28.864c-0.582-0.511-0.049-1.708,1.626-3.246c1.716-1.558,3.085-2.023,3.691-1.493
		c0.624,0.546,0.032,1.731-1.591,3.205c-1.732,1.572-3.069,2.106-3.722,1.536L124.099,28.864z M124.651,28.395
		c0.409,0.357,1.429-0.215,2.729-1.398c1.254-1.138,1.893-2.047,1.471-2.415c-0.367-0.322-1.405,0.195-2.682,1.354
		c-1.335,1.196-1.896,2.13-1.523,2.455L124.651,28.395z"/>
	<path d="M130.919,26.74l-0.01-0.008l-0.997-0.02l0.449-0.545l1.245,0.029l0.345,0.302l-5.094,4.627l-0.389-0.343L130.919,26.74z"/>
	<path d="M128.81,32.985c-0.583-0.51-0.048-1.706,1.626-3.243c1.716-1.559,3.087-2.024,3.69-1.493
		c0.626,0.546,0.033,1.731-1.59,3.204c-1.731,1.572-3.069,2.107-3.721,1.536L128.81,32.985z M129.363,32.518
		c0.408,0.357,1.428-0.218,2.73-1.399c1.252-1.139,1.893-2.046,1.469-2.414c-0.367-0.322-1.405,0.194-2.683,1.354
		c-1.332,1.194-1.894,2.129-1.522,2.455L129.363,32.518z"/>
	<path d="M135.63,30.862l-0.009-0.007l-0.998-0.02l0.448-0.545l1.248,0.031l0.344,0.299l-5.094,4.625l-0.392-0.342L135.63,30.862z"
		/>
	<path d="M133.521,37.106c-0.582-0.509-0.048-1.705,1.627-3.244c1.717-1.558,3.084-2.021,3.69-1.493
		c0.624,0.547,0.033,1.732-1.591,3.204c-1.731,1.575-3.069,2.109-3.722,1.538L133.521,37.106z M134.074,36.641
		c0.409,0.357,1.429-0.218,2.729-1.4c1.254-1.137,1.893-2.045,1.472-2.415c-0.369-0.322-1.406,0.196-2.684,1.354
		c-1.335,1.196-1.895,2.13-1.522,2.456L134.074,36.641z"/>
	<path d="M139.729,34.97l-0.395-0.013l0.448-0.545L139.729,34.97z M139.384,36.594l-3.275,2.945l-0.391-0.341l3.753-3.408
		L139.384,36.594z"/>
	<path d="M138.807,41.451c-0.314,0.028-0.574-0.043-0.771-0.215l-0.006-0.004c-0.519-0.453-0.154-1.45,1.111-2.746l-0.097,0.896
		c-0.546,0.664-0.718,1.159-0.469,1.377l0.006,0.006c0.07,0.062,0.159,0.095,0.264,0.103L138.807,41.451z"/>
</g>
<linearGradient id="SVGID_6_" gradientUnits="userSpaceOnUse" x1="136.6299" y1="63.4243" x2="186.11" y2="63.4243">
	<stop  offset="0" style="stop-color:#FFD773"/>
	<stop  offset="0.0194" style="stop-color:#FFD56F"/>
	<stop  offset="0.1875" style="stop-color:#FFC751"/>
	<stop  offset="0.3639" style="stop-color:#FEBC38"/>
	<stop  offset="0.5499" style="stop-color:#FCB525"/>
	<stop  offset="0.7521" style="stop-color:#FCB11A"/>
	<stop  offset="1" style="stop-color:#FCAF17"/>
</linearGradient>
<path fill="url(#SVGID_6_)" d="M175.232,61.302c3.776-1.738,9.154-4.357,10.56-7.684c1.404-3.326-0.186-5.4-3.166-7.667
	c-2.981-2.266-8.615-2.4-11.539-1.693c-2.924,0.707-4.311,2.498-4.311,2.498c0.924,0.669,3.178,2.255,7.228,2.297
	c4.049,0.042,5.337-1.744,5.337-1.744s2.583,2.198,1.805,4.316c-0.776,2.119-2.43,2.572-4.938,3.706
	c-2.507,1.134-9.574,4.15-9.574,4.15l-13.053,5.479c0,0-12.119,4.518-14.79,7.101c-3.46,3.347-3.455,4.568-3.147,10.909
	c0,0,1.5-3.459,4.812-5.755s11.111-5.24,13.443-6.276C156.334,69.857,165.75,65.666,175.232,61.302z"/>
</svg>
