<?xml version="1.0" encoding="utf-8"?>
<!-- Generator: Adobe Illustrator 12.0.1, SVG Export Plug-In . SVG Version: 6.00 Build 51448)  -->
<!DOCTYPE svg PUBLIC "-//W3C//DTD SVG 1.0//EN" "http://www.w3.org/TR/2001/REC-SVG-20010904/DTD/svg10.dtd" [
	<!ENTITY ns_svg "http://www.w3.org/2000/svg">
	<!ENTITY ns_xlink "http://www.w3.org/1999/xlink">
]>
<svg  version="1.0" id="Layer_1" xmlns="&ns_svg;" xmlns:xlink="&ns_xlink;" width="510.801" height="98.415"
	 viewBox="0 0 510.801 98.415" overflow="visible" enable-background="new 0 0 510.801 98.415" xml:space="preserve"><g><g><g><path d="M139.573,53.304h-6.542l3.136-14.176h0.09L139.573,53.304z M129.805,65.618l1.862-7.27h9.36l1.817,7.27h7.227
				l-8.908-32.807h-9.042l-9.087,32.807H129.805z"/>
        <path d="M158.704,54.849c0-6.997,0.412-8.677,2.817-8.677c2.362,0,2.588,2.862,2.588,7.906c0,4.863-0.317,7.27-2.631,7.27
				C158.388,61.347,158.704,56.985,158.704,54.849z M164.429,42.669v2.683h-0.092c-0.908-2.137-2.859-3.135-5.135-3.135
				c-6.678,0-6.768,6.407-6.768,11.45c0,5.18-0.32,11.635,6.725,11.635c2.089,0,3.907-0.908,4.864-2.684h0.087v4.406
				c0,2.318-0.771,3.816-2.362,3.816c-0.996,0-1.724-0.316-2.135-0.91c-0.41-0.545-0.545-1.357-0.545-2.313h-6.27
				c0.139,5.586,4.223,6.814,8.995,6.814c8.815,0,8.724-6.27,8.724-7.859V42.669H164.429z"/>
        <path d="M182.646,65.618h-6.405V42.669h6.405V65.618z M182.646,32.811v5.045h-6.405v-5.045H182.646z"/>
        <path d="M195.282,32.811v32.807h-6.409V32.811H195.282z"/>
        <path d="M206.641,51.579c0-1.955-0.047-5.407,2.907-5.407c3.042,0,2.956,3.181,2.956,5.407H206.641z M218.908,55.169
				c0.227-7.362-0.727-12.952-9.36-12.952c-8.45,0-9.358,5.363-9.358,11.631c0,7.178,1.09,12.223,9.358,12.223
				c2.999,0,5.271-0.818,6.771-2.225c1.542-1.41,2.362-3.453,2.451-5.953h-6.495c0,1.908-0.456,4.09-2.728,4.09
				c-2.816,0-2.907-4.09-2.907-6.814H218.908z"/>
        <path d="M229.859,44.99h0.09c0.637-1.045,1.412-1.726,2.273-2.138c0.908-0.453,1.952-0.635,3.137-0.635
				c3.042,0,5.723,1.817,5.723,4.999v18.402h-6.406V49.805c0-2.044-0.363-3.634-2.406-3.634c-2.047,0-2.41,1.59-2.41,3.634v15.813
				h-6.408V42.669h6.408V44.99z"/>
        <path d="M244.489,42.669h2.589v-3.634l6.408-2.863v6.497h3.318v3.956h-3.318v12.268c0,1.727-0.047,2.859,2.045,2.859
				c0.408,0,0.816,0,1.135-0.088v3.953c-0.863,0.09-1.773,0.229-3.314,0.229c-5.547,0-6.273-3.682-6.273-5.09V46.625h-2.589V42.669z
				"/>
      </g>
      <g><path d="M289.656,32.811v5.453h-7.637v27.354h-6.859V38.264h-7.633v-5.453H289.656z"/>
        <path d="M294.426,51.579c0-1.955-0.043-5.407,2.906-5.407c3.047,0,2.953,3.181,2.953,5.407H294.426z M306.693,55.169
				c0.229-7.362-0.727-12.952-9.361-12.952c-8.449,0-9.357,5.363-9.357,11.631c0,7.178,1.09,12.223,9.357,12.223
				c3,0,5.271-0.818,6.77-2.225c1.545-1.41,2.367-3.453,2.457-5.953h-6.5c0,1.908-0.453,4.09-2.727,4.09
				c-2.816,0-2.906-4.09-2.906-6.814H306.693z"/>
        <path d="M322.777,50.852c0-3.408-0.863-4.545-2.861-4.545c-2.727,0-2.955,2.408-2.955,7.18c0,6.994,0.592,8.496,2.955,8.496
				c1.998,0,2.953-1.816,2.953-4.816h6.406c0,6.221-3.361,8.904-9.359,8.904c-8.27,0-9.359-5.045-9.359-12.223
				c0-6.268,0.908-11.631,9.359-11.631c5.908,0,9.27,2.637,9.27,8.635H322.777z"/>
        <path d="M345.043,65.618V49.805c0-2.044-0.361-3.634-2.408-3.634s-2.41,1.59-2.41,3.634v15.813h-6.404V32.811h6.404V44.99h0.092
				c0.635-1.045,1.408-1.726,2.275-2.138c0.908-0.453,1.951-0.635,3.133-0.635c3.045,0,5.725,1.817,5.725,4.999v18.402H345.043z"/>
        <path d="M362.945,44.99h0.092c0.637-1.045,1.406-1.726,2.271-2.138c0.908-0.453,1.953-0.635,3.133-0.635
				c3.047,0,5.727,1.817,5.727,4.999v18.402h-6.406V49.805c0-2.044-0.361-3.634-2.41-3.634c-2.043,0-2.406,1.59-2.406,3.634v15.813
				h-6.406V42.669h6.406V44.99z"/>
        <path d="M388.074,61.983c-2.361,0-2.957-1.502-2.957-8.496c0-4.772,0.232-7.18,2.957-7.18s2.953,2.408,2.953,7.18
				C391.027,60.481,390.438,61.983,388.074,61.983z M388.074,66.071c8.27,0,9.359-5.045,9.359-12.223
				c0-6.268-0.91-11.631-9.359-11.631c-8.451,0-9.363,5.363-9.363,11.631C378.711,61.026,379.805,66.071,388.074,66.071z"/>
        <path d="M408.701,32.811v32.807h-6.406V32.811H408.701z"/>
        <path d="M422.969,61.983c-2.361,0-2.955-1.502-2.955-8.496c0-4.772,0.229-7.18,2.955-7.18s2.955,2.408,2.955,7.18
				C425.924,60.481,425.332,61.983,422.969,61.983z M422.969,66.071c8.27,0,9.361-5.045,9.361-12.223
				c0-6.268-0.91-11.631-9.361-11.631c-8.449,0-9.361,5.363-9.361,11.631C413.607,61.026,414.699,66.071,422.969,66.071z"/>
        <path d="M442.371,54.849c0-6.997,0.408-8.677,2.816-8.677c2.363,0,2.59,2.862,2.59,7.906c0,4.863-0.318,7.27-2.637,7.27
				C442.053,61.347,442.371,56.985,442.371,54.849z M448.098,42.669v2.683h-0.092c-0.91-2.137-2.865-3.135-5.137-3.135
				c-6.678,0-6.768,6.407-6.768,11.45c0,5.18-0.32,11.635,6.725,11.635c2.09,0,3.906-0.908,4.859-2.684h0.092v4.406
				c0,2.318-0.771,3.816-2.363,3.816c-0.998,0-1.727-0.316-2.135-0.91c-0.41-0.545-0.545-1.357-0.545-2.313h-6.27
				c0.135,5.586,4.223,6.814,8.996,6.814c8.814,0,8.725-6.27,8.725-7.859V42.669H448.098z"/>
        <path d="M466.318,65.618h-6.408V42.669h6.408V65.618z M466.318,32.811v5.045h-6.408v-5.045H466.318z"/>
        <path d="M483.537,51.579c0-2.227,0.09-5.407-2.951-5.407c-2.955,0-2.908,3.452-2.908,5.407H483.537z M477.678,55.169
				c0,2.725,0.09,6.814,2.908,6.814c2.271,0,2.727-2.182,2.727-4.09h6.494c-0.092,2.5-0.91,4.543-2.453,5.953
				c-1.498,1.406-3.77,2.225-6.768,2.225c-8.27,0-9.361-5.045-9.361-12.223c0-6.268,0.908-11.631,9.361-11.631
				c8.631,0,9.582,5.59,9.357,12.952H477.678z"/>
        <path d="M499.533,58.257c-0.047,1.047,0,2.043,0.316,2.77c0.365,0.727,1.047,1.09,2.318,1.09s2.363-0.813,2.363-2.363
				c0-4.857-11.273-3.768-11.273-11.083c0-4.953,4.912-6.453,9.045-6.453c4.361,0,8.318,2.09,7.955,7.044h-6.273
				c0-1.591-0.18-2.545-0.635-2.954c-0.41-0.408-0.955-0.5-1.635-0.5c-1.412,0-2.182,0.909-2.182,2.454
				c0,3.634,11.268,3.453,11.268,10.814c0,3.998-3.27,6.996-8.588,6.996c-5.59,0-9.318-1.41-8.955-7.814H499.533z"/>
      </g>
    </g>
    <g><g><path fill="#00A1E4" d="M53.626,33.302c0,2.459-1.991,4.446-4.443,4.446s-4.442-1.987-4.442-4.446
				c0-2.451,1.99-4.437,4.442-4.437S53.626,30.851,53.626,33.302z"/>
        <path fill="#00A1E4" d="M52.249,20.622c0,1.695-1.374,3.07-3.066,3.07c-1.7,0-3.067-1.375-3.067-3.07
				c0-1.688,1.367-3.061,3.067-3.061C50.875,17.561,52.249,18.933,52.249,20.622z"/>
        <path fill="#00A1E4" d="M51.224,10.324c0,1.127-0.916,2.041-2.041,2.041c-1.131,0-2.039-0.914-2.039-2.041
				c0-1.122,0.908-2.044,2.039-2.044C50.308,8.28,51.224,9.202,51.224,10.324z"/>
        <path fill="#00A1E4" d="M50.448,1.269c0,0.695-0.572,1.266-1.266,1.266c-0.694,0-1.274-0.57-1.274-1.266
				C47.908,0.56,48.488,0,49.183,0C49.876,0,50.448,0.56,50.448,1.269z"/>
      </g>
      <g><path fill="#00A1E4" d="M65.104,53.64c-2.45,0-4.454-1.989-4.454-4.441c0-2.453,2.004-4.434,4.454-4.434
				c2.453,0,4.434,1.98,4.434,4.434C69.537,51.651,67.557,53.64,65.104,53.64z"/>
        <path fill="#00A1E4" d="M77.779,52.263c-1.693,0-3.071-1.375-3.071-3.064c0-1.69,1.378-3.067,3.071-3.067
				s3.072,1.377,3.072,3.067C80.852,50.887,79.473,52.263,77.779,52.263z"/>
        <path fill="#00A1E4" d="M88.082,51.234c-1.134,0-2.038-0.906-2.038-2.035c0-1.131,0.904-2.045,2.038-2.045
				c1.129,0,2.051,0.914,2.051,2.045C90.133,50.328,89.211,51.234,88.082,51.234z"/>
        <path fill="#00A1E4" d="M97.146,50.466c-0.702,0-1.27-0.57-1.27-1.268c0-0.703,0.567-1.278,1.27-1.278
				c0.693,0,1.271,0.575,1.271,1.278C98.417,49.896,97.84,50.466,97.146,50.466z"/>
      </g>
      <g><path fill="#00A1E4" d="M44.74,65.093c0-2.445,1.99-4.428,4.442-4.428s4.443,1.982,4.443,4.428c0,2.455-1.991,4.451-4.443,4.451
				S44.74,67.548,44.74,65.093z"/>
        <path fill="#00A1E4" d="M46.115,77.778c0-1.689,1.367-3.066,3.067-3.066c1.692,0,3.066,1.377,3.066,3.066
				c0,1.691-1.374,3.066-3.066,3.066C47.482,80.845,46.115,79.47,46.115,77.778z"/>
        <path fill="#00A1E4" d="M47.144,88.081c0-1.129,0.908-2.043,2.039-2.043c1.125,0,2.041,0.914,2.041,2.043
				c0,1.133-0.916,2.043-2.041,2.043C48.052,90.124,47.144,89.214,47.144,88.081z"/>
        <path fill="#00A1E4" d="M47.908,97.14c0-0.695,0.58-1.27,1.279-1.27c0.688,0,1.261,0.574,1.261,1.27
				c0,0.699-0.572,1.275-1.261,1.275C48.488,98.415,47.908,97.839,47.908,97.14z"/>
      </g>
      <g><path fill="#00A1E4" d="M33.311,44.765c2.456,0,4.45,1.98,4.45,4.434c0,2.452-1.994,4.441-4.45,4.441
				c-2.451,0-4.44-1.989-4.44-4.441C28.87,46.746,30.859,44.765,33.311,44.765z"/>
        <path fill="#00A1E4" d="M20.635,46.131c1.693,0,3.068,1.377,3.068,3.067c0,1.688-1.375,3.064-3.068,3.064s-3.07-1.375-3.07-3.064
				C17.564,47.508,18.941,46.131,20.635,46.131z"/>
        <path fill="#00A1E4" d="M10.327,47.154c1.131,0,2.042,0.914,2.042,2.045c0,1.129-0.911,2.035-2.042,2.035
				c-1.12,0-2.042-0.906-2.042-2.035C8.285,48.068,9.207,47.154,10.327,47.154z"/>
        <path fill="#00A1E4" d="M1.27,47.92c0.699,0,1.269,0.575,1.269,1.278c0,0.697-0.569,1.268-1.269,1.268S0,49.896,0,49.199
				C0,48.496,0.57,47.92,1.27,47.92z"/>
      </g>
      <g><path fill="#00A1E4" d="M63.555,41.105c-1.734,1.739-4.541,1.739-6.276,0c-1.736-1.731-1.736-4.541,0-6.277
				c1.735-1.732,4.542-1.732,6.276,0C65.291,36.564,65.291,39.374,63.555,41.105z"/>
        <path fill="#00A1E4" d="M71.549,31.171c-1.199,1.194-3.143,1.194-4.333,0c-1.209-1.197-1.209-3.139,0-4.333
				c1.19-1.197,3.134-1.197,4.333,0C72.735,28.033,72.735,29.974,71.549,31.171z"/>
        <path fill="#00A1E4" d="M78.105,23.16c-0.79,0.793-2.09,0.793-2.88,0c-0.806-0.798-0.806-2.088,0-2.883
				c0.79-0.805,2.09-0.805,2.88,0C78.91,21.072,78.91,22.362,78.105,23.16z"/>
        <path fill="#00A1E4" d="M83.977,16.212c-0.507,0.495-1.309,0.495-1.802,0c-0.496-0.497-0.496-1.297,0-1.798
				c0.493-0.5,1.295-0.5,1.802,0C84.471,14.915,84.471,15.715,83.977,16.212z"/>
      </g>
      <g><path fill="#00A1E4" d="M57.295,63.606c-1.734-1.744-1.734-4.545,0-6.281c1.732-1.74,4.539-1.734,6.282,0
				c1.731,1.736,1.731,4.537,0,6.281C61.834,65.337,59.027,65.337,57.295,63.606z"/>
        <path fill="#00A1E4" d="M67.231,71.591c-1.209-1.197-1.209-3.135,0-4.332c1.19-1.191,3.133-1.191,4.335,0
				c1.196,1.197,1.196,3.135,0,4.332C70.364,72.786,68.422,72.786,67.231,71.591z"/>
        <path fill="#00A1E4" d="M75.243,78.151c-0.807-0.797-0.807-2.092,0-2.891c0.787-0.793,2.088-0.793,2.878,0.006
				c0.808,0.793,0.808,2.088,0.005,2.885C77.331,78.954,76.038,78.95,75.243,78.151z"/>
        <path fill="#00A1E4" d="M82.194,84.017c-0.498-0.5-0.498-1.313,0-1.795c0.493-0.506,1.292-0.506,1.804,0
				c0.492,0.482,0.492,1.295,0,1.795C83.486,84.513,82.688,84.513,82.194,84.017z"/>
      </g>
      <g><path fill="#00A1E4" d="M34.793,57.312c1.729-1.74,4.542-1.74,6.267,0c1.737,1.732,1.737,4.541,0,6.287
				c-1.725,1.727-4.538,1.727-6.267,0C33.05,61.853,33.05,59.044,34.793,57.312z"/>
        <path fill="#00A1E4" d="M26.785,67.247c1.2-1.195,3.144-1.201,4.341,0c1.203,1.193,1.203,3.135,0,4.332
				c-1.197,1.193-3.139,1.193-4.341,0C25.6,70.382,25.6,68.44,26.785,67.247z"/>
        <path fill="#00A1E4" d="M20.231,75.257c0.788-0.799,2.095-0.799,2.883,0c0.811,0.799,0.811,2.094,0,2.885
				c-0.788,0.799-2.095,0.799-2.883,0C19.434,77.351,19.434,76.056,20.231,75.257z"/>
        <path fill="#00A1E4" d="M14.367,82.21c0.505-0.506,1.302-0.506,1.793,0c0.501,0.482,0.501,1.301,0,1.793
				c-0.491,0.498-1.288,0.498-1.793,0C13.879,83.511,13.879,82.692,14.367,82.21z"/>
      </g>
      <g><path fill="#00A1E4" d="M41.089,34.839c1.732,1.742,1.737,4.556,0,6.286c-1.734,1.737-4.541,1.737-6.272,0
				c-1.737-1.73-1.737-4.544,0-6.286C36.548,33.108,39.354,33.108,41.089,34.839z"/>
        <path fill="#00A1E4" d="M31.158,26.857c1.194,1.188,1.194,3.135,0,4.329c-1.206,1.2-3.14,1.2-4.346,0
				c-1.193-1.194-1.193-3.142,0-4.329C28.019,25.659,29.952,25.659,31.158,26.857z"/>
        <path fill="#00A1E4" d="M23.141,20.292c0.808,0.797,0.808,2.086,0.003,2.891c-0.79,0.789-2.09,0.789-2.886,0
				c-0.801-0.805-0.801-2.094,0-2.891C21.054,19.491,22.354,19.491,23.141,20.292z"/>
        <path fill="#00A1E4" d="M16.19,14.432c0.501,0.5,0.501,1.3,0,1.8c-0.497,0.5-1.298,0.5-1.799,0c-0.488-0.5-0.488-1.3,0-1.794
				C14.893,13.934,15.693,13.934,16.19,14.432z"/>
      </g>
    </g>
  </g>
</svg>
