<?xml version="1.0" encoding="utf-8"?>
<!-- Generator: Adobe Illustrator 14.0.0, SVG Export Plug-In . SVG Version: 6.00 Build 43363)  -->
<!DOCTYPE svg PUBLIC "-//W3C//DTD SVG 1.1//EN" "http://www.w3.org/Graphics/SVG/1.1/DTD/svg11.dtd">
<svg version="1.1" id="Layer_1" xmlns="http://www.w3.org/2000/svg" xmlns:xlink="http://www.w3.org/1999/xlink" x="0px" y="0px"
	 width="792px" height="612px" viewBox="0 0 792 612" enable-background="new 0 0 792 612" xml:space="preserve">
<rect x="340.863" y="240.944" fill="#023F88" width="88.199" height="91.199"/>
<ellipse fill="#FFFFFF" cx="384.528" cy="286.614" rx="41.17" ry="41.693"/>
<path d="M445.391,332.943v-91.505h24.348l12.232,28.103c4.229,9.096,8.688,21.316,12.116,32.041h0.343
	c-1.143-12.083-1.599-24.844-1.599-38.557v-21.587h18.861v91.505h-21.72l-13.032-30.412c-4.344-9.774-9.372-21.994-13.032-33.125
	h-0.34c0.457,12.354,0.686,26.202,0.686,41v22.537L445.391,332.943L445.391,332.943z"/>
<path d="M586.57,330.635c-2.971,1.631-10.173,3.802-19.432,3.802c-28.807,0-41.496-21.448-41.496-45.752
	c0-32.311,19.891-48.738,42.869-48.738c8.915,0,16.117,2.037,19.318,4.072l-4.002,19.279c-3.43-1.63-8.115-3.259-14.289-3.259
	c-11.888,0-22.176,8.282-22.176,27.018c0,16.7,8.344,27.019,22.52,27.019c5.03,0,10.63-1.224,13.83-2.719L586.57,330.635z"/>
<path d="M621.214,241.438v91.505h-20.688v-91.505H621.214z"/>
<path d="M638.25,242.66c4.688-0.95,14.861-1.899,24.35-1.899c10.973,0,17.49,0.814,23.548,4.48
	c5.944,3.258,10.403,9.911,10.403,18.735c0,7.739-3.545,15.206-12.576,19.278v0.272c9.488,3.123,15.09,11.405,15.09,22.265
	c0,8.554-3.428,15.342-8.572,19.959c-5.832,5.156-15.432,8.281-31.893,8.281c-9.375,0-16.119-0.814-20.348-1.631v-89.74H638.25z
	 M658.711,276.602h4.117c8.801,0,13.031-3.665,13.031-9.503c0-5.431-3.43-8.825-10.401-8.825c-3.431,0-5.374,0.272-6.747,0.543
	V276.602z M658.711,315.701c1.488,0.271,3.316,0.271,5.945,0.271c6.859,0,12.688-3.257,12.688-11.268
	c0-7.738-5.943-10.725-13.716-10.725h-4.917V315.701z"/>
<path d="M733.939,241.438v91.505h-20.691v-91.505H733.939z"/>
<rect x="57.769" y="240.944" fill="#023F88" width="88.2" height="91.199"/>
<rect x="151.369" y="240.944" fill="#023F88" width="88.2" height="91.199"/>
<rect x="246.168" y="240.944" fill="#023F88" width="88.2" height="91.199"/>
<path fill="#FFFFFF" d="M104.729,329.981l-0.389-0.201c-13.14-9.749-30.932-33.549-34.323-57.921
	c-1.349-9.696,0.054-19.99,2.23-28.717h24.681c3.149,3.627,6.668,7.604,9.964,11.552c9.113,10.914,14.093,25.43,15.789,33.377
	c1.696,7.948-1.271,39.206-1.378,39.843c0.432,0.274,1.523,1.477,2.691,2.067L104.729,329.981L104.729,329.981z M110.073,320.71
	c0,0,1.166-10.704,1.166-11.551c0,0.318-6.464,7.417-6.464,7.417L110.073,320.71z M100.749,312.762l11.549-11.232
	c0,0,1.06-7.418,0.848-11.55l-21.51,13.563C91.635,303.542,99.265,311.489,100.749,312.762z M111.45,276.204
	c0,0-29.246,11.232-29.563,11.444c1.059,3.604,6.04,11.551,6.04,11.551l25.007-13.776C113.357,280.02,111.45,276.204,111.45,276.204
	z M101.278,262.642l-22.781,4.026c-1.272,5.829,1.694,15.895,1.694,15.895l29.247-9.961
	C108.06,270.271,101.278,262.642,101.278,262.642z M78.814,261.369l19.073-2.331c0,0-5.828-6.993-9.218-9.431
	c-0.954-0.211-7.629-0.319-7.629-0.319S78.92,259.779,78.814,261.369z"/>
<path d="M57.526,366.037v-18.678h4.488l3.53,6.845c1.009,1.967,1.991,4.294,2.773,6.401h0.051c-0.227-2.467-0.302-4.988-0.302-7.815
	v-5.432h3.529v18.679h-4.034l-3.63-7.207c-1.009-1.994-2.143-4.405-2.949-6.596h-0.101c0.126,2.494,0.176,5.127,0.176,8.176v5.627
	H57.526L57.526,366.037z"/>
<path d="M86.436,362.767c0,1.274,0.05,2.522,0.202,3.271h-3.454l-0.227-1.358h-0.076c-0.806,1.081-2.068,1.663-3.529,1.663
	c-2.497,0-3.985-1.995-3.985-4.156c0-3.52,2.874-5.184,7.236-5.184v-0.164c0-0.75-0.353-1.775-2.244-1.775
	c-1.26,0-2.597,0.47-3.403,1.025l-0.706-2.718c0.857-0.526,2.546-1.218,4.791-1.218c4.109,0,5.396,2.659,5.396,5.874V362.767
	L86.436,362.767z M82.73,359.636c-2.017,0-3.581,0.525-3.581,2.134c0,1.078,0.656,1.605,1.513,1.605c0.933,0,1.74-0.691,1.993-1.552
	c0.05-0.222,0.076-0.472,0.076-0.721V359.636z"/>
<path d="M94.951,348.827v3.657h2.749v3.105h-2.749v4.902c0,1.635,0.378,2.385,1.513,2.385c0.53,0,0.781-0.029,1.135-0.111
	l0.025,3.188c-0.479,0.193-1.412,0.359-2.472,0.359c-1.235,0-2.269-0.471-2.899-1.164c-0.706-0.804-1.06-2.105-1.06-4.019v-5.542
	h-1.638v-3.104h1.638v-2.521L94.951,348.827z"/>
<path d="M105.257,348.717c0,1.163-0.781,2.105-2.067,2.105c-1.211,0-1.992-0.942-1.992-2.105c0-1.191,0.806-2.106,2.043-2.106
	C104.477,346.61,105.231,347.524,105.257,348.717z M101.298,366.037v-13.553h3.832v13.553H101.298z"/>
<path d="M121.768,359.109c0,4.961-3.203,7.232-6.505,7.232c-3.606,0-6.379-2.605-6.379-6.984c0-4.405,2.621-7.205,6.605-7.205
	C119.246,352.152,121.768,355.008,121.768,359.109z M112.842,359.247c0,2.327,0.882,4.073,2.521,4.073
	c1.514,0,2.446-1.635,2.446-4.102c0-1.996-0.706-4.045-2.446-4.045C113.547,355.174,112.842,357.252,112.842,359.247z"/>
<path d="M125.515,356.809c0-1.69-0.051-3.104-0.101-4.324h3.328l0.176,1.885h0.076c0.505-0.886,1.74-2.189,3.807-2.189
	c2.521,0,4.412,1.856,4.412,5.848v8.01h-3.833v-7.512c0-1.745-0.555-2.938-1.941-2.938c-1.058,0-1.689,0.804-1.966,1.579
	c-0.101,0.278-0.127,0.665-0.127,1.055v7.815h-3.833v-9.229H125.515z"/>
<path d="M151.931,362.767c0,1.274,0.05,2.522,0.202,3.271h-3.454l-0.227-1.358h-0.076c-0.807,1.081-2.069,1.663-3.53,1.663
	c-2.497,0-3.984-1.995-3.984-4.156c0-3.52,2.874-5.184,7.236-5.184v-0.164c0-0.75-0.353-1.775-2.244-1.775
	c-1.26,0-2.597,0.47-3.404,1.025l-0.706-2.718c0.857-0.526,2.546-1.218,4.791-1.218c4.109,0,5.395,2.659,5.395,5.874V362.767z
	 M148.225,359.636c-2.017,0-3.581,0.525-3.581,2.134c0,1.078,0.656,1.605,1.513,1.605c0.933,0,1.741-0.691,1.993-1.552
	c0.05-0.222,0.076-0.472,0.076-0.721V359.636z"/>
<path d="M156.361,346.361h3.832v19.676h-3.832V346.361z"/>
<path d="M183.734,365.539c-0.682,0.357-2.295,0.803-4.336,0.803c-5.875,0-8.901-4.047-8.901-9.367c0-6.373,4.135-9.893,9.279-9.893
	c1.992,0,3.505,0.415,4.185,0.832l-0.806,3.324c-0.756-0.359-1.841-0.693-3.228-0.693c-3.025,0-5.396,2.024-5.396,6.18
	c0,3.74,2.017,6.096,5.42,6.096c1.185,0,2.446-0.247,3.228-0.608L183.734,365.539z"/>
<path d="M190.003,360.605c0.101,1.745,1.689,2.578,3.479,2.578c1.311,0,2.371-0.193,3.404-0.584l0.505,2.855
	c-1.261,0.582-2.798,0.859-4.463,0.859c-4.185,0-6.581-2.66-6.581-6.899c0-3.438,1.941-7.235,6.227-7.235
	c3.984,0,5.496,3.41,5.496,6.764c0,0.721-0.075,1.357-0.125,1.664h-7.942V360.605z M194.516,357.723
	c0-1.027-0.403-2.744-2.168-2.744c-1.614,0-2.269,1.635-2.37,2.744H194.516z"/>
<path d="M201.745,356.809c0-1.69-0.05-3.104-0.101-4.324h3.328l0.177,1.885h0.076c0.505-0.886,1.74-2.189,3.807-2.189
	c2.521,0,4.412,1.856,4.412,5.848v8.01h-3.833v-7.512c0-1.745-0.555-2.938-1.941-2.938c-1.059,0-1.69,0.804-1.967,1.579
	c-0.101,0.278-0.127,0.665-0.127,1.055v7.815h-3.832v-9.229H201.745z"/>
<path d="M222.033,348.827v3.657h2.749v3.105h-2.749v4.902c0,1.635,0.378,2.385,1.513,2.385c0.529,0,0.782-0.029,1.135-0.111
	l0.025,3.188c-0.479,0.193-1.412,0.359-2.471,0.359c-1.235,0-2.269-0.471-2.9-1.164c-0.706-0.804-1.059-2.105-1.059-4.019v-5.542
	h-1.638v-3.104h1.638v-2.521L222.033,348.827z"/>
<path d="M231.205,360.605c0.101,1.745,1.689,2.578,3.479,2.578c1.311,0,2.37-0.193,3.403-0.584l0.505,2.855
	c-1.261,0.582-2.798,0.859-4.463,0.859c-4.185,0-6.581-2.66-6.581-6.899c0-3.438,1.941-7.235,6.227-7.235
	c3.984,0,5.497,3.41,5.497,6.764c0,0.721-0.076,1.357-0.126,1.664h-7.941V360.605z M235.717,357.723
	c0-1.027-0.403-2.744-2.168-2.744c-1.614,0-2.269,1.635-2.37,2.744H235.717z"/>
<path d="M242.947,356.946c0-1.995-0.026-3.298-0.101-4.462h3.278l0.151,2.494h0.1c0.631-1.995,2.119-2.826,3.329-2.826
	c0.354,0,0.53,0.025,0.806,0.082v3.963c-0.302-0.057-0.604-0.109-1.033-0.109c-1.411,0-2.371,0.83-2.623,2.134
	c-0.05,0.276-0.075,0.608-0.075,0.942v6.873h-3.832V356.946L242.947,356.946z"/>
<path d="M260.839,366.037V355.59h-1.638v-3.104h1.638v-0.527c0-1.635,0.455-3.436,1.538-4.545c0.983-0.996,2.295-1.359,3.43-1.359
	c0.831,0,1.486,0.141,2.017,0.279l-0.151,3.24c-0.327-0.108-0.731-0.193-1.235-0.193c-1.26,0-1.79,1.082-1.79,2.412v0.693h2.47
	v3.104h-2.445v10.448h-3.833V366.037z"/>
<path d="M282.291,359.109c0,4.961-3.203,7.232-6.505,7.232c-3.606,0-6.379-2.605-6.379-6.984c0-4.405,2.622-7.205,6.605-7.205
	C279.769,352.152,282.291,355.008,282.291,359.109z M273.365,359.247c0,2.327,0.882,4.073,2.521,4.073
	c1.514,0,2.446-1.635,2.446-4.102c0-1.996-0.706-4.045-2.446-4.045C274.071,355.174,273.365,357.252,273.365,359.247z"/>
<path d="M286.039,356.946c0-1.995-0.025-3.298-0.101-4.462h3.278l0.151,2.494h0.1c0.631-1.995,2.119-2.826,3.328-2.826
	c0.354,0,0.53,0.025,0.807,0.082v3.963c-0.303-0.057-0.605-0.109-1.033-0.109c-1.412,0-2.371,0.83-2.622,2.134
	c-0.051,0.276-0.076,0.608-0.076,0.942v6.873h-3.832V356.946z"/>
<path d="M307.459,347.359v18.678h-3.833v-18.678H307.459z"/>
<path d="M312.119,356.809c0-1.69-0.05-3.104-0.101-4.324h3.329l0.176,1.885h0.075c0.505-0.886,1.74-2.189,3.807-2.189
	c2.521,0,4.412,1.856,4.412,5.848v8.01h-3.833v-7.512c0-1.745-0.554-2.938-1.941-2.938c-1.059,0-1.689,0.804-1.966,1.579
	c-0.101,0.278-0.127,0.665-0.127,1.055v7.815h-3.832v-9.229H312.119z"/>
<path d="M332.408,348.827v3.657h2.749v3.105h-2.749v4.902c0,1.635,0.378,2.385,1.513,2.385c0.529,0,0.781-0.029,1.135-0.111
	l0.025,3.188c-0.479,0.193-1.412,0.359-2.471,0.359c-1.235,0-2.269-0.471-2.9-1.164c-0.706-0.804-1.059-2.105-1.059-4.019v-5.542
	h-1.638v-3.104h1.638v-2.521L332.408,348.827z"/>
<path d="M341.579,360.605c0.101,1.745,1.689,2.578,3.48,2.578c1.311,0,2.37-0.193,3.403-0.584l0.505,2.855
	c-1.261,0.582-2.798,0.859-4.463,0.859c-4.185,0-6.581-2.66-6.581-6.899c0-3.438,1.941-7.235,6.227-7.235
	c3.985,0,5.497,3.41,5.497,6.764c0,0.721-0.076,1.357-0.126,1.664h-7.941V360.605z M346.092,357.723
	c0-1.027-0.403-2.744-2.168-2.744c-1.614,0-2.269,1.635-2.37,2.744H346.092z"/>
<path d="M364.995,364.068c0,2.605-0.479,4.74-1.891,6.096c-1.336,1.276-3.177,1.664-4.992,1.664c-1.639,0-3.328-0.359-4.438-1.025
	l0.756-3.215c0.782,0.5,2.119,1.027,3.581,1.027c1.815,0,3.202-1.055,3.202-3.576v-0.859h-0.05
	c-0.731,1.108-1.916,1.744-3.328,1.744c-3.051,0-5.219-2.713-5.219-6.595c0-4.378,2.546-7.149,5.597-7.149
	c1.689,0,2.749,0.805,3.378,1.939h0.052l0.126-1.635h3.328c-0.05,0.886-0.101,2.023-0.101,4.047L364.995,364.068L364.995,364.068z
	 M361.163,358.001c0-0.249-0.025-0.527-0.076-0.776c-0.278-1.107-1.008-1.855-2.068-1.855c-1.411,0-2.521,1.385-2.521,3.85
	c0,2.023,0.907,3.602,2.496,3.602c1.008,0,1.789-0.719,2.042-1.688c0.101-0.331,0.126-0.774,0.126-1.138V358.001z"/>
<path d="M369.449,356.946c0-1.995-0.025-3.298-0.101-4.462h3.279l0.151,2.494h0.1c0.631-1.995,2.119-2.826,3.329-2.826
	c0.353,0,0.53,0.025,0.806,0.082v3.963c-0.302-0.057-0.604-0.109-1.033-0.109c-1.412,0-2.37,0.83-2.623,2.134
	c-0.05,0.276-0.076,0.608-0.076,0.942v6.873h-3.833V356.946L369.449,356.946z"/>
<path d="M390.396,362.767c0,1.274,0.051,2.522,0.202,3.271h-3.454l-0.228-1.358h-0.075c-0.806,1.081-2.068,1.663-3.53,1.663
	c-2.495,0-3.984-1.995-3.984-4.156c0-3.52,2.874-5.184,7.236-5.184v-0.164c0-0.75-0.353-1.775-2.244-1.775
	c-1.259,0-2.597,0.47-3.404,1.025l-0.705-2.718c0.856-0.526,2.545-1.218,4.79-1.218c4.11,0,5.396,2.659,5.396,5.874V362.767
	L390.396,362.767z M386.69,359.636c-2.016,0-3.581,0.525-3.581,2.134c0,1.078,0.656,1.605,1.513,1.605
	c0.933,0,1.741-0.691,1.992-1.552c0.051-0.222,0.076-0.472,0.076-0.721V359.636z"/>
<path d="M398.91,348.827v3.657h2.75v3.105h-2.75v4.902c0,1.635,0.378,2.385,1.513,2.385c0.53,0,0.781-0.029,1.136-0.111l0.024,3.188
	c-0.478,0.193-1.411,0.359-2.472,0.359c-1.234,0-2.27-0.471-2.899-1.164c-0.704-0.804-1.06-2.105-1.06-4.019v-5.542h-1.638v-3.104
	h1.638v-2.521L398.91,348.827z"/>
<path d="M409.219,348.717c0,1.163-0.783,2.105-2.07,2.105c-1.209,0-1.99-0.942-1.99-2.105c0-1.191,0.805-2.106,2.042-2.106
	C408.437,346.61,409.191,347.524,409.219,348.717z M405.26,366.037v-13.553h3.832v13.553H405.26z"/>
<path d="M416.396,352.484l1.665,6.292c0.302,1.163,0.505,2.216,0.705,3.298h0.077c0.201-1.109,0.402-2.135,0.68-3.298l1.588-6.292
	h4.036l-4.59,13.553h-3.833l-4.486-13.553H416.396z"/>
<path d="M430.861,360.605c0.102,1.745,1.689,2.578,3.479,2.578c1.312,0,2.371-0.193,3.405-0.584l0.504,2.855
	c-1.262,0.582-2.797,0.859-4.463,0.859c-4.185,0-6.58-2.66-6.58-6.899c0-3.438,1.941-7.235,6.227-7.235
	c3.983,0,5.496,3.41,5.496,6.764c0,0.721-0.076,1.357-0.125,1.664h-7.943V360.605z M435.375,357.723
	c0-1.027-0.403-2.744-2.168-2.744c-1.613,0-2.27,1.635-2.369,2.744H435.375z"/>
<path d="M449.207,347.609c1.008-0.195,3.023-0.392,4.967-0.392c2.346,0,3.781,0.249,5.045,1.056
	c1.184,0.692,2.015,1.967,2.015,3.684c0,1.635-0.882,3.161-2.798,3.963v0.057c1.941,0.555,3.379,2.189,3.379,4.573
	c0,1.72-0.705,3.048-1.765,3.99c-1.235,1.081-3.304,1.69-6.683,1.69c-1.891,0-3.303-0.137-4.16-0.277V347.609L449.207,347.609z
	 M453.014,354.758h1.261c2.042,0,3.1-0.916,3.1-2.301c0-1.414-0.982-2.162-2.72-2.162c-0.857,0-1.338,0.057-1.641,0.112V354.758z
	 M453.014,363.044c0.379,0.056,0.832,0.056,1.489,0.056c1.738,0,3.276-0.749,3.276-2.715c0-1.857-1.538-2.605-3.454-2.605h-1.312
	V363.044L453.014,363.044z"/>
<path d="M469.645,348.717c0,1.163-0.78,2.105-2.068,2.105c-1.209,0-1.991-0.942-1.991-2.105c0-1.191,0.807-2.106,2.044-2.106
	C468.865,346.61,469.62,347.524,469.645,348.717z M465.686,366.037v-13.553h3.832v13.553H465.686z"/>
<path d="M486.156,359.109c0,4.961-3.201,7.232-6.507,7.232c-3.605,0-6.378-2.605-6.378-6.984c0-4.405,2.621-7.205,6.607-7.205
	C483.633,352.152,486.156,355.008,486.156,359.109z M477.231,359.247c0,2.327,0.882,4.073,2.521,4.073
	c1.512,0,2.445-1.635,2.445-4.102c0-1.996-0.705-4.045-2.445-4.045C477.936,355.174,477.231,357.252,477.231,359.247z"/>
<path d="M489.903,356.809c0-1.69-0.052-3.104-0.101-4.324h3.252l0.152,1.828h0.074c0.529-0.885,1.641-2.16,3.731-2.16
	c1.614,0,2.85,0.914,3.38,2.328h0.049c0.48-0.719,1.01-1.275,1.613-1.662c0.683-0.416,1.438-0.666,2.345-0.666
	c2.372,0,4.162,1.83,4.162,5.903v7.981h-3.732v-7.371c0-1.969-0.581-3.104-1.815-3.104c-0.906,0-1.514,0.664-1.788,1.469
	c-0.077,0.305-0.128,0.721-0.128,1.08v7.928h-3.732v-7.623c0-1.69-0.554-2.854-1.789-2.854c-0.982,0-1.562,0.831-1.789,1.497
	c-0.127,0.331-0.152,0.721-0.152,1.079v7.898h-3.73L489.903,356.809L489.903,356.809z"/>
<path d="M515.91,360.605c0.102,1.745,1.691,2.578,3.48,2.578c1.312,0,2.369-0.193,3.403-0.584l0.505,2.855
	c-1.261,0.582-2.799,0.859-4.465,0.859c-4.182,0-6.579-2.66-6.579-6.899c0-3.438,1.942-7.235,6.228-7.235
	c3.983,0,5.494,3.41,5.494,6.764c0,0.721-0.074,1.357-0.125,1.664h-7.941V360.605z M520.424,357.723
	c0-1.027-0.404-2.744-2.168-2.744c-1.614,0-2.27,1.635-2.37,2.744H520.424z"/>
<path d="M539.605,346.361v15.629c0,1.523,0.049,3.132,0.1,4.047h-3.404l-0.15-1.969h-0.074c-0.758,1.498-2.271,2.271-3.86,2.271
	c-2.923,0-5.269-2.744-5.269-6.955c-0.025-4.574,2.571-7.234,5.521-7.234c1.538,0,2.698,0.61,3.252,1.524h0.051v-7.317h3.834
	V346.361z M535.771,358.223c0-0.222,0-0.527-0.051-0.777c-0.225-1.106-1.059-2.049-2.242-2.049c-1.766,0-2.648,1.717-2.648,3.851
	c0,2.302,1.034,3.743,2.623,3.743c1.107,0,2.016-0.834,2.243-2.025c0.051-0.305,0.075-0.637,0.075-0.971V358.223z"/>
<path d="M548.017,348.717c0,1.163-0.781,2.105-2.067,2.105c-1.211,0-1.991-0.942-1.991-2.105c0-1.191,0.806-2.106,2.044-2.106
	C547.234,346.61,547.99,347.524,548.017,348.717z M544.059,366.037v-13.553h3.832v13.553H544.059z"/>
<path d="M561.604,365.676c-0.683,0.361-1.969,0.638-3.432,0.638c-3.984,0-6.529-2.688-6.529-6.927c0-3.963,2.471-7.207,7.061-7.207
	c1.008,0,2.117,0.194,2.924,0.527l-0.605,3.131c-0.453-0.221-1.135-0.414-2.145-0.414c-2.016,0-3.327,1.578-3.301,3.795
	c0,2.466,1.512,3.797,3.379,3.797c0.906,0,1.613-0.168,2.194-0.442L561.604,365.676z"/>
<path d="M575.461,362.767c0,1.274,0.053,2.522,0.203,3.271h-3.453l-0.228-1.358h-0.075c-0.807,1.081-2.068,1.663-3.531,1.663
	c-2.494,0-3.982-1.995-3.982-4.156c0-3.52,2.872-5.184,7.234-5.184v-0.164c0-0.75-0.352-1.775-2.242-1.775
	c-1.262,0-2.598,0.47-3.405,1.025l-0.704-2.718c0.855-0.526,2.545-1.218,4.789-1.218c4.109,0,5.395,2.659,5.395,5.874V362.767
	L575.461,362.767z M571.756,359.636c-2.018,0-3.582,0.525-3.582,2.134c0,1.078,0.657,1.605,1.514,1.605
	c0.932,0,1.742-0.691,1.992-1.552c0.052-0.222,0.076-0.472,0.076-0.721V359.636z"/>
<path d="M579.891,346.361h3.834v19.676h-3.834V346.361z"/>
<path d="M598.668,347.359v18.678h-3.832v-18.678H598.668z"/>
<path d="M603.326,356.809c0-1.69-0.049-3.104-0.1-4.324h3.327l0.177,1.885h0.076c0.506-0.886,1.741-2.189,3.808-2.189
	c2.521,0,4.411,1.856,4.411,5.848v8.01h-3.832v-7.512c0-1.745-0.556-2.938-1.942-2.938c-1.058,0-1.689,0.804-1.967,1.579
	c-0.101,0.278-0.127,0.665-0.127,1.055v7.815h-3.833v-9.229H603.326z"/>
<path d="M619.934,366.037V355.59h-1.637v-3.104h1.637v-0.527c0-1.635,0.454-3.436,1.539-4.545c0.982-0.996,2.293-1.359,3.43-1.359
	c0.832,0,1.486,0.141,2.018,0.279l-0.151,3.24c-0.328-0.108-0.73-0.193-1.237-0.193c-1.258,0-1.789,1.082-1.789,2.412v0.693h2.472
	v3.104h-2.448v10.448h-3.832V366.037z"/>
<path d="M641.387,359.109c0,4.961-3.203,7.232-6.506,7.232c-3.605,0-6.379-2.605-6.379-6.984c0-4.405,2.623-7.205,6.605-7.205
	C638.863,352.152,641.387,355.008,641.387,359.109z M632.461,359.247c0,2.327,0.882,4.073,2.521,4.073
	c1.513,0,2.446-1.635,2.446-4.102c0-1.996-0.706-4.045-2.446-4.045C633.167,355.174,632.461,357.252,632.461,359.247z"/>
<path d="M645.135,356.946c0-1.995-0.026-3.298-0.102-4.462h3.278l0.151,2.494h0.1c0.631-1.995,2.118-2.826,3.33-2.826
	c0.352,0,0.528,0.025,0.805,0.082v3.963c-0.303-0.057-0.605-0.109-1.033-0.109c-1.411,0-2.37,0.83-2.621,2.134
	c-0.051,0.276-0.075,0.608-0.075,0.942v6.873h-3.833V356.946L645.135,356.946z"/>
<path d="M656.096,356.809c0-1.69-0.052-3.104-0.102-4.324h3.252l0.15,1.828h0.078c0.529-0.885,1.637-2.16,3.73-2.16
	c1.613,0,2.849,0.914,3.378,2.328h0.052c0.48-0.719,1.009-1.275,1.613-1.662c0.681-0.416,1.438-0.666,2.344-0.666
	c2.373,0,4.162,1.83,4.162,5.903v7.981h-3.731v-7.371c0-1.969-0.581-3.104-1.817-3.104c-0.906,0-1.512,0.664-1.788,1.469
	c-0.075,0.305-0.128,0.721-0.128,1.08v7.928h-3.73v-7.623c0-1.69-0.554-2.854-1.789-2.854c-0.982,0-1.562,0.831-1.791,1.497
	c-0.127,0.331-0.152,0.721-0.152,1.079v7.898h-3.729L656.096,356.809L656.096,356.809z"/>
<path d="M689.415,362.767c0,1.274,0.052,2.522,0.202,3.271h-3.455l-0.226-1.358h-0.077c-0.805,1.081-2.067,1.663-3.529,1.663
	c-2.496,0-3.984-1.995-3.984-4.156c0-3.52,2.875-5.184,7.236-5.184v-0.164c0-0.75-0.354-1.775-2.244-1.775
	c-1.26,0-2.598,0.47-3.402,1.025l-0.707-2.718c0.857-0.526,2.545-1.218,4.792-1.218c4.11,0,5.395,2.659,5.395,5.874V362.767
	L689.415,362.767z M685.708,359.636c-2.017,0-3.579,0.525-3.579,2.134c0,1.078,0.654,1.605,1.512,1.605
	c0.934,0,1.741-0.691,1.994-1.552c0.049-0.222,0.073-0.472,0.073-0.721V359.636z"/>
<path d="M697.928,348.827v3.657h2.75v3.105h-2.75v4.902c0,1.635,0.381,2.385,1.514,2.385c0.53,0,0.783-0.029,1.135-0.111
	l0.025,3.188c-0.479,0.193-1.41,0.359-2.471,0.359c-1.235,0-2.27-0.471-2.898-1.164c-0.707-0.804-1.061-2.105-1.061-4.019v-5.542
	h-1.639v-3.104h1.639v-2.521L697.928,348.827z"/>
<path d="M708.236,348.717c0,1.163-0.781,2.105-2.067,2.105c-1.212,0-1.993-0.942-1.993-2.105c0-1.191,0.808-2.106,2.043-2.106
	C707.455,346.61,708.211,347.524,708.236,348.717z M704.277,366.037v-13.553h3.833v13.553H704.277z"/>
<path d="M721.82,365.676c-0.68,0.361-1.965,0.638-3.428,0.638c-3.984,0-6.531-2.688-6.531-6.927c0-3.963,2.471-7.207,7.059-7.207
	c1.01,0,2.119,0.194,2.926,0.527l-0.605,3.131c-0.453-0.221-1.134-0.414-2.143-0.414c-2.016,0-3.328,1.578-3.303,3.795
	c0,2.466,1.512,3.797,3.379,3.797c0.906,0,1.613-0.168,2.193-0.442L721.82,365.676z"/>
<path d="M725.294,362.378c0.704,0.47,2.167,0.997,3.302,0.997c1.16,0,1.639-0.414,1.639-1.105c0-0.721-0.377-1.055-1.791-1.582
	c-2.569-0.943-3.554-2.465-3.529-4.073c0-2.549,1.969-4.462,5.019-4.462c1.437,0,2.698,0.389,3.454,0.804l-0.656,2.911
	c-0.553-0.334-1.639-0.777-2.674-0.777c-0.932,0-1.463,0.415-1.463,1.081c0,0.667,0.48,0.997,1.994,1.581
	c2.345,0.885,3.303,2.216,3.327,4.184c0,2.549-1.79,4.405-5.321,4.405c-1.613,0-3.049-0.417-3.982-0.97L725.294,362.378z"/>
<path fill="#FFFFFF" d="M276.139,329.836c-0.472-2.393-0.615-3.914-0.615-3.914c-2.404-19.781,19.004-24.601,19.004-24.601
	c1.889,3.327,4.979,9.06,15.97,9.06h0.172c10.991,0,14.082-5.732,15.971-9.06c0,0,2.919,0.777,5.567,3.921v24.593H276.139
	L276.139,329.836z"/>
<ellipse fill="#FFFFFF" cx="310.86" cy="286.758" rx="14.71" ry="18.723"/>
<circle fill="#FFFFFF" cx="174.436" cy="260.468" r="6.278"/>
<circle fill="#FFFFFF" cx="221.454" cy="304.087" r="10.333"/>
<circle fill="#FFFFFF" cx="201.968" cy="276.594" r="8.354"/>
<circle fill="#FFFFFF" cx="171.131" cy="312.209" r="10.334"/>
<polyline fill="none" stroke="#FFFFFF" stroke-width="3.6" points="171.152,312.632 174.696,260.815 201.977,276.698 
	171.145,312.762 "/>
<polyline fill="none" stroke="#FFFFFF" stroke-width="3.6" points="172.378,312.438 221.596,304.353 202.195,276.973 "/>
<path fill="#FFFFFF" d="M259.032,269.826c-1.527-1.706-2.28-4.368-2.28-4.368c-0.449,0.008-5.939-2.113-5.499,3.027
	c0.438,5.137,6.182,8.71,7.893,10.226c3.872,3.428,13.041,4.64,14.11,4.823c1.069,0.184,3.624,0.467,3.612,0.652
	c-0.034,0.533-0.934,0.572-0.934,0.572s-9.896-0.365-18.041-5.163c-8.144-4.796-8.469-10.524-8.877-12.79
	c-0.406-2.267,2.47-4.012,3.686-4.34c1.215-0.329,3.858-0.265,4.275-0.349c0,0,0.302-2.292,2.459-5.54
	c2.157-3.251,6.262-5.512,8.86-6.419c2.597-0.908,7.258-0.333,9.614,0.123c2.357,0.457,7.265,0.114,8.336,0.298
	c-1.494-0.548-2.686-1.673-2.95-2.734c-0.265-1.063,0.892-2.179,1.922-2.52c1.029-0.341,2.796,0.001,3.637,1.363
	c0.841,1.362,2.606,3.419,3.28,3.95c0.673,0.531,2.223,0.783,4.054,1.278c1.831,0.497,3.229,1.896,3.858,2.534
	c0.628,0.639,2.07,1.93,2.07,1.93s2.54,2.184,3.219,3.163c0.681,0.978-0.746,1.666-1,2.133c-0.255,0.468-0.554,1.044-1.41,1.583
	c-0.856,0.541-2.368,0.812-3.961,0.668c-1.594-0.144-2.035,0.31-3.481,0.736c-1.443,0.425-3.183,1.875-3.183,1.875
	s-2.954,1.779-4.672,3.491c-1.076,1.072-1.402,3.114-1.286,3.605c0.117,0.494,1.709,0.637,2.387,0.534
	c0.679-0.103,1.249-0.251,1.785-0.476c0.536-0.225,1.089,0.445,1.677,0.56c0.589,0.114,0.873,0.356,0.399,0.736
	c-0.474,0.378-1.294,0.36-1.294,0.36s0.481,0.069,0.61,0.376c0.129,0.308-1.152,0.482-2.19,0.377
	c-1.037-0.107-1.235,0.065-0.812,0.429c0.424,0.364-0.542,0.859-1.272,0.623c-0.73-0.236-3.753-1.855-4.288-2.264
	c-0.531-0.408-2.429-1.169-3.107-1.067c-0.679,0.105-4.804,0.052-5.593,0.111c-0.235,0.018-4.47-0.402-4.941-0.008l-0.033,0.033
	c0.02,0.505,1.556,0.953,2.243,0.982c0.684,0.028,1.272-0.008,1.843-0.126c0.57-0.117,0.982,0.648,1.538,0.872
	c0.557,0.226,0.787,0.518,0.25,0.799c-0.538,0.281-1.337,0.105-1.337,0.105s0.457,0.161,0.525,0.487
	c0.067,0.325-1.222,0.251-2.22-0.053c-0.996-0.304-1.225-0.171-0.88,0.266c0.344,0.438-0.697,0.739-1.368,0.368
	c-0.672-0.373-3.329-2.544-3.771-3.047c-0.444-0.503-2.248-1.308-2.846-1.644L259.032,269.826z"/>
<path fill="#023F88" d="M425.938,286.391c0.226-1.27-0.329-0.519-1.705-1.605l-0.253,0.178c-0.255,0.081-0.433-0.259-0.602-0.428
	c-2.066-1.973-1.403-0.773-3.029-0.085c-1.031,0.007-3.774,2.62-4.29,0.824c-0.876,0.251-3.658,0.5-1.698-2.679
	c2.482-2.752-1.302-5.232,0.836-8.234c-0.772-2.054,1.45-3.436,1.878-5.32c-1.382-3.511,1.261-7.977-3.114-10.282l-0.854,0.604
	c-0.177-0.17-0.516-0.339-0.435-0.597h-2.06c0.521,0.603,1.036,1.288,1.464,1.626c1.285-0.345,1.979,1.539,2.662,2.481
	c-0.509,1.376-1.111-0.251-1.458,0.006c0.265,0.598,1.723,0.849,1.465,2.055c0.264,1.369-1.111,1.626-1.798,2.061
	c-0.766,0.515-0.081,1.03,0.008,1.626c-0.769,1.803,1.979,2.143,1.809,3.938c-0.767,0.779,0.012,2.833-1.79,2.493
	c-0.86-0.771-2.576-1.708-1.897-2.908c0.17-1.715-1.802-1.199-2.236-2.48c0-0.516,0.773-0.69,0.773-1.207
	c-0.685-0.081-1.804-0.508-1.633-1.45c2.819-2.236-2.066-1.708-1.641-3.938c-0.521-0.943-0.095-1.973,0.422-2.833
	c0-0.685-0.861-1.281-1.295-1.45c2.236,1.707-1.621,1.802-1.443,3.687c-0.862-0.17-1.633-0.421-2.231-1.194
	c0.592-2.744-2.58-1.538-3.523-3.335c-0.609-1.972-0.616-3.944-0.019-5.917c-1.883,0.691-3.942-0.332-5.57-0.413
	c-3.179-0.938-6.263,0.018-9.861,0.024c-1.03-0.34-1.891-1.878-3.261-1.018c-0.339,2.399-1.972-0.164-3.341,0.609
	c-1.363,3.179-5.571,1.984-6.935,5.59c-0.943,0.345-0.943-0.685-1.458-1.023c-0.175-0.603-0.609-1.885,0.422-2.229
	c-1.979-2.224,1.707-2.494,2.216-3.781l-0.771,0.006c-0.585-0.364-1.181-0.427-1.777-0.308l-0.176-1.043
	c11.419-4.647,26.28-4.924,36.683,1.352c15.143,8.423,23.64,24.413,20.877,42.691L425.938,286.391z"/>
<path fill="#023F88" d="M387.386,325.88c-0.258-0.685-1.201-0.083-1.715-0.597c-2.575-1.024-0.698-3.688,0.237-5.321
	c-1.03-0.935,0.854-1.972-0.007-3.084h-0.427c-1.721-2.481-4.979-3.932-4.993-7.443c0.428-0.347,0.772-0.86,1.28-1.036
	c2.312-2.237-1.551-3.077-2.323-4.703c-3.09-1.113-4.303-5.051-7.99-5.296c-2.568-0.171-1.89-3.084-4.125-3.504
	c-0.176-2.23-1.125-4.889-2.671-6.596l-0.257,0.258c-0.082,1.029,1.206,1.964,0.264,2.826c-1.119-0.341-0.521-1.797-1.294-2.481
	c-0.609-2.569,1.445-5.32-1.049-7.374c-0.177-1.456,0.251-2.744,0.421-4.114c-0.094-2.23,3.424-1.295,2.475-3.951
	c1.111-2.06,1.275-4.202,0.585-6.52c2.054-1.206,0.074-2.23,0.155-3.769c-0.257-2.061-1.714-0.258-2.398-1.024
	c-1.118-1.714,1.45-1.294,2.048-2.235c-0.082-0.772,0.426-1.288,1.029-1.891c1.715,1.2,2.82-2.236,4.453-0.184
	c2.834,0.599,0.271,3.519,2.5,3.939c0.691,1.457,3.092,1.281,3.098,3.077c1.884-0.264,3.599,1.019,5.401,1.615
	c1.294,2.054-1.362,3.008-2.048,4.723c0.61,1.282,1.979,1.709,2.412,3.079c2.914-0.177,0.252-2.4,1.018-3.688
	c0.685-1.804,1.973-1.118,3.512-1.294c1.639,2.394,4.723,3.329,6.018,5.81c-1.2,0.434-0.503,3.003-2.306,1.81
	c-0.771,0.087-1.715,0.69-2.061,1.036l0.258-0.176c2.75,1.537-0.678,3.348-1.012,5.32c-2.914,1.809-2.387,6.18-5.728,7.216
	c-0.854,1.201,0.665,2.651,0.495,3.938c-2.398,0.949-1.514-3.749-4.51-3.141c-2.142,1.545-4.221-1.545-5.496,1.539
	c-0.684,0.948,1.376,2.06-0.42,2.663c0,0.597,0,1.288,0.69,1.628c1.458,1.54,1.967-0.265,3.084-1.037
	c0.767-0.691,1.369,0.426,2.054,0.598c0.604,1.022-0.251,1.971-0.42,2.914c0.352,1.456,1.714-0.434,2.235,1.193
	c-0.087,0.604,0.176,1.199-0.169,1.627c0.867,3.944,4.629-0.521,7.203,0.672c0.083-0.604,0.687-0.692,1.201-0.692
	c0.346,0,0.685,0.34,0.602,0.687l0.856-0.862l1.205,1.024c0.678-0.684,1.45-1.117,2.312-1.206c0.515,0.258,0.34,0.772,0.427,1.2
	c3.002,0.765,6.696,1.268,9.61,2.888c-0.428,0.774,0.777,1.37,1.293,2.054c0.429-0.087,1.029,0.17,1.458-0.256
	c0.854-0.178,2.398-0.609,3.083,0.42c0.093,2.23-2.557,3.862-3.499,6.012l1.03,0.768c-1.104,1.891-2.305,3.346-4.101,4.729
	c0.778,1.709-1.195,2.575-2.307,3.348l1.111,1.822c-0.903,0.376-1.812,0.717-2.73,1.011c-3.55,1.269-7.186,2.01-10.814,2.273
	L387.386,325.88z"/>
<path fill="#023F88" d="M383.44,260.298l0.853-1.03c0.347,1.023-1.965,3.091,0.015,4.114c1.287,0.509,2.485,1.193,3.516,2.476
	c-1.193,1.205,1.038,2.311,1.214,3.687c-1.715-0.082-1.979-1.885-3.694-1.621c-0.428-0.081-0.509,0.686-1.023,0.346
	c0.251-1.03,1.023-2.061,2.048-2.663c-1.118-1.112-2.055,0.433-3.255,0.264c-0.602-0.854,0.164-1.884,0.768-2.061
	c-1.973,0.264-0.955-2.995-2.663-2.475C382.158,261.158,382.586,260.644,383.44,260.298z"/>
<path fill="#023F88" d="M386.518,257.202c1.369-0.176,2.405,0.508,3.342-0.61c1.029,1.03,2.066,2.908,3.523,3.424
	c-0.428,0.346-0.169,0.854-0.251,1.286l0.428,0.428c0.771-0.006,0.514-1.286,1.457-0.86c1.294,2.394-1.703,4.975,0.445,7.198
	c-0.338,0.604-0.164,2.576-1.451,1.633c-3.348-0.421-2.242-4.534-5.59-5.559c0.088-0.854-0.006-2.656-1.206-2.054
	c-0.943,0-0.428-1.029-0.86-1.37L386.518,257.202z"/>
<path fill="#023F88" d="M399.137,262.313c0.771,1.539-1.281,1.464-2.054,2.061l-0.258-0.251
	C397.34,263.263,398.709,263.257,399.137,262.313z"/>
<path fill="#023F88" d="M405.053,263.501c0.515,0.428,0.006,0.943-0.339,1.282c-0.17-0.427-0.604-0.767-0.434-1.282H405.053z"/>
<path fill="#023F88" d="M406.773,265.38c0.515-0.258,0.686,0.427,1.03,0.596c0.09,0.686-0.685,0.949-1.024,1.464
	c-0.345-0.515-1.287,0.177-1.287-0.597C406.265,266.925,407.119,266.409,406.773,265.38z"/>
<path fill="#023F88" d="M406.348,264.783c-0.177,0.339-0.517,0.515-0.861,0.169v-0.427L406.348,264.783z"/>
<path fill="#FFFFFF" d="M382.209,282.792l-0.716,0.105l0.106-2.255l-0.761-0.679c-1.25,0.484-0.954,2.023-1.626,2.978
	c-0.867-1.345,0.666-2.305,0.472-3.743l-2.117-0.189c0-0.383,0.483-0.578,0.671-0.961c2.501-0.584,1.546,2.155,3.945,1.62
	c0.484,0.196,0.194,0.672,0.29,0.961L382.209,282.792z"/>
<ellipse fill="none" stroke="#FFFFFF" stroke-width="1.75" cx="384.644" cy="286.614" rx="41.17" ry="41.693"/>
</svg>
