<?xml version="1.0" encoding="utf-8"?>
<!-- Generator: Adobe Illustrator 12.0.1, SVG Export Plug-In . SVG Version: 6.00 Build 51448)  -->
<!DOCTYPE svg PUBLIC "-//W3C//DTD SVG 1.0//EN" "http://www.w3.org/TR/2001/REC-SVG-20010904/DTD/svg10.dtd" [
	<!ENTITY ns_svg "http://www.w3.org/2000/svg">
	<!ENTITY ns_xlink "http://www.w3.org/1999/xlink">
]>
<svg  version="1.0" id="Layer_1" xmlns="&ns_svg;" xmlns:xlink="&ns_xlink;" width="428.525" height="473.914"
	 viewBox="0 0 428.525 473.914" overflow="visible" enable-background="new 0 0 428.525 473.914" xml:space="preserve">
<g>
	<g id="XMLID_1_">
		<g>
			<path fill="#07069F" d="M413.908,418.476c8.17-0.316,19.66,6.672,11.66,16.66c-7.04,3.199-11.91-1.6-14.15-5.83
				c-8.87,1-12.37,9.17-17.49,19.98c-3.449,7.289-8.55,23.459-14.146,23.318c-8.104-0.21-6.95-16.672-10-24.148
				c-4.063,14.779-31.104,35.09-45.79,19.148c-12.49-13.553,0.646-48.563,21.646-43.303c6.54,1.645,12.514,11.725,9.16,20.82
				c-2.75,7.438-14.938,8.979-20.819,14.15c11.343,11.027,24.603-2.029,29.979-12.49c3.62-7.049,3.04-18.439,10.82-20.813
				c5.986,5.382,2.31,20.449,7.486,26.643C390.948,447.546,393.448,419.287,413.908,418.476z M343.968,444.296
				c4.44-17.979-21.45-8.91-13.316,8.32C336.828,451.416,342.878,448.726,343.968,444.296z"/>
			<path fill="#07069F" d="M354.798,127.886c10.96,6,21.17,13.4,20.813,26.64c-0.434,15.89-17.394,23.72-19.15,37.47
				c6.07,0.23,7.91-10.95,16.65-10.82c6.946,6.81,0.486,21.98-6.66,24.98c2.229-15.271-16.13-8.57-16.65,2.5
				c-6.779-11.86-5.688-20.01-14.896-29.1l2.14-1.83c5.51,4.99,10.24,10.69,11.09,19.27c0.354-4.77-0.188-8.95-1.34-12.73l2.32-0.54
				c0.736,2.58,1.51,5.09,2.35,7.44c3.57-5.04,5.82-11.39,9.16-16.65c-16.101-3.4-21.21-25.55-0.83-30.81
				c1.84,6.82-5.75,20.76,1.67,25.81c15.681-7.58,9.48-32.76-5.83-33.3c-7.06-0.25-13.47,5.19-19.988,5.82
				c-24.698,2.4-39.762-14.22-39.961-40.79c1.473,1.58,4.129,1.97,5.83,3.33C330.298,99.716,346.908,109.616,354.798,127.886z
				 M330.648,135.376c5.97-1.79,8.84-8.29,17.479-4.99c-1.648-3.47-6.86-10.25-9.99-14.99c-1.21,1.56-0.026,5.52-1.656,6.66
				c-7.854,0.64-5.684-8.76-10.83-10.82c-2.434,1.18,1.06,8.27-2.49,8.32c-5.4-0.98-4.98-7.79-10.83-8.32
				c-0.45,3.78,1.67,4.98,2.5,7.49c-1.21,2.96-8.29,0.04-8.33,4.16c3.69,3.16,12.311-3.06,14.99,1.67c-1.063,2.83-4.62,3.15-5,6.66
				c6.25,2.62,12.01-9.49,18.316-4.16C333.998,130.406,330.368,130.936,330.648,135.376z"/>
			<path fill="#07069F" d="M373.108,2.986c2.35,1.47-2.08,3.45-2.49,6.66c-1.58,12.27,8.64,23.51-0.84,36.64
				c-10.53,14.6-34.37,13.25-59.95,10.82c2.06-3.76,7.37-4.29,9.16-8.32c0.438-4.6-0.48-7.85-0.83-11.66
				c5.18,4.03,18.64,12.47,20.82,2.5c2.52-11.57-15.924-9.74-21.65-16.65c5.53-1.41,10.33-3.54,17.479-3.33
				c-3.566-8.36-13.68-10.19-22.479-13.33c7.74-4.64,31.84-8.43,34.97,1.67c2.063,6.62-6.45,12.1-0.83,19.15
				c13.24,2.62,6.57-15,8.33-21.65C357.558,0.446,367.348,0.516,373.108,2.986z M361.458,12.146c3.39,0.35,5.25-0.85,4.99-4.16
				C364.288,2.056,356.988,8.816,361.458,12.146z M339.808,47.956c16.514,2.85,35.894-12.78,20.813-23.32
				C361.068,39.796,349.458,42.886,339.808,47.956z"/>
			<path fill="#07069F" d="M371.448,83.756c8.316,7.7,3.38,32.4,0,41.63c-11.75-2.99-22.67-13.94-25.813-28.31
				C358.738,97.136,366.698,92.046,371.448,83.756z"/>
			<path fill="none" d="M366.448,7.986c0.26,3.31-1.604,4.51-4.99,4.16C356.988,8.816,364.288,2.056,366.448,7.986z"/>
			<path fill="#07069F" d="M364.788,63.776c22.62,5.31-12.25,40.47-27.48,24.14c4.49-10.12,24.594-5.23,28.313-17.48
				C365.108,68.446,366.668,64.396,364.788,63.776z"/>
			<path fill="#07069F" d="M361.458,210.316c14.771,10.84,6.12,38.87-5,47.459c2.58-12.869-20.77-12.939-22.479-22.479
				c-1.461-8.1,6.739-14.06,16.649-9.16C346.778,218.276,349.798,207.676,361.458,210.316z"/>
			<path fill="none" d="M360.618,24.636c15.08,10.54-4.3,26.17-20.813,23.32C349.458,42.886,361.068,39.796,360.618,24.636z"/>
			<path fill="#07069F" d="M335.638,67.106c10.894,2.68,18.2-8.17,24.98-1.67c-1.87,8.95-10.24,11.41-20.813,11.66
				C337.258,74.926,336.298,71.166,335.638,67.106z"/>
			<path fill="#07069F" d="M349.108,183.726l-2.32,0.54c-4.45-14.48-18-22.88-25.3-34.73
				C340.438,148.306,344.418,167.436,349.108,183.726z"/>
			<path fill="#07069F" d="M316.488,247.787c18.438-8.393,37.22,10.67,29.979,30.811c-2.58,7.18-26.38,42.42-33.31,21.648
				c9.51-5.92,25.34-13.859,21.646-27.479c-7.71,3.647-10.616,19.83-20.81,21.647c-5.96,1.062-16.013-2.91-16.66-8.33
				c-1.47-12.351,23.521-11.76,19.99-25.812c-11.229,2.132-14.99,18.853-30.813,19.149c-1.85-2.03-3.05-4.721-2.5-9.159
				c7.03-3.351,11.7-3.382,17.49-7.49C307.628,258.416,310.748,250.396,316.488,247.787z M340.638,262.775
				c4.75-11.068-21.52-15.729-13.316-0.828C329.848,264.146,337.648,266.085,340.638,262.775z"/>
			<path fill="none" d="M330.648,452.617c-8.134-17.23,17.76-26.301,13.316-8.32C342.878,448.726,336.828,451.416,330.648,452.617z"
				/>
			<path fill="none" d="M348.128,130.386c-8.64-3.3-11.51,3.2-17.479,4.99c-0.28-4.44,3.35-4.97,4.156-8.32
				c-6.31-5.33-12.066,6.78-18.316,4.16c0.38-3.51,3.938-3.83,5-6.66c-2.684-4.73-11.3,1.49-14.99-1.67
				c0.04-4.12,7.12-1.2,8.33-4.16c-0.83-2.51-2.95-3.71-2.5-7.49c5.85,0.53,5.43,7.34,10.83,8.32c3.55-0.05,0.06-7.14,2.49-8.32
				c5.146,2.06,2.979,11.46,10.827,10.82c1.633-1.14,0.449-5.1,1.659-6.66C341.268,120.136,346.479,126.916,348.128,130.386z"/>
			<path fill="#07069F" d="M342.308,215.316c-3.43,0.65-4.276-1.28-7.5-0.83c-3.316,0.28-0.38,6.83-2.5,8.32
				c-5.67-4.37-9.17-18.69-19.146-13.32c-0.2,12.14,9.97,13.9,15.82,19.98c-3.54-0.49-5.5,0.6-8.32,0.84
				c-0.49,4.37,1.46,6.3,0.83,10.82c-3.24-1.76-5.11-4.88-7.49-7.491c-3.55,0.34-3.53,4.241-7.5,4.161
				c1.98-7.451,9.13-19.82,1.67-26.65c-10.17,1.22-9.43,13.34-10.83,23.32c-3.607-0.28-1.93-5.84-4.158-7.5
				c-2.802,1.09-5.438,2.34-7.488,4.17c-2.381-2.71,2.42-5.31,2.488-8.33c-1.062-2.82-6.172-1.6-8.318-3.33
				c8.188-4.63,19.89-4.42,22.479-12.49c3.631-11.34-11.22-13.32-16.648-21.65c2.602-0.17,6.109,0.56,7.488-0.83
				c1.131-1.38-0.68-4.86,0-8.33c3.813,0.35,3.98,4.35,6.66,5.83c3.721-0.19,4.881-6.35,8.33-4.16c-0.3,6.69-5.77,17.55,0,22.48
				c9.8-0.36,5.59-12.61,5.83-20.82c3.601,0.01,3.29,3.93,5.82,5c4.026,0.14,5.14-2.63,7.5-4.16c2.696,2.75-1.83,5.34-1.67,8.32
				c0.938,2.68,5.67,1.56,7.5,3.33c-5.063,4.11-17.054,1.27-17.49,10c5.06,7.74,16.78-0.51,23.32-1.67
				c-0.224,3.67-3.394,4.39-4.174,7.49C335.108,212.516,341.528,211.096,342.308,215.316z"/>
			<path fill="none" d="M327.318,261.947c-8.2-14.9,18.066-10.24,13.316,0.828C337.648,266.085,329.848,264.146,327.318,261.947z"/>
			<path fill="#07069F" d="M337.038,177.726l-2.14,1.83c-0.29-0.29-0.604-0.58-0.923-0.88c-6.551-6.06-22.327-5.57-26.647-12.49
				c-4.229-6.8,2.29-13.39,0.84-22.48c8.79,2.25,8.16,10.11,11.65,16.65C323.548,167.336,330.798,172.066,337.038,177.726z"/>
			<path fill="#07069F" d="M311.498,71.266c10.39-8.42,21.26,4.94,19.979,14.99c-0.947,7.45-12.327,10.98-21.647,10.82
				c-15.79-0.27-29.11-13.28-27.471-26.64C295.479,72.056,305.378,60.246,311.498,71.266z M320.658,82.086
				c-10.223,0.5-17.37-2.05-24.98-4.16C293.358,86.146,317.318,92.096,320.658,82.086z"/>
			<path fill="none" d="M295.679,77.926c7.609,2.11,14.763,4.66,24.979,4.16C317.318,92.096,293.358,86.146,295.679,77.926z"/>
			<path fill="#07069F" d="M313.158,420.146c6.84,18.537-7.82,54.021-25.812,52.461c-10.898-0.961-9.289-13.949-14.988-21.65
				c-10.184,7.08-20.063,24.52-38.301,21.65c-4.393-0.699-6.271-3.063-9.99-5.83c-9.432,9.131-26.489,5.301-32.469-4.17
				c-8.69,3.947-18.3,14.131-29.98,9.156c-6.09-2.59-6.32-10.52-11.66-14.979c-8.25,2.279-7.68,15.371-15.82,15.82
				c-12.7,0.688-9.4-23.48-21.65-27.48c-15.18,5.35-22.09,23.42-36.63,26.641c-5.03-5.311,0.4-15.371,2.49-23.311
				c1.96-7.41,2.5-19.619,10.83-19.99c1.54,5.41,2.26,11.631,5,15.83c10.7-4.289,11.28-18.688,23.31-21.65
				c9.3,8.463,6.78,28.74,18.32,34.975c15.83-1.934,4.76-30.771,20.81-32.48c12.2,8.369-8.05,39.24,18.32,36.643
				c6.07-0.604,9.21-4.184,12.49-9.16c-7.2-17.15-7.67-58.102,6.66-68.279c4.62-3.279,11.45-2.51,14.99,0.842
				c15.239,14.391-0.311,55.021-8.33,67.438c2.83,6.801,9.79,13.278,19.989,9.99c-1.049-16.25,4.461-40.949,20.811-39.962
				c7.48,0.448,12.46,9.521,11.66,18.319c-0.88,9.719-11.229,14.08-15.82,19.15c25.932,10.309,27.42-24.521,39.141-36.645
				c9.83,2.475,6.643,37.65,18.313,38.305c5.53,0.309,8.04-8.764,8.33-12.49C304.147,436.505,296.179,419.367,313.158,420.146z
				 M233.229,455.117c8.17-0.631,11.97-13.48,6.658-19.98C229.737,431.476,227.128,449.396,233.229,455.117z M196.588,440.966
				c8.91-6.58,12.72-32.438,5.83-44.141C189.688,400.416,193.648,429.447,196.588,440.966z"/>
			<path fill="#07069F" d="M301.508,303.576c26.23,15.051-29.81,49.301-44.97,34.141c-7.88-7.881,1.66-23.961,7.5-28.311
				C277.388,315.016,294.198,308.236,301.508,303.576z M274.028,331.057c11.39-0.132,21.39-5.632,19.979-15.82
				c-4.34-0.448-10.369,4.603-18.318,3.33C276.397,322.216,275.808,327.596,274.028,331.057z"/>
			<path fill="none" d="M300.668,24.636c4,24.44-20.25,41.32-34.97,21.65c4.47-1.73,8.729,3.3,13.318,4.16
				c1.979-3-1.988-5.98-1.658-9.99c2.89-1.15,8.59,1.15,13.316,0.83c1.24-4.49-5.658-7.5-8.316-10.82
				c2.606-3.21,8.979-2.67,10.816-6.66c-2.479-3.08-10.527-0.57-14.158-2.5c-0.312-3.65,2.381-4.28,2.5-7.49
				c-3.521-1.44-9.828,3.78-14.148,1.66C274.558-1.304,298.168,9.346,300.668,24.636z"/>
			<path fill="#07069F" d="M287.349,132.886c-0.551-7.29,12.801-9.53,10.83,2.49C294.349,139.886,287.679,137.316,287.349,132.886z"
				/>
			<path fill="#07069F" d="M297.338,142.876c6.851,5.24-1.22,16.4-8.319,9.99C286.397,146.886,289.668,141.166,297.338,142.876z"/>
			<path fill="#07069F" d="M295.679,296.916c0.01,10.25-19.761,11.291-28.311,5.83c0-3.061,0-6.109,0-9.16
				C274.317,287.656,295.658,286.195,295.679,296.916z"/>
			<path fill="#07069F" d="M290.679,161.196c11.319-5.78,11.319,13.26,0,7.49C289.658,166.336,289.658,163.546,290.679,161.196z"/>
			<path fill="#07069F" d="M287.349,237.796c14.68-5.99,22.689,23.011,5.83,21.65C281.618,258.505,288.558,247.037,287.349,237.796z
				"/>
			<path fill="none" d="M294.008,315.236c1.41,10.188-8.59,15.688-19.979,15.818c1.779-3.46,2.371-8.842,1.66-12.49
				C283.638,319.835,289.668,314.787,294.008,315.236z"/>
			<path fill="#07069F" d="M289.849,102.906c1.399,14.46-17.011,3.35-6.66-2.5C287.088,99.556,287.918,101.776,289.849,102.906z"/>
			<path fill="#07069F" d="M277.358,190.336c8.066,2.2,13.408,7.12,17.479,13.32c-3.55,5.33-12.49,5.27-19.979,6.66
				c-0.91-3.68,1.408-4.14,1.67-6.66c-1.313-3.07-9.563-3.53-11.66-0.83c0.6,6.06,6.359,6.96,5.83,14.15
				c-5.461,3.35-12.74,1.66-14.16-3.33c-1.561-5.53,4.99-8.37,2.5-13.32c-8.771,3.72-10.98,14-23.311,14.16
				c6.681-4.67,1.931-17.18,4.987-24.15c8.188-1.53,8.103,5.22,13.32,6.66c11.34-11-11.58-12.46-14.979-21.65
				c-2.359-6.36,1.158-11.91,3.33-19.15c1.92,7.86,12.108,5.729,15.818,11.66c3.41,5.45-2.92,14.7,4.16,19.15
				c3.738-1.82,0.148-10.96,2.5-14.16c8.14-3.05,12.56,3.82,19.979,4.17c-0.381,7.37-17.301,5.67-18.311,13.32
				c-0.551,4.14,2.8,9.31,9.99,6.66C278.397,196.376,276.849,192.326,277.358,190.336z"/>
			<path fill="#07069F" d="M287.349,120.396c1.33,14.4-20.761,9.94-16.647-2.5c0.56-1.72,2.448-3.22,5.827-4.17
				C281.778,112.256,286.817,114.666,287.349,120.396z"/>
			<path fill="#07069F" d="M287.349,159.526c0.58,21.94-31.857-0.73-12.49-7.49C281.778,149.616,287.179,152.876,287.349,159.526z"
				/>
			<path fill="#07069F" d="M284.019,138.706c0.433,3.48-0.461,5.65-1.66,7.5C269.618,150.646,274.698,128.866,284.019,138.706z"/>
			<path fill="#07069F" d="M276.528,1.326c44.67-5.1,47.55,61.22,4.988,60.78c-8.842-0.09-12.229-4.05-19.979-6.66
				c-2.931,0.44-4.55,6.51-6.66,5c-1.04-2.85-0.601-7.18-2.5-9.16c-6.05,1.16-6.819,7.61-13.319,8.32
				c1.33-5.88,5.183-9.24,6.659-14.98c-1.18-2.99-6.729-1.61-9.159-3.34c1.813-4.29,8.121-4.08,9.159-9.15
				c-0.25-4.75-6.55-3.44-8.329-6.67c0.699-3.73,6.319-2.55,7.5-5.82c-0.449-7.33-6.931-8.62-7.5-15.82
				c5.711,1.22,9.829,4.04,14.159,6.66c4.132-0.31,1.312-7.57,3.33-10c3.892,0.28,3.603,4.73,7.49,5
				C269.448,4.566,271.698,1.876,276.528,1.326z M265.698,46.286c14.72,19.67,38.97,2.79,34.97-21.65
				c-2.5-15.29-26.11-25.94-33.3-9.16c4.32,2.12,10.63-3.1,14.148-1.66c-0.119,3.21-2.812,3.84-2.5,7.49
				c3.631,1.93,11.682-0.58,14.158,2.5c-1.84,3.99-8.21,3.45-10.816,6.66c2.658,3.32,9.56,6.33,8.316,10.82
				c-4.729,0.32-10.43-1.98-13.316-0.83c-0.33,4.01,3.64,6.99,1.658,9.99C274.429,49.586,270.168,44.556,265.698,46.286z
				 M267.368,32.966c3.14,0.64,3.979-1.02,6.66-0.83c-0.17-3.72-6.07-1.7-6.66-5c1.439-1.34,2.439-3.11,3.33-5
				c-3.82-0.76-4.03,2.09-7.5,1.67c-1.551-1.77-1.352-5.3-3.33-6.66c-1.07,4.2-2.23,8.31-9.16,6.66c0.38,3.51,3.939,3.83,5,6.66
				c-1.76,1.85-5.46,1.75-5,5.83c2.221,0,4.45,0,6.67,0c0.68,2.09-1.62,7.17,1.66,6.66c1.91-1.15,1.96-4.15,4.16-5
				c2.648,0.13,3.67,1.89,6.67,1.67C270.078,36.356,266.849,36.526,267.368,32.966z"/>
			<path fill="#07069F" d="M261.538,223.636c11.04,0.23,23.479,11.33,20.82,24.981c-1.25,6.389-12.42,14.238-19.99,6.658
				C253.218,246.126,269.118,232.766,261.538,223.636z M274.858,240.296c-0.894-3.561-1.801-7.09-5.83-7.5
				c0.529,3.75-2.271,7.11,0,10c1.146-0.041,1.83,0.39,2.5,0.83C272.769,242.646,273.878,241.537,274.858,240.296z"/>
			<path fill="#07069F" d="M278.188,262.775c1.566,52.74-88.9,36.521-69.11-18.318c2.97-8.21,13-19.121,22.479-22.48
				c6.729-2.38,19.311-4.96,24.979,3.33c-2.682,1.2-6.17,1.59-9.16,2.5c0.5,4.49,7.95,2.04,7.5,7.49c-2.7,5.36-16.311-0.21-19.148,5
				c0.41,2.359,4.352,1.199,3.33,4.99c-4.852,7.01-15.432,4.949-19.148,11.66c-11.28,20.34,22.71,40.398,39.13,24.979
				c0.12-2.34-2.04-2.398-4.16-2.5c-0.26-3.631,2.46-3.699,0.83-6.66c-9.37,3.301-29.21,7.223-30.812-5.83
				c-0.789-3.01,3.278-1.157,5-1.657c0.102-2.399-0.459-5.45,0.83-6.659c9.051,5.43,21.682,10.01,34.972,8.316
				C269.908,266.406,274.688,265.197,278.188,262.775z"/>
			<path fill="#07069F" d="M275.688,82.086c9.85,17.15-10.791,34.34-27.474,24.98c-2.85,0.21-1.698,4.41-4.17,5
				c-7.229-3.09-6.84-18.17-3.33-24.98c3.423,1.47,10.423,4.63,16.66,4.16c0.358,3.15-1.647,3.91-2.5,5.83
				C266.618,100.146,275.658,93.486,275.688,82.086z"/>
			<path fill="#07069F" d="M274.028,67.936c0.34,10.05-1.551,17.88-8.33,20.82c-0.66-4.34-5.352-4.64-7.49-7.5
				c-0.04-2.53,1.76-3.24,2.5-4.99c-5.84-5.7-14.02,0.12-17.49,4.16c-3.08-15.89,16.461-19.63,24.98-11.66
				C271.088,69.436,271.397,67.526,274.028,67.936z"/>
			<path fill="none" d="M274.028,32.136c-2.682-0.19-3.521,1.47-6.66,0.83c-0.521,3.56,2.71,3.39,2.5,6.66
				c-3,0.22-4.021-1.54-6.67-1.67c-2.2,0.85-2.25,3.85-4.16,5c-3.28,0.51-0.98-4.57-1.66-6.66c-2.22,0-4.449,0-6.67,0
				c-0.46-4.08,3.24-3.98,5-5.83c-1.061-2.83-4.62-3.15-5-6.66c6.93,1.65,8.09-2.46,9.16-6.66c1.979,1.36,1.779,4.89,3.33,6.66
				c3.47,0.42,3.68-2.43,7.5-1.67c-0.891,1.89-1.891,3.66-3.33,5C267.958,30.436,273.858,28.416,274.028,32.136z"/>
			<path fill="none" d="M269.028,232.796c4.029,0.41,4.938,3.94,5.83,7.5c-0.98,1.24-2.092,2.351-3.33,3.33
				c-0.67-0.44-1.354-0.871-2.5-0.83C266.758,239.906,269.558,236.546,269.028,232.796z"/>
			<path fill="#07069F" d="M267.368,127.056c10.439,3.8,0.479,23.34-9.99,13.32C252.758,132.506,259.508,124.196,267.368,127.056z"
				/>
			<path fill="#07069F" d="M264.868,147.036c4.77,4.63,1.689,10.33-3.33,9.99C255.538,156.626,253.897,145.316,264.868,147.036z"/>
			<path fill="#07069F" d="M259.868,113.726c6.29-2.64,9.67,8.31,2.5,9.16C258.138,123.396,252.737,116.726,259.868,113.726z"/>
			<path fill="#07069F" d="M254.038,122.056c0.37,2.86-0.32,4.67-0.83,6.66C239.138,134.706,244.849,111.936,254.038,122.056z"/>
			<path fill="#07069F" d="M253.208,312.736c0.33,3.658-3.79,2.869-5.83,4.158c-2.439,7.271-3.061,16.432-9.16,18.318
				c-14.289,4.42-18.91-13.438-26.64-19.148c-12.75,9.172-23.56,20.303-48.29,17.479c13.97,10.291,38.19,0.951,45.79-8.318
				c8.13,10.791,17.979,20.221,37.47,17.479c-1.93,10.729-27.01,9.801-29.97,0.84c-12.89,9.961-37.09,8.781-51.63,1.66
				c-5.61-2.75-9.99-8.08-15.82-9.99c-3.77-1.229-7.61-0.25-10.82-0.829c-8.51-1.538-12.59-5.647-18.32-10
				c13.72-0.71,25.71-3.147,24.14-19.147c8.09,3.02,11.42,10.789,14.16,19.147c8.04,3.79,20.27,1.313,19.98-8.319
				c15.51-1.148,24.57-8.738,28.31-21.648c6.229,1.551,9.79,5.75,14.159,9.16c5.729-1.949,14.938-0.648,19.979,0.83
				c3.012-0.32,2.092-4.57,6.66-3.33C248.108,306.175,251.358,308.755,253.208,312.736z M237.388,317.727
				c-0.56-9.897-11.97-6.897-10.818,0C227.378,322.596,234.868,323.445,237.388,317.727z"/>
			<path fill="#07069F" d="M244.888,245.287c16.65-2.801,11.961,24.5,0,12.488C244.298,252.835,246.938,249.246,244.888,245.287z"/>
			<path fill="#07069F" d="M246.548,136.216c7.41-1,10.682,11.68,3.33,14.15C240.567,153.496,234.638,137.816,246.548,136.216z"/>
			<path fill="none" d="M239.888,435.136c5.313,6.5,1.512,19.354-6.658,19.98C227.128,449.396,229.737,431.476,239.888,435.136z"/>
			<path fill="none" d="M226.567,317.727c-1.149-6.897,10.261-9.897,10.82,0C234.868,323.445,227.378,322.596,226.567,317.727z"/>
			<path fill="#07069F" d="M204.918,274.436c1.25,5.521-1.48,6.791,1.66,11.649c-1.2,0.472-2.03,1.301-2.49,2.5
				c-3.98,0.642-3.7-2.959-7.5-2.5c-3.39,2.351-0.5,5.281-0.83,7.5c-2.64,17.61-39.34,26.819-44.13,4.99
				c24.01,9.84,20.68-30.761,39.97-14.99c3-3.569-2.72-10.91,1.66-13.319C198.228,270.576,199.438,274.636,204.918,274.436z"/>
			<path fill="none" d="M202.418,396.826c6.89,11.701,3.08,37.561-5.83,44.141C193.648,429.447,189.688,400.416,202.418,396.826z"/>
			<path fill="#07069F" d="M201.588,239.457c8.891,43.898-70.91,39.369-55.79-3.331c4.67,0.16,6.51,6.021,11.66,8.331
				c9.68,4.34,23.62,3.77,29.14-4.16c-4.16-7.32-18.15-13.601-8.33-24.98C180.868,230.116,198.898,226.186,201.588,239.457z
				 M194.928,246.957c-1.19-0.201-1.41-1.371-2.5-1.67c-3.02,3.369-8.43,4.34-11.66,7.5c0,3.33,0,6.659,0,9.988
				C189.948,261.957,193.598,255.617,194.928,246.957z"/>
			<path fill="none" d="M192.428,245.287c1.09,0.299,1.31,1.469,2.5,1.67c-1.33,8.66-4.98,15-14.16,15.818c0-3.328,0-6.658,0-9.988
				C183.998,249.626,189.408,248.656,192.428,245.287z"/>
			<path fill="#07069F" d="M176.608,202.826c0.44,9.24-23.27,30.94,0.83,35.8c-21.84,7.64-41.89-20.621-25.81-38.3
				c3.98,1.47,7.44,7.3,13.32,4.16c-2.6-11.16-19.35-8.64-19.15-20.81c0.19-11.63,25.89-12.52,18.32-29.979
				c5.9,4.46,11.5,7.82,11.66,14.99c0.19,8.88-9.54,11.85-9.16,19.15C166.888,193.256,176.338,197.306,176.608,202.826z"/>
			<path fill="#07069F" d="M174.938,14.646c1.37,2.84,0.98,7.17-0.83,9.16c-6.59-0.34-11.18-2.7-13.32-7.49
				C164.148,14.426,170.448,12.846,174.938,14.646z"/>
			<path fill="#07069F" d="M169.948,82.926c5.16,3.26,8.27,17.04,1.66,22.48c-0.74-3.14-0.72-7.05-1.66-9.99
				c-5.32,1.44-5.48,10.25-4.17,15.82c1.58,1.65,3.94,0.4,5.83,0c-4.8,19.83-29.75,7.18-28.31-9.99
				c-5.03,3.43-10.22,10.31-18.32,11.65c-15.47,2.57-27.26-7.64-19.15-22.48c4.43,0.84,1.27,9.28,5.83,9.99
				c9.02,0.84,10.81-12.09,7.5-18.32c-2.84-0.05-5.82-0.25-6.67,1.67c0.41-17.95,39.73-18.56,33.31,8.33
				C150.618,87.856,159.658,76.416,169.948,82.926z M154.958,112.896c7.95-2.32,7.38-13.15,8.33-22.48
				c-1.07-0.04-1.16-1.07-2.5-0.83C157.418,95.926,154.398,102.626,154.958,112.896z M149.958,105.406
				c1.92-1.41,4.6-10.01,0.84-11.66C147.618,95.906,144.388,103.126,149.958,105.406z M134.138,101.246
				c5.28,1.68,10.05-8.02,6.66-14.99C135.248,84.286,132.448,95.966,134.138,101.246z M134.138,77.096
				c-1.06-0.05-1.15-1.07-2.49-0.83c-4.93,7.41-8.65,20.05-8.33,29.97C131.968,101.566,131.528,87.806,134.138,77.096z"/>
			<path fill="#07069F" d="M151.628,47.956c10,4.29,31.01,14.57,19.15,27.47C162.598,68.066,155.068,60.046,151.628,47.956z"/>
			<path fill="#07069F" d="M137.468,137.876c8.48-10.1,41.62-14.64,32.48,9.16c-3.49-8.69-18.82-8.76-29.15-5.83
				c4.2,2.74,10.55,3.34,14.16,6.66c5.03,10.53-3.51,18.32-11.66,20.82c1.99-10.26-1.86-18.32-8.32-22.48
				c-11.77,15.16-1.03,40.5,7.49,54.12c-12.15,8.54-15.38-12.93-20.82-20.82c0.71-10.71-3.32-25.26,5-34.97
				c-11.62-1.62-23.09,4.11-26.65,13.32c-6.96-12.29,11.16-26.5,27.48-18.31c-1.1-5.05-12.63-13.73-21.65-8.33
				c-0.87-24.56,25.1-8.09,25.82,4.16c1.8-5.96,0.5-15.04,4.16-19.15c8.45-0.68,10.04,5.5,13.32,9.99
				C142.188,127.046,139.938,132.566,137.468,137.876z"/>
			<path fill="#07069F" d="M174.108,43.786c-10.68,4.97-22.27-6.77-32.47-4.99c0.98,12.09,11.05,19.42,9.16,31.64
				c-12.93-0.68-14.61-12.6-25.82-14.99c-3.66,2.44-2.09,10.12-4.99,13.32c-4.73-0.82-4.81-6.29-9.16-7.49
				c-7.11,5.11-4.53,19.9-10.83,25.81c-8.56-2.26-3.23-18.42-8.32-24.15c-6.1,1.4-7.23,7.76-14.16,8.33
				c-5.79-4.76,1.35-14.84-1.66-21.65c-12.7,1.83-19.89,13.3-32.48,12.49c2.61-15.16,16.74-18.79,21.65-31.64
				c-5.15-4.28-17.78-1.09-24.98-3.33c2.46-8.37,12.47-9.19,17.49-14.99c-2.19-5.85-12.53-3.57-16.65-7.49
				c5.6-8.43,27.86-2.81,34.13,0.83c-1.31,7.57-11.38,6.38-13.32,13.32c2.42,5.91,14.91,1.74,19.15,5.83
				c-2.12,8.7-10.8,10.85-14.15,18.32c6.21,1.35,10.44-6.11,18.32-5.83c2.77,6.03-2.09,11.09-0.84,18.32
				c6.86-1.74,5.75-11.47,13.33-12.49c1.5,5.44,0.61,13.26,2.49,18.32c6.09-1.97,3.32-12.78,7.5-16.65
				c5.33,0.77,3.55,8.65,9.16,9.15c1.84-4.01,0.26-10.92,1.66-13.32c8.97,1.3,10.98,9.56,18.32,12.49
				c1.3-8.11-9.22-15.54-5.83-25.81c9.59-0.43,12.58,5.74,22.48,5c0.67-9.33-14.34-14.479-14.98-22.49
				c6.31-7.04,21.68-9.35,34.13-7.49c-3.35,6.92-15.29,5.24-19.15,11.66C156.818,27.216,171.828,29.146,174.108,43.786z"/>
			<path fill="#07069F" d="M165.778,389.335c2.99,6.051-3.62,17.711-12.49,14.16C141.938,392.126,160.368,378.376,165.778,389.335z"
				/>
			<path fill="#07069F" d="M144.128,270.266c13.88-1.38,22.83,6.59,21.65,17.489c-11.07,7.142-20.49,2.472-24.98-5.83
				c-4.1-7.59-2.13-17.448-9.15-22.479c-7.55-5.41-14.01-1.91-19.99-9.16c1.83-7.8,11.77-7.892,17.49-5.83
				C138.638,247.876,139.878,262.916,144.128,270.266z M159.958,284.425c1.4-7.159-10.15-12.709-12.49-5.829
				C150.278,281.886,153.058,285.216,159.958,284.425z"/>
			<path fill="none" d="M163.288,90.416c-0.95,9.33-0.38,20.16-8.33,22.48c-0.56-10.27,2.46-16.97,5.83-23.31
				C162.128,89.346,162.218,90.376,163.288,90.416z"/>
			<path fill="#07069F" d="M147.468,278.596c2.34-6.88,13.89-1.33,12.49,5.829C153.058,285.216,150.278,281.886,147.468,278.596z"/>
			<path fill="none" d="M150.798,93.746c3.76,1.65,1.08,10.25-0.84,11.66C144.388,103.126,147.618,95.906,150.798,93.746z"/>
			<path fill="none" d="M140.798,86.256c3.39,6.97-1.38,16.67-6.66,14.99C132.448,95.966,135.248,84.286,140.798,86.256z"/>
			<path fill="#07069F" d="M136.638,224.476c0.13,16.141-28.13,16.07-19.15-3.33c1.51,2.1,1.78,5.44,5,5.82
				c2.53,0.04,3.23-1.75,4.99-2.49c-3.64-22.18-21.47-30.15-21.65-55.79c-11.66,10.61,10.38,36.94,5.83,50.79
				c-2.45,7.46-16.88,7.61-14.99-2.5c0.63-4.19,3.05,1.89,6.66,0c5.86-14.16-6.75-23.58-4.16-39.96
				c-9.09,5.79,1.95,36.69-9.99,39.96c-4.15,1.14-13.21-1.09-9.99-8.32c1.18-4.59,2.81,2.75,6.66,0.83
				c7.44-5.54,3.99-15.58,4.99-23.32c1.82-14.02,11.12-24.47,20.82-31.64c-0.33,3.7-2.67,11.17-1.66,19.16
				C112.598,194.286,136.508,208.476,136.638,224.476z"/>
			<path fill="#07069F" d="M135.808,19.646c-3.05,4.59-12.49-4.48-14.99,1.66c-0.64,6.36,5.7,9.62,3.33,14.99
				c-5.82-1.4-5.16-9.28-11.66-9.99c-5.66,1.27-4.26,9.61-6.66,14.15c-6.22-0.99-0.58-13.84-6.66-14.99
				c-6.37,0.29-6.78,6.55-13.32,6.67c1.47-5.2,5.63-7.7,7.49-12.49c-2.82-5.9-11.74,1.55-16.65-1.67c2.24-4.42,9.47-3.85,12.49-7.49
				c1.97-6.14-4.5-3.83-5-7.5c10.61-7.66,15.22,5.13,21.65,5.83c7.43,0.81,12.2-12.24,24.15-5.83c-0.14,3.75-6.38,1.4-5.83,5.83
				C125.058,15.406,133.098,14.856,135.808,19.646z"/>
			<path fill="none" d="M131.648,76.266c1.34-0.24,1.43,0.78,2.49,0.83c-2.61,10.71-2.17,24.47-10.82,29.14
				C122.998,96.316,126.718,83.676,131.648,76.266z"/>
			<path fill="#07069F" d="M112.488,261.947c21.76,2.078,35.39,43.02,13.33,53.289c-29.37,13.658-68.69-29.021-37.47-48.301
				c-4.18,21.479,6.2,40.289,29.14,37.471c20.59-2.529,14.03-37.459-6.66-35.801c-20.75,1.66-0.86,32.631,10.82,16.648
				c-3.68-2.711-15.15-2.041-11.65-9.16c11.37-10.729,23.58,18.143,9.16,22.48C93.338,306.355,80.058,258.835,112.488,261.947z"/>
			<path fill="#07069F" d="M95.008,231.966c12.41-7.87,19.16,15.11,4.99,15.821c5.45,11.66-14.26,16.979-15.82,5.83
				c-12.76,7.809-19.94-14.361-5.83-15.82C74.568,224.756,92.888,222.596,95.008,231.966z M85.848,246.957
				C108.058,249.105,80.448,226.906,85.848,246.957L85.848,246.957z"/>
			<path fill="#07069F" d="M96.668,97.906c0,1.95,0,3.89,0,5.83C84.478,114.306,85.098,87.596,96.668,97.906z"/>
			<path fill="#07069F" d="M85.848,114.566c13.66-1.43,20.27,24.95,7.49,27.47C79.168,144.836,76.178,122.506,85.848,114.566z"/>
			<path fill="#07069F" d="M90.838,157.026c3.73,23.67-19.26,43.63-22.48,63.28c-1.18,7.24,2.84,11.22,4.17,14.99
				c-6.68-0.26-11.18-2.7-13.33-7.49c-14.44,22.49,24.34,26.75,12.49,49.119c-15.23-9.809-24.07-19.309-22.48-38.299
				c1.37-16.26,16.5-26.63,19.15-37.47c1.9-7.76-5.67-11.86-9.16-14.99c-9.16,1.57-0.71,10.34-0.83,15.83
				c-0.1,4.59-5.65,13.02-9.99,12.49c-10.75-1.33-8.44-50.25,0-54.96c4.61,4.93-1.87,15.79,3.33,19.98
				c7.79-5.52,1.56-25.08,12.49-27.47c3.3,9.01-4.19,18.4-0.83,27.47c7.99-7.26,5.24-25.29,15.82-29.97
				c2.71,13.03-6.62,21.1-6.66,34.14C83.448,179.606,80.388,161.556,90.838,157.026z"/>
			<path fill="none" d="M85.848,246.957C80.448,226.906,108.058,249.105,85.848,246.957L85.848,246.957z"/>
			<path fill="#07069F" d="M84.178,84.586c7.49-2.09,6.96,9.99,0.84,9.99C79.918,94.576,77.338,86.496,84.178,84.586z"/>
			<path fill="#07069F" d="M76.688,93.746c1,4.28,4.07,6.48,5.83,9.99c-2.36,18.32-21.6,25.38-39.97,18.32
				C43.488,102.586,54.978,89.736,76.688,93.746z M75.018,111.236c0.41-0.99,0.89-1.89,1.67-2.5c-2.29-4.37-6.08-15.81-11.66-9.16
				C66.678,105.136,68.058,110.986,75.018,111.236z M55.038,102.906c-6.53,6.64,0.9,19.76,10.83,14.99
				C61.658,113.496,57.728,108.816,55.038,102.906z"/>
			<path fill="none" d="M76.688,108.736c-0.78,0.61-1.26,1.51-1.67,2.5c-6.96-0.25-8.34-6.1-9.99-11.66
				C70.608,92.926,74.398,104.366,76.688,108.736z"/>
			<path fill="#07069F" d="M73.358,125.386c1.4,3.94,1.19,13.53,4.99,17.49C64.328,148.156,62.748,127.966,73.358,125.386z"/>
			<path fill="#07069F" d="M53.378,76.266c-5.55-23.07,31.32-11.57,19.15,9.99C63.418,85.386,55.058,83.256,53.378,76.266z"/>
			<path fill="#07069F" d="M60.038,390.166c11.37-0.729,10,28.201,9.16,40.801c-1.3,19.26-8.51,31-15.82,36.641
				c-15.45,11.922-40.02,4.711-47.47-8.328c-9.96-17.434-7.68-67.092,14.16-67.439c0.38,20.34-15.13,78.359,18.32,74.102
				c16.14-2.053,21.41-24.883,19.15-43.291C56.528,414.406,45.478,391.105,60.038,390.166z"/>
			<path fill="none" d="M65.868,117.896c-9.93,4.77-17.36-8.35-10.83-14.99C57.728,108.816,61.658,113.496,65.868,117.896z"/>
			<path fill="#07069F" d="M43.378,127.056c3.4,4.09,9.21,5.78,17.49,4.99C58.078,139.926,40.128,140.756,43.378,127.056z"/>
			<path fill="#07069F" d="M38.388,138.706c3.81,6.9,14.53,9.38,24.14,5.83C56.798,154.116,36.178,157.136,38.388,138.706z"/>
			<path fill="#07069F" d="M40.888,46.286c-2.93-8.52,5.64-15.53,14.98-11.66C52.498,40.146,48.258,44.776,40.888,46.286z"/>
			<path fill="#07069F" d="M57.538,88.756c-10.87,12.14-25.7-9.46-12.49-16.66C47.838,79.026,48.838,87.736,57.538,88.756z"/>
		</g>
	</g>
</g>
</svg>
