<?xml version="1.0" encoding="utf-8"?>
<!-- Generator: Adobe Illustrator 12.0.1, SVG Export Plug-In . SVG Version: 6.00 Build 51448)  -->
<!DOCTYPE svg PUBLIC "-//W3C//DTD SVG 1.0//EN" "http://www.w3.org/TR/2001/REC-SVG-20010904/DTD/svg10.dtd" [
	<!ENTITY ns_svg "http://www.w3.org/2000/svg">
	<!ENTITY ns_xlink "http://www.w3.org/1999/xlink">
]>
<svg  version="1.0" id="Layer_1" xmlns="&ns_svg;" xmlns:xlink="&ns_xlink;" width="301.172" height="145.671"
	 viewBox="0 0 301.172 145.671" overflow="visible" enable-background="new 0 0 301.172 145.671" xml:space="preserve">
<polyline fill="#004896" points="58.95,52.365 47.828,30.992 51.133,30.992 60.562,49.069 69.386,30.992 72.434,30.992 
	52.885,70.892 49.896,70.892 58.95,52.365 "/>
<path fill="#004896" d="M76.685,52.708c1.338,0.898,2.66,1.564,3.961,1.993c1.303,0.433,2.622,0.647,3.963,0.647
	c1.703,0,3.042-0.402,4.018-1.207s1.465-1.902,1.465-3.299c0-2.047-1.775-3.723-5.326-5.023c-0.916-0.344-1.632-0.611-2.147-0.803
	c-1.955-0.765-3.423-1.756-4.4-2.971c-0.979-1.216-1.467-2.658-1.467-4.324c0-2.143,0.778-3.895,2.337-5.256
	c1.557-1.357,3.577-2.038,6.062-2.038c1.128,0,2.287,0.185,3.483,0.545c1.191,0.369,2.431,0.934,3.711,1.7v3.045
	c-1.335-0.863-2.613-1.508-3.835-1.938c-1.221-0.43-2.402-0.645-3.546-0.645c-1.566,0-2.854,0.425-3.863,1.274
	c-1.012,0.854-1.518,1.94-1.518,3.26c0,1.169,0.463,2.147,1.39,2.94c0.927,0.797,2.648,1.632,5.168,2.513
	c2.666,0.938,4.495,1.958,5.488,3.059c0.988,1.102,1.485,2.551,1.485,4.35c0,2.358-0.777,4.211-2.33,5.562
	c-1.553,1.35-3.687,2.024-6.405,2.024c-1.378,0-2.693-0.193-3.948-0.577c-1.252-0.383-2.502-0.97-3.744-1.759V52.708"/>
<path fill="#004896" d="M107.861,51.011c0,1.784,0.245,2.961,0.735,3.537c0.491,0.575,1.369,0.863,2.636,0.863
	c0.652,0,1.335-0.109,2.044-0.329c0.711-0.222,1.506-0.56,2.39-1.021v2.903c-0.824,0.363-1.63,0.636-2.426,0.818
	c-0.795,0.181-1.594,0.274-2.396,0.274c-2.202,0-3.751-0.526-4.651-1.583c-0.9-1.053-1.35-2.891-1.35-5.518V33.446h-5.667v-2.454
	h5.783V24.95l2.221-2.577h0.682v8.62h7.145v2.454h-7.145V51.011"/>
<path fill="#004896" d="M143.353,54.585c-1.725,1.197-3.407,2.083-5.051,2.662c-1.646,0.579-3.341,0.87-5.079,0.87
	c-3.962,0-7.143-1.303-9.543-3.907c-2.401-2.602-3.601-6.059-3.601-10.368c0-4.02,1.134-7.25,3.399-9.689
	c2.269-2.442,5.249-3.663,8.939-3.663c3.422,0,6.187,1.154,8.293,3.465c2.104,2.311,3.157,5.377,3.157,9.195v0.117h-20.706v0.312
	c0,3.471,0.929,6.279,2.786,8.424s4.261,3.219,7.206,3.219c1.764,0,3.458-0.314,5.086-0.94c1.626-0.626,3.331-1.611,5.112-2.961
	V54.585L143.353,54.585z M123.537,40.748h16.87c-0.307-2.331-1.217-4.204-2.73-5.617c-1.513-1.416-3.344-2.125-5.489-2.125
	c-2.203,0-4.109,0.718-5.717,2.151C124.859,36.591,123.881,38.456,123.537,40.748"/>
<path fill="#004896" d="M151.313,57.551V30.992h2.96v4.277c1.222-1.593,2.564-2.775,4.026-3.553
	c1.463-0.777,3.054-1.164,4.775-1.164c1.989,0,3.633,0.427,4.934,1.28c1.301,0.852,2.398,2.226,3.298,4.125
	c1.474-1.859,2.978-3.223,4.508-4.097c1.534-0.871,3.211-1.309,5.031-1.309c2.888,0,5.121,0.938,6.688,2.816
	c1.572,1.876,2.358,4.55,2.358,8.019v16.164h-2.96V42.79c0-3.194-0.529-5.584-1.598-7.163c-1.064-1.579-2.67-2.369-4.82-2.369
	c-1.764,0-3.357,0.474-4.779,1.423c-1.417,0.947-2.64,2.34-3.654,4.177v18.693h-2.956V42.79c0-3.194-0.537-5.584-1.605-7.163
	c-1.071-1.579-2.688-2.369-4.847-2.369c-1.722,0-3.282,0.47-4.688,1.406c-1.402,0.94-2.644,2.339-3.711,4.194v18.693H151.313"/>
<path fill="#004896" d="M196.596,52.708c1.338,0.898,2.658,1.564,3.959,1.993c1.305,0.433,2.625,0.647,3.963,0.647
	c1.707,0,3.046-0.402,4.02-1.207c0.978-0.805,1.467-1.902,1.467-3.299c0-2.047-1.778-3.723-5.328-5.023
	c-0.917-0.344-1.632-0.611-2.147-0.803c-1.955-0.765-3.425-1.756-4.398-2.971c-0.981-1.216-1.467-2.658-1.467-4.324
	c0-2.143,0.778-3.895,2.335-5.256c1.557-1.357,3.576-2.038,6.062-2.038c1.128,0,2.29,0.185,3.481,0.545
	c1.195,0.369,2.433,0.934,3.715,1.7v3.045c-1.338-0.863-2.617-1.508-3.839-1.938c-1.218-0.43-2.402-0.645-3.546-0.645
	c-1.564,0-2.85,0.425-3.861,1.274c-1.012,0.854-1.52,1.94-1.52,3.26c0,1.169,0.463,2.147,1.392,2.94
	c0.925,0.797,2.647,1.632,5.17,2.513c2.666,0.938,4.493,1.958,5.486,3.059c0.988,1.102,1.485,2.551,1.485,4.35
	c0,2.358-0.778,4.211-2.328,5.562c-1.553,1.35-3.688,2.024-6.407,2.024c-1.38,0-2.691-0.193-3.947-0.577
	c-1.253-0.383-2.501-0.97-3.745-1.759V52.708"/>
<g>
	<path fill="#004896" d="M75.846,106.853V66.704h9.462c3.759,0,6.74,0.917,8.945,2.752c2.201,1.834,3.306,4.311,3.306,7.424
		c0,2.064-0.478,3.844-1.43,5.332c-0.951,1.493-2.368,2.689-4.252,3.584c3.038,0.767,5.333,2.049,6.881,3.85
		c1.549,1.802,2.323,4.092,2.323,6.866c0,1.726-0.406,3.302-1.218,4.727c-0.813,1.425-1.983,2.628-3.514,3.606
		c-1.128,0.725-2.452,1.244-3.973,1.549c-1.52,0.309-3.877,0.459-7.069,0.459H75.846L75.846,106.853z M79.055,69.283v15.795h6.539
		c2.6,0,4.698-0.729,6.296-2.191c1.597-1.463,2.396-3.389,2.396-5.775c0-2.426-0.823-4.34-2.467-5.733
		c-1.645-1.395-3.901-2.095-6.768-2.095H79.055L79.055,69.283z M79.055,87.785v16.36h6.655c4.099,0,7.088-0.64,8.966-1.921
		c1.879-1.282,2.818-3.309,2.818-6.084c0-2.527-0.978-4.55-2.931-6.072c-1.955-1.523-4.572-2.283-7.85-2.283H79.055"/>
</g>
<path fill="#004896" d="M109.352,71.55v-4.847h3.02v4.847H109.352L109.352,71.55z M109.352,106.853V80.295h3.02v26.558H109.352"/>
<g>
	<path fill="#004896" d="M120.167,93.542c0-3.848,1.341-7.111,4.017-9.792c2.677-2.681,5.948-4.02,9.812-4.02
		c3.828,0,7.082,1.343,9.771,4.034c2.685,2.689,4.027,5.949,4.027,9.777c0,1.819-0.357,3.59-1.076,5.301
		c-0.718,1.715-1.726,3.219-3.026,4.52c-1.319,1.324-2.801,2.32-4.447,2.99c-1.644,0.669-3.392,1.004-5.249,1.004
		c-3.863,0-7.135-1.336-9.812-4.005C121.508,100.678,120.167,97.412,120.167,93.542L120.167,93.542z M123.441,93.606
		c0,3.079,1.03,5.688,3.097,7.832c2.064,2.144,4.561,3.211,7.488,3.211c2.904,0,5.381-1.067,7.428-3.211s3.069-4.753,3.069-7.832
		c0-3.103-1.02-5.727-3.057-7.878c-2.035-2.15-4.516-3.229-7.44-3.229c-2.967,0-5.471,1.079-7.515,3.229
		C124.461,87.879,123.441,90.503,123.441,93.606"/>
</g>
<polyline fill="#004896" points="155.626,106.853 155.626,66.704 158.646,66.704 158.646,106.853 155.626,106.853 "/>
<g>
	<path fill="#004896" d="M166.444,93.542c0-3.848,1.339-7.111,4.016-9.792c2.678-2.681,5.948-4.02,9.811-4.02
		c3.827,0,7.084,1.343,9.772,4.034c2.685,2.689,4.026,5.949,4.026,9.777c0,1.819-0.357,3.59-1.075,5.301
		c-0.714,1.715-1.726,3.219-3.026,4.52c-1.316,1.324-2.802,2.32-4.444,2.99c-1.647,0.669-3.396,1.004-5.253,1.004
		c-3.862,0-7.133-1.336-9.811-4.005C167.783,100.678,166.444,97.412,166.444,93.542L166.444,93.542z M169.715,93.606
		c0,3.079,1.034,5.688,3.098,7.832c2.064,2.144,4.562,3.211,7.486,3.211c2.907,0,5.381-1.067,7.431-3.211
		c2.045-2.144,3.068-4.753,3.068-7.832c0-3.103-1.02-5.727-3.058-7.878c-2.034-2.15-4.516-3.229-7.441-3.229
		c-2.966,0-5.471,1.079-7.512,3.229C170.738,87.879,169.715,90.503,169.715,93.606"/>
</g>
<path fill="#004896" d="M206.906,98.513c-2.162-0.843-3.801-2.008-4.91-3.501c-1.113-1.489-1.666-3.261-1.666-5.306
	c0-1.643,0.41-3.162,1.233-4.546c0.823-1.388,2.004-2.561,3.538-3.516c0.79-0.478,1.688-0.823,2.703-1.034
	c1.016-0.207,2.61-0.315,4.775-0.315h9.882v2.519h-5.647c1.102,1.016,1.91,2.076,2.429,3.186c0.522,1.109,0.786,2.342,0.786,3.703
	c0,2.373-0.699,4.324-2.091,5.852c-1.395,1.529-3.564,2.718-6.505,3.557c-0.459,0.139-1.113,0.312-1.959,0.526
	c-3.076,0.774-4.613,1.868-4.613,3.282c0,1.316,2.109,2.178,6.328,2.583c0.132,0.019,0.24,0.03,0.315,0.03
	c4.14,0.398,6.975,1.128,8.502,2.178c1.522,1.049,2.286,2.691,2.286,4.925c0,2.562-1.008,4.471-3.02,5.734
	c-2.012,1.26-5.064,1.888-9.167,1.888c-3.678,0-6.486-0.605-8.434-1.816c-1.944-1.215-2.918-2.955-2.918-5.23
	c0-1.718,0.628-3.154,1.88-4.309s2.985-1.888,5.208-2.192c-1.162-0.271-2.058-0.729-2.686-1.376s-0.939-1.433-0.939-2.361
	c0-1,0.41-1.895,1.229-2.678C204.266,99.513,205.42,98.916,206.906,98.513L206.906,98.513z M210.463,108.176
	c-3.027,0-5.275,0.421-6.742,1.263c-1.467,0.839-2.196,2.117-2.196,3.84c0,1.451,0.76,2.583,2.286,3.384
	c1.52,0.801,3.663,1.203,6.423,1.203c3.026,0,5.32-0.425,6.881-1.274c1.564-0.85,2.346-2.109,2.346-3.771
	c0-1.568-0.732-2.733-2.199-3.497C215.794,108.556,213.528,108.176,210.463,108.176L210.463,108.176z M203.289,89.763
	c0,1.895,0.673,3.508,2.023,4.839c1.35,1.327,2.993,1.993,4.926,1.993c1.913,0,3.542-0.67,4.884-2.012
	c1.339-1.339,2.012-2.963,2.012-4.881c0-1.914-0.673-3.538-2.012-4.881c-1.342-1.338-2.971-2.008-4.884-2.008
	c-1.918,0-3.554,0.682-4.911,2.039C203.965,86.213,203.289,87.845,203.289,89.763"/>
<g>
	<polyline fill="#004896" points="239.276,101.671 228.15,80.295 231.456,80.295 240.885,98.377 249.707,80.295 252.756,80.295 
		233.208,120.193 230.218,120.193 239.276,101.671 	"/>
</g>
<g>
	<path fill="#808284" d="M50.261,14.779V1.378h1.919v13.401H50.261z"/>
	<path fill="#808284" d="M57.339,14.779V1.378h1.662l8.802,10.402V1.378h1.919v13.401h-1.705L59.221,4.365v10.414H57.339z"/>
	<path fill="#808284" d="M74.16,13.724v-2.521c0.605,0.694,1.185,1.194,1.737,1.499c0.551,0.304,1.141,0.458,1.766,0.458
		c0.663,0,1.186-0.154,1.569-0.462c0.382-0.309,0.575-0.728,0.575-1.258c0-0.433-0.132-0.812-0.389-1.141
		c-0.262-0.327-0.88-0.801-1.857-1.417c-1.52-0.974-2.471-1.729-2.858-2.264c-0.387-0.536-0.581-1.173-0.581-1.912
		c0-1.038,0.369-1.889,1.106-2.555c0.738-0.666,1.688-1,2.85-1c0.517,0,1.026,0.075,1.528,0.226c0.5,0.149,1.006,0.378,1.52,0.688
		v2.174c-0.589-0.474-1.13-0.818-1.628-1.032c-0.499-0.216-0.995-0.322-1.493-0.322c-0.6,0-1.089,0.147-1.469,0.444
		c-0.379,0.297-0.569,0.677-0.569,1.143c0,0.666,0.79,1.489,2.371,2.47c0.128,0.077,0.226,0.135,0.289,0.173
		c1.276,0.797,2.115,1.499,2.508,2.106c0.396,0.609,0.593,1.361,0.593,2.26c0,1.019-0.37,1.861-1.109,2.527
		s-1.685,0.998-2.837,0.998c-0.72,0-1.371-0.104-1.949-0.306C75.252,14.495,74.694,14.17,74.16,13.724z"/>
	<path fill="#808284" d="M89.74,14.779V3.109h-4.932V1.378H96.59v1.731h-4.932v11.669H89.74z"/>
	<path fill="#808284" d="M100.463,14.779V1.378h1.919v13.401H100.463z"/>
	<path fill="#808284" d="M111.157,14.779V3.109h-4.932V1.378h11.782v1.731h-4.931v11.669H111.157z"/>
	<path fill="#808284" d="M121.732,1.378h1.92v7.684c0,0.857,0.045,1.463,0.137,1.82c0.093,0.357,0.246,0.667,0.463,0.929
		c0.393,0.466,0.859,0.813,1.398,1.042c0.538,0.229,1.15,0.346,1.837,0.346c1.152,0,2.083-0.301,2.788-0.898
		c0.703-0.602,1.055-1.392,1.055-2.376V1.378h1.922v8.605c0,1.493-0.532,2.702-1.599,3.63c-1.063,0.927-2.453,1.391-4.166,1.391
		c-1.014,0-1.929-0.181-2.745-0.54c-0.815-0.361-1.504-0.889-2.063-1.585c-0.345-0.414-0.589-0.876-0.731-1.385
		c-0.144-0.512-0.215-1.297-0.215-2.354V1.378z"/>
	<path fill="#808284" d="M141.923,14.779V3.109h-4.931V1.378h11.783v1.731h-4.934v11.669H141.923z"/>
	<path fill="#808284" d="M152.573,14.779V1.378h8.059v1.694h-6.175v4.065h5.986V8.87h-5.986v4.177h6.362v1.731H152.573z"/>
	<path fill="#808284" d="M172.682,14.779V1.378h7.603v1.694h-5.723v3.952h5.535v1.733h-5.535v6.021H172.682z"/>
	<path fill="#808284" d="M184.075,8.031c0-0.893,0.185-1.759,0.549-2.6c0.361-0.84,0.88-1.583,1.55-2.228
		c0.684-0.654,1.459-1.154,2.319-1.499c0.861-0.344,1.771-0.515,2.723-0.515c0.97,0,1.892,0.175,2.764,0.521
		c0.872,0.346,1.64,0.844,2.305,1.493c0.695,0.677,1.219,1.429,1.572,2.256c0.35,0.827,0.526,1.726,0.526,2.694
		c0,0.912-0.181,1.786-0.542,2.623c-0.361,0.838-0.876,1.575-1.538,2.211c-0.695,0.664-1.474,1.166-2.335,1.506
		c-0.857,0.34-1.774,0.511-2.752,0.511c-0.951,0-1.865-0.175-2.737-0.524c-0.872-0.352-1.64-0.848-2.305-1.493
		c-0.688-0.666-1.211-1.421-1.564-2.264C184.255,9.885,184.075,8.986,184.075,8.031z M186.109,8.092c0,0.68,0.128,1.327,0.384,1.944
		s0.624,1.162,1.105,1.639c0.466,0.476,1.016,0.842,1.643,1.1c0.632,0.257,1.29,0.385,1.975,0.385c0.703,0,1.361-0.126,1.981-0.376
		c0.616-0.252,1.169-0.621,1.654-1.109c0.478-0.478,0.85-1.022,1.109-1.639s0.388-1.264,0.388-1.944
		c0-0.679-0.128-1.322-0.384-1.929c-0.256-0.605-0.636-1.158-1.132-1.662c-0.481-0.489-1.03-0.861-1.65-1.118
		c-0.621-0.258-1.279-0.386-1.967-0.386c-0.666,0-1.313,0.132-1.937,0.391c-0.62,0.259-1.185,0.632-1.681,1.113
		c-0.481,0.463-0.85,1.008-1.105,1.63C186.237,6.753,186.109,7.407,186.109,8.092z"/>
	<path fill="#808284" d="M202.703,14.779V1.378h3.937c1.354,0,2.395,0.318,3.128,0.957c0.737,0.639,1.105,1.542,1.105,2.711
		c0,0.88-0.203,1.59-0.602,2.126c-0.402,0.536-1.034,0.938-1.898,1.207c0.226,0.122,0.436,0.284,0.632,0.485
		c0.199,0.201,0.451,0.54,0.763,1.011l3.249,4.903h-2.313l-2.294-3.514c-0.691-1.061-1.252-1.737-1.681-2.03
		c-0.429-0.293-0.936-0.44-1.526-0.44h-0.579v5.984H202.703z M204.624,7.174h1.602c0.899,0,1.572-0.173,2.02-0.517
		c0.447-0.344,0.669-0.871,0.669-1.581c0-0.728-0.214-1.258-0.635-1.587c-0.425-0.327-1.109-0.493-2.054-0.493h-1.602V7.174z"/>
</g>
<path fill="#004896" d="M42.28,21.816c-1.669-1.128-3.256-1.959-4.76-2.497c-1.506-0.536-2.999-0.805-4.473-0.805
	c-2.437,0-4.432,0.714-5.984,2.139c-1.555,1.427-2.331,3.223-2.331,5.385c0,1.761,0.498,3.196,1.497,4.307
	c0.998,1.111,3.145,2.365,6.446,3.762c0.19,0.079,0.478,0.192,0.861,0.346c3.719,1.511,6.202,2.965,7.449,4.361
	c0.861,0.937,1.517,2.008,1.968,3.213c0.449,1.205,0.675,2.487,0.675,3.845c0,3.196-1.109,5.823-3.328,7.879
	c-2.222,2.055-5.065,3.085-8.528,3.085c-1.743,0-3.47-0.297-5.181-0.887c-1.715-0.59-3.442-1.478-5.184-2.66v-3.905
	c1.897,1.474,3.689,2.572,5.383,3.288c1.694,0.718,3.335,1.077,4.924,1.077c2.623,0,4.698-0.718,6.23-2.154
	c1.532-1.437,2.295-3.388,2.295-5.858c0-1.82-0.521-3.307-1.566-4.467c-1.047-1.156-3.431-2.512-7.15-4.061
	c-3.85-1.59-6.486-3.192-7.904-4.813c-1.417-1.617-2.126-3.681-2.126-6.189c0-3.121,1.077-5.674,3.235-7.655
	c2.154-1.981,4.969-2.975,8.438-2.975c1.572,0,3.104,0.218,4.599,0.651c1.495,0.43,3,1.098,4.514,1.999V21.816z"/>
<g>
	<path fill="#F8991D" d="M286.931,30.485c0,16.839-13.652,30.484-30.49,30.484s-30.486-13.645-30.486-30.484
		C225.955,13.649,239.603,0,256.441,0S286.931,13.649,286.931,30.485"/>
</g>
<path fill="#FFFFFF" d="M260.596,10.712c0,2.273-1.843,4.113-4.117,4.113c-2.271,0-4.117-1.84-4.117-4.113
	c0-2.275,1.846-4.121,4.117-4.121C258.753,6.591,260.596,8.438,260.596,10.712"/>
<g>
	<path fill="#FFFFFF" d="M263.326,24.884c0,3.591-2.914,6.505-6.509,6.505c-3.591,0-6.501-2.914-6.501-6.505
		c0-3.595,2.91-6.503,6.501-6.503C260.412,18.381,263.326,21.29,263.326,24.884"/>
</g>
<path fill="#FFFFFF" d="M273.263,25.858c0,1.867-1.515,3.388-3.388,3.388c-1.864,0-3.384-1.521-3.384-3.388
	c0-1.871,1.52-3.388,3.384-3.388C271.749,22.47,273.263,23.987,273.263,25.858"/>
<g>
	<path fill="#FFFFFF" d="M287.165,26.042c0,2.623-2.128,4.751-4.749,4.751c-2.628,0-4.757-2.128-4.757-4.751
		s2.129-4.752,4.757-4.752C285.037,21.29,287.165,23.419,287.165,26.042"/>
</g>
<path fill="#FFFFFF" d="M261.084,40.473c0,2.621-2.128,4.749-4.749,4.749c-2.628,0-4.752-2.128-4.752-4.749
	c0-2.625,2.124-4.752,4.752-4.752C258.957,35.721,261.084,37.849,261.084,40.473"/>
<g>
	<path fill="#FFFFFF" d="M248.808,40.765c0,1.604-1.297,2.899-2.899,2.899c-1.602,0-2.902-1.295-2.902-2.899
		c0-1.6,1.301-2.897,2.902-2.897C247.511,37.868,248.808,39.165,248.808,40.765"/>
</g>
<path fill="#FFFFFF" d="M274.441,40.473c0,2.621-2.129,4.749-4.757,4.749c-2.621,0-4.745-2.128-4.745-4.749
	c0-2.625,2.124-4.752,4.745-4.752C272.312,35.721,274.441,37.849,274.441,40.473"/>
<g>
	<path fill="#FFFFFF" d="M260.013,52.359c0,1.899-1.433,3.435-3.196,3.435c-1.756,0-3.185-1.536-3.185-3.435
		c0-1.895,1.429-3.433,3.185-3.433C258.581,48.926,260.013,50.464,260.013,52.359"/>
</g>
<g>
	<path fill="#808284" d="M5.072,137.546c0.03,0.045,0.03,0.045,0.045,0.07c0.03,0.046,0,0.016,0.043,0.102
		c0.028,0.046,0.013,0.016,0.058,0.133c0.013,0,0.043,0.07,0.072,0.188c0.015,0.026,0.043,0.071,0.058,0.128
		c0.145,0.35,0.173,0.421,0.491,1.36c0.015,0.042,0.073,0.188,0.132,0.388c0.071,0.203,0.143,0.392,0.201,0.564
		c0.188,0.563,0.302,0.839,0.434,1.098c0.117,0.192,0.117,0.146,0.577,0.305l0.088,0.03l-0.03,0.406H7.14H6.36H6.058H5.595
		c-0.074,0-0.102-0.03-0.145-0.117l-0.16-0.478l-0.636-2.124c-0.203-0.666-0.29-0.88-0.737-1.85H3.687H3.268H3.166L3.08,138.14
		c0,0.057-0.043,0.244-0.086,0.478c-0.015,0.071-0.045,0.229-0.086,0.417c-0.045,0.219-0.059,0.305-0.088,0.478
		c0,0.015-0.013,0.03-0.013,0.03l-0.03,0.173l-0.028,0.158l-0.028,0.173c-0.074,0.463-0.147,0.797-0.16,0.838
		c-0.013,0.087-0.028,0.117-0.028,0.174c-0.015,0.029,0,0.015-0.015,0.074c-0.015,0.027,0,0.012-0.015,0.042
		c0,0.042,0.015-0.015-0.013,0.173c-0.03,0.086-0.03,0.086-0.03,0.117v0.07v0.016c0,0.057,0.13,0.143,0.247,0.188
		c0.086,0.016,0.056,0.016,0.086,0.016c0.045,0.026,0.015,0.016,0.058,0.026h0.028c0.015,0.015,0.015,0.015,0.058,0.03
		c0.013,0,0.043,0.015,0.086,0.029c0.015,0.016,0.043,0.016,0.074,0.027l-0.015,0.466l-0.218-0.015H2.645H2.328H1.807H1.169H0.594
		H0.216L0,142.333l0.158-0.466l0.117-0.027c0.767-0.188,0.592-0.131,0.722-0.161l0.16-0.087c0.058-0.041,0.145-0.229,0.201-0.519
		l0.696-3.399l0.635-3.223c0.117-0.604,0.117-0.533,0.13-0.665c0.017-0.143,0.017-0.185,0.017-0.229
		c0-0.143-0.075-0.218-0.304-0.289l-0.448-0.132l-0.102-0.026l0.013-0.391l1.243,0.029l2.414-0.09
		c1.316-0.041,2.198,0.695,2.198,1.854C7.849,135.929,6.678,137.214,5.072,137.546z M5.072,133.195c-0.173,0-0.491,0.016-0.59,0.031
		c-0.131,0.011-0.218,0.025-0.248,0.025H4.061v0.117c0,0.045-0.057,0.289-0.143,0.609c-0.015,0.057-0.045,0.199-0.071,0.387
		c-0.015,0.086-0.059,0.248-0.102,0.451c-0.015,0.113-0.015,0.113-0.073,0.346c-0.013,0.087,0,0.027-0.043,0.215
		c-0.015,0.102-0.015,0.029-0.045,0.203c-0.013,0.102,0.015,0-0.057,0.319c-0.028,0.158-0.015,0.071-0.058,0.301
		c-0.028,0.116-0.013,0.075-0.028,0.132c-0.03,0.116-0.03,0.086-0.043,0.203c-0.015,0.086-0.028,0.203-0.058,0.346
		c-0.015,0.086-0.015,0.086-0.043,0.233c0,0.026-0.015,0.086-0.028,0.157H3.41c1.923,0,3.181-1.025,3.181-2.586
		C6.591,133.804,5.984,133.195,5.072,133.195z"/>
	<path fill="#808284" d="M12.359,138.603c-0.78,0.462-1.461,0.65-2.846,0.777c-0.03,0.203-0.03,0.233-0.03,0.534
		c0,1.128,0.447,1.662,1.373,1.662c0.564,0,0.925-0.144,1.763-0.677l-0.028,0.59c-0.81,0.595-1.562,0.898-2.299,0.898
		c-1.113,0-1.921-0.969-1.921-2.285c0-2.43,1.979-4.61,4.162-4.61c0.737,0,1.243,0.437,1.243,1.068
		C13.775,137.343,13.284,138.054,12.359,138.603z M12.028,136.173c-0.609,0-1.259,0.402-1.78,1.098
		c-0.361,0.504-0.419,0.636-0.679,1.576c0.824-0.057,1.128-0.102,1.619-0.305c0.912-0.361,1.517-1.083,1.517-1.764
		C12.705,136.417,12.431,136.173,12.028,136.173z"/>
	<path fill="#808284" d="M15.495,142.375c-0.562,0-0.867-0.377-0.867-1.068c0-0.74,0.188-1.865,0.666-3.76
		c0.13-0.549,0.201-0.854,0.201-0.971c0-0.169-0.102-0.244-0.592-0.402l-0.259-0.086l0.115-0.406l0.218-0.016l0.838-0.025
		l0.679-0.046c0.013,0,0.043-0.015,0.073-0.015h0.086h0.071c0.102,0,0.173,0.061,0.173,0.158c0,0.074-0.072,0.305-0.158,0.537
		c-0.03,0.041-0.015,0.026-0.043,0.098c-0.017,0.034,0.013-0.082-0.13,0.35l-0.406,1.286c-0.305,0.966-0.577,2.357-0.577,2.907
		c0,0.402,0.173,0.635,0.491,0.635c0.218,0,0.376-0.045,0.579-0.143c1.459-0.752,2.427-2.402,2.427-4.151
		c0-0.447-0.043-0.839-0.115-1.128c-0.045-0.158-0.073-0.274-0.073-0.274l-0.013-0.071c0.013-0.045,0.041-0.057,0.102-0.072
		l0.432-0.131l0.348-0.117c0.058-0.011,0.043-0.011,0.071-0.011l0.013-0.015h0.015l0.045-0.016l0.042-0.016
		c0.102,0.016,0.188,0.463,0.188,0.967C20.135,139.294,17.751,142.375,15.495,142.375z"/>
	<path fill="#808284" d="M22.955,142.419c-1.301,0-2.213-1.031-2.213-2.505c0-2.384,1.781-4.376,3.918-4.376
		c1.314,0,2.125,0.936,2.125,2.455C26.785,140.377,25.021,142.419,22.955,142.419z M24.343,136.117
		c-1.346,0-2.516,1.688-2.516,3.641c0,1.274,0.506,1.996,1.402,1.996c1.357,0,2.471-1.605,2.471-3.572
		C25.7,136.865,25.209,136.117,24.343,136.117z"/>
	<path fill="#808284" d="M30.848,132.023c-0.059,0.218-0.261,0.924-0.361,1.346c-0.061,0.218-0.147,0.635-0.233,0.996
		c-0.056,0.248,0,0.016-0.173,0.768c-0.346,1.575-0.29,1.301-0.462,2.139l-0.564,2.734c-0.201,0.951-0.231,1.154-0.231,1.301
		c0,0.199,0.13,0.285,0.419,0.285c0.203,0,0.421-0.025,0.782-0.086l-0.088,0.463c-0.607,0.248-1.372,0.432-1.763,0.432
		c-0.318,0-0.389-0.127-0.389-0.646c0-0.564,0.129-0.898,0.376-2.414l0.013-0.086l0.13-0.609c0.304-1.43,0.289-1.388,0.521-2.5
		c0.19-0.94,0.13-0.621,0.203-0.997l0.058-0.274l0.057-0.289c0.188-0.971,0.319-1.707,0.319-1.809c0-0.158-0.03-0.174-0.233-0.199
		c-0.013-0.016,0-0.016-0.102-0.031c-0.042,0,0.015,0-0.214-0.045c-0.088-0.011-0.117-0.011-0.131-0.025
		c-0.03,0,0,0.015-0.216-0.031c-0.028,0-0.059-0.015-0.117-0.015l0.088-0.433h0.214l0.71-0.06l0.288-0.026
		c0.767-0.075,0.679-0.061,0.752-0.075c0.117-0.026,0.188-0.042,0.201-0.042h0.102l0.074,0.072c0,0,0,0,0,0.029
		C30.876,131.925,30.863,131.966,30.848,132.023z"/>
	<path fill="#808284" d="M37.409,141.998c-0.838,0.275-1.444,0.402-1.88,0.402c-0.201,0-0.303-0.112-0.303-0.342
		c0-0.305,0.073-0.824,0.247-1.65c-0.419,0.635-0.579,0.854-0.839,1.113c-0.592,0.608-1.243,0.913-1.936,0.913
		c-0.722,0-1.2-0.478-1.2-1.188c0-0.447,0.042-0.778,0.201-1.414l0.579-2.24c0.145-0.579,0.186-0.813,0.186-1
		c0-0.087-0.013-0.129-0.071-0.245v-0.015c-0.143-0.057-0.173-0.072-0.549-0.143c-0.057-0.016-0.203-0.045-0.245-0.061l0.1-0.478
		h0.03c0.028,0,0.1,0,0.173-0.011h0.175c0.387,0,0.331-0.016,0.432-0.031h0.143c0.102-0.015,0.378-0.029,0.609-0.06
		c0.028-0.011,0.028-0.011,0.071-0.011c0.015,0-0.015,0,0.117-0.016h0.041h0.073l0.117,0.117v0.143l-0.117,0.447
		c-0.058,0.244-0.013,0.158-0.129,0.492c0,0.016,0.015-0.015-0.073,0.305c-0.028,0.072-0.028,0.102-0.028,0.102
		c-0.16,0.545-0.102,0.346-0.16,0.575c-0.13,0.463-0.085,0.305-0.13,0.478c-0.071,0.274-0.115,0.437-0.203,0.768
		c-0.173,0.605-0.115,0.406-0.173,0.635c-0.158,0.534-0.229,1.012-0.229,1.388c0,0.406,0.272,0.665,0.707,0.665
		c0.767,0,1.692-0.793,2.282-1.966c0.248-0.504,0.478-1.256,0.681-2.268c0.117-0.563,0.29-1.402,0.305-1.534
		c0.013-0.057,0.013-0.086,0.013-0.143c0.015-0.061,0.058-0.102,0.088-0.102h0.374h0.203h0.16l0.086-0.016h0.043l0.102,0.072
		c-0.028,0.203-0.059,0.319-0.145,0.62c-0.073,0.29-0.073,0.26-0.274,1.144c-0.175,0.767-0.117,0.492-0.391,1.793
		c-0.058,0.274-0.058,0.316-0.115,0.594c-0.015,0.098,0-0.015-0.073,0.357c-0.043,0.248-0.13,0.768-0.173,0.985
		c-0.015,0.06-0.015,0.06-0.015,0.116c-0.015,0.072-0.015,0.098-0.015,0.117c0,0.143,0.145,0.229,0.391,0.229
		c0.203,0,0.158,0,0.825-0.086L37.409,141.998z"/>
	<path fill="#808284" d="M42.396,136.128h-1.389l-0.057,0.319l-0.521,2.257l-0.404,1.85c-0.145,0.68-0.145,0.65-0.145,0.764
		c0,0.188,0.145,0.318,0.361,0.318c0.175,0,0.29-0.015,0.94-0.172l-0.102,0.533c-0.462,0.146-0.65,0.203-0.94,0.29
		c-0.389,0.101-0.607,0.132-0.809,0.132c-0.317,0-0.505-0.174-0.505-0.451c0-0.158,0.013-0.275,0.086-0.662
		c0-0.045,0-0.016,0.015-0.102c0-0.045-0.015,0,0.057-0.32c0.043-0.218,0.015-0.056,0.117-0.507l0.389-1.835l0.088-0.418
		c0.1-0.522,0.188-0.838,0.188-0.838l0.028-0.146c0.057-0.29,0.028-0.174,0.072-0.377c0.045-0.188,0.045-0.143,0.058-0.273
		c0.015-0.072,0.028-0.199,0.058-0.346h-1.011l0.115-0.55h1.011c0.086-0.274,0.073-0.203,0.16-0.767l0.086-0.534l0.03-0.173
		c0.65-0.376,0.75-0.463,1.025-0.926h0.319c-0.088,0.479-0.102,0.58-0.319,1.332c-0.028,0.127-0.043,0.158-0.115,0.477
		c-0.059,0.215-0.071,0.256-0.071,0.287l-0.061,0.273h0.203c0.303,0,0.666-0.041,1.214-0.127L42.396,136.128z"/>
	<path fill="#808284" d="M45.2,141.968c-0.722,0.263-1.314,0.391-1.835,0.391c-0.274,0-0.406-0.102-0.406-0.316
		c0-0.116,0.059-0.508,0.132-0.854l0.158-0.736l0.218-1.057c0.201-0.996,0.216-1.026,0.333-1.794
		c0.086-0.519,0.145-0.966,0.129-1.026c0-0.041-0.015-0.102-0.03-0.143c-0.043-0.087-0.043-0.087-0.057-0.102
		c-0.015-0.016-0.015-0.016-0.058-0.03c-0.043-0.011-0.03-0.011-0.203-0.056c-0.158-0.046-0.231-0.057-0.274-0.057h-0.013
		c0,0-0.03-0.016-0.059-0.016c-0.015-0.015-0.043-0.015-0.101-0.029c-0.03,0-0.043,0-0.087-0.016l0.102-0.488h0.231l0.635-0.031
		c0.303-0.015,0.376-0.015,0.549-0.045c0.116-0.015,0.203-0.015,0.218-0.015c0.072-0.011,0.057,0,0.143-0.011
		c0.043-0.016,0.015-0.016,0.043-0.016h0.043h0.015H45.1l0.115,0.117v0.143c-0.028,0.057-0.028,0.029-0.071,0.232
		c-0.015,0.072-0.015,0.042-0.03,0.087v0.015c0,0.042,0,0.027-0.013,0.057v0.026l-0.015,0.03l-0.117,0.492
		c-0.028,0.143-0.028,0.188-0.071,0.361l-0.043,0.173c-0.145,0.563-0.132,0.534-0.145,0.65c-0.043,0.188-0.015,0.147-0.043,0.26
		c-0.015,0.075-0.015,0.03-0.087,0.451c-0.015,0.102-0.03,0.143-0.03,0.143c-0.13,0.681-0.071,0.448-0.13,0.722
		c-0.102,0.564-0.071,0.335-0.145,0.737c-0.102,0.563-0.158,0.925-0.158,1.113c0,0.146,0.086,0.218,0.303,0.218h0.073
		c0.102,0,0.115,0,0.391-0.061c0.028,0,0,0,0.115-0.011c0.058-0.015,0.028-0.015,0.086-0.03c0.13-0.016,0.13-0.016,0.203-0.029
		L45.2,141.968z M45.2,133.775l-0.46,0.214l-0.073,0.03c-0.015,0-0.015-0.016-0.028-0.03l-0.015-0.03
		c-0.043-0.082-0.015,0.02-0.13-0.315l-0.043-0.128c-0.045-0.075-0.03-0.061-0.045-0.132c-0.013-0.03-0.028-0.087-0.056-0.157
		l-0.043-0.091c0-0.011,0,0-0.015-0.041c-0.03-0.071-0.043-0.116-0.043-0.132l0.058-0.117l0.435-0.199l0.331-0.218l0.074-0.026
		l0.084-0.029c0.06,0.056,0.073,0.07,0.088,0.116l0.173,0.376c0.073,0.143,0.058,0.128,0.086,0.215c0.015,0.029,0.015,0,0.043,0.102
		l0.043,0.131l0.03,0.102C45.662,133.527,45.547,133.613,45.2,133.775z"/>
	<path fill="#808284" d="M48.467,142.419c-1.301,0-2.211-1.031-2.211-2.505c0-2.384,1.776-4.376,3.916-4.376
		c1.316,0,2.125,0.936,2.125,2.455C52.297,140.377,50.533,142.419,48.467,142.419z M49.854,136.117
		c-1.344,0-2.515,1.688-2.515,3.641c0,1.274,0.507,1.996,1.402,1.996c1.359,0,2.472-1.605,2.472-3.572
		C51.214,136.865,50.723,136.117,49.854,136.117z"/>
	<path fill="#808284" d="M59.684,141.998c-0.78,0.275-1.329,0.422-1.705,0.422c-0.318,0-0.506-0.174-0.506-0.451
		c0-0.301,0.145-1.099,0.303-1.79l0.218-0.914l0.275-1.21c0.114-0.523,0.158-0.84,0.158-1.057c0-0.422-0.272-0.707-0.679-0.707
		c-0.867,0-2.008,1.24-2.688,2.947c-0.145,0.361-0.348,1.012-0.434,1.402c-0.042,0.215-0.072,0.447-0.143,0.981l-0.06,0.421
		c-0.028,0.245-0.071,0.301-0.173,0.29l-0.303-0.03c0,0-0.102,0.016-0.203,0.016c-0.057,0,0.015,0.015-0.216,0.015h-0.015
		c-0.058,0-0.115-0.045-0.115-0.087l0.028-0.116l0.086-0.35l0.117-0.605c0-0.03,0.015-0.102,0.028-0.203
		c0.073-0.315,0.086-0.433,0.216-1.154c0-0.06,0.015-0.087,0.101-0.594c0.087-0.493,0.13-0.636,0.218-1.083
		c0.115-0.538,0.229-1.361,0.229-1.564c0-0.057-0.028-0.128-0.071-0.244c-0.13-0.057-0.318-0.117-0.534-0.143
		c-0.073-0.016-0.203-0.045-0.261-0.061l0.102-0.478c0.058,0,0.102,0,0.216-0.011c0.015,0,0.203-0.031,0.464-0.031h0.13
		c0.057,0,0.015,0,0.188-0.015c0.072,0,0.389-0.03,0.592-0.045c0.015-0.011,0.015-0.011,0.058-0.011c0.013,0-0.015,0,0.115-0.016
		h0.059h0.073l0.1,0.117v0.143c0,0-0.013,0.045-0.028,0.086c0,0-0.015,0.045-0.028,0.087c0,0.015-0.017,0.06-0.03,0.132
		c-0.013,0.041-0.028,0.086-0.028,0.143l-0.117,0.492l-0.216,0.88L55,138.415c1.229-2.256,1.951-2.952,3.079-2.952
		c0.766,0,1.344,0.595,1.344,1.402c0,0.365-0.015,0.523-0.188,1.189l-0.274,1.082l-0.274,1.14c-0.117,0.492-0.203,0.898-0.203,1.042
		c0,0.188,0.145,0.318,0.376,0.318c0.173,0,0.318-0.029,0.925-0.172L59.684,141.998z"/>
	<path fill="#808284" d="M63.457,141.968c-0.722,0.263-1.316,0.391-1.835,0.391c-0.276,0-0.404-0.102-0.404-0.316
		c0-0.116,0.056-0.508,0.127-0.854l0.16-0.736l0.218-1.057c0.201-0.996,0.216-1.026,0.331-1.794
		c0.086-0.519,0.145-0.966,0.132-1.026c0-0.041-0.015-0.102-0.03-0.143c-0.043-0.087-0.043-0.087-0.058-0.102
		c-0.013-0.016-0.013-0.016-0.057-0.03c-0.045-0.011-0.028-0.011-0.203-0.056c-0.16-0.046-0.231-0.057-0.274-0.057h-0.015
		c0,0-0.028-0.016-0.058-0.016c-0.013-0.015-0.043-0.015-0.1-0.029c-0.028,0-0.045,0-0.088-0.016l0.102-0.488h0.231l0.638-0.031
		c0.303-0.015,0.374-0.015,0.549-0.045c0.115-0.015,0.203-0.015,0.216-0.015c0.071-0.011,0.058,0,0.145-0.011
		c0.043-0.016,0.015-0.016,0.043-0.016h0.043h0.015h0.071l0.117,0.117v0.143c-0.03,0.057-0.03,0.029-0.073,0.232
		c-0.013,0.072-0.013,0.042-0.028,0.087v0.015c0,0.042,0,0.027-0.015,0.057v0.026l-0.013,0.03l-0.117,0.492
		c-0.028,0.143-0.028,0.188-0.073,0.361l-0.043,0.173c-0.145,0.563-0.128,0.534-0.145,0.65c-0.042,0.188-0.013,0.147-0.042,0.26
		c-0.015,0.075-0.015,0.03-0.086,0.451c-0.015,0.102-0.03,0.143-0.03,0.143c-0.13,0.681-0.071,0.448-0.13,0.722
		c-0.101,0.564-0.073,0.335-0.145,0.737c-0.102,0.563-0.158,0.925-0.158,1.113c0,0.146,0.084,0.218,0.302,0.218h0.072
		c0.102,0,0.117,0,0.391-0.061c0.03,0,0,0,0.114-0.011c0.059-0.015,0.03-0.015,0.089-0.03c0.129-0.016,0.129-0.016,0.201-0.029
		L63.457,141.968z M63.457,133.775l-0.462,0.214l-0.071,0.03c-0.015,0-0.015-0.016-0.03-0.03l-0.013-0.03
		c-0.043-0.082-0.015,0.02-0.131-0.315l-0.043-0.128c-0.043-0.075-0.028-0.061-0.043-0.132c-0.015-0.03-0.028-0.087-0.059-0.157
		l-0.043-0.091c0-0.011,0,0-0.013-0.041c-0.028-0.071-0.045-0.116-0.045-0.132l0.059-0.117l0.434-0.199l0.333-0.218l0.071-0.026
		l0.088-0.029c0.057,0.056,0.071,0.07,0.086,0.116l0.173,0.376c0.072,0.143,0.059,0.128,0.086,0.215
		c0.015,0.029,0.015,0,0.043,0.102l0.043,0.131l0.028,0.102C63.919,133.527,63.805,133.613,63.457,133.775z"/>
	<path fill="#808284" d="M69.845,136.159l-0.229,0.248l-1.042,1.124l-1.214,1.361l-1.288,1.429l-0.664,0.737l-0.376,0.421
		l0.305-0.071c0.447-0.102,0.808-0.162,1.141-0.162c0.361,0,0.767,0.061,1.301,0.174c0.13,0.029,0.274,0.045,0.333,0.045
		c0.259,0,0.462-0.203,0.635-0.65l0.058-0.147h0.607l-0.073,0.188l-0.216,0.578l-0.173,0.564l-0.073,0.174
		c-0.491,0.172-0.795,0.229-1.185,0.229c-0.203,0-0.318-0.012-0.564-0.057l-0.564-0.098c-0.216-0.045-0.158-0.029-0.607-0.06
		c-0.333-0.03-0.419-0.03-0.505-0.03c-0.536,0-1.042,0.09-1.416,0.232l-0.376-0.462l0.318-0.319l0.854-0.778
		c0.13-0.132,0.216-0.203,0.664-0.681c0.897-0.939,1.344-1.429,2.111-2.297c0.476-0.55,0.621-0.737,1.055-1.316l-0.404-0.016h-1.344
		c-0.867,0-0.94,0.03-1.042,0.479l-0.549,0.029c0.1-0.553,0.071-0.451,0.13-0.838l0.086-0.523v-0.158
		c1.301,0.117,1.677,0.133,2.747,0.133h0.201c0.162,0,0.131-0.016,0.434-0.016h0.262c0.447,0,0.462,0,0.75-0.03L69.845,136.159z"/>
	<path fill="#808284" d="M73.127,141.968c-0.724,0.263-1.316,0.391-1.836,0.391c-0.275,0-0.404-0.102-0.404-0.316
		c0-0.116,0.058-0.508,0.129-0.854l0.16-0.736l0.216-1.057c0.203-0.996,0.218-1.026,0.333-1.794
		c0.086-0.519,0.145-0.966,0.132-1.026c0-0.041-0.017-0.102-0.03-0.143c-0.043-0.087-0.043-0.087-0.058-0.102
		c-0.013-0.016-0.013-0.016-0.057-0.03c-0.045-0.011-0.03-0.011-0.203-0.056c-0.16-0.046-0.231-0.057-0.274-0.057h-0.015
		c0,0-0.03-0.016-0.058-0.016c-0.015-0.015-0.043-0.015-0.1-0.029c-0.03,0-0.045,0-0.088-0.016l0.102-0.488h0.231l0.636-0.031
		c0.305-0.015,0.376-0.015,0.549-0.045c0.117-0.015,0.203-0.015,0.218-0.015c0.071-0.011,0.058,0,0.143-0.011
		c0.045-0.016,0.017-0.016,0.045-0.016h0.043h0.013h0.073l0.115,0.117v0.143c-0.028,0.057-0.028,0.029-0.071,0.232
		c-0.015,0.072-0.015,0.042-0.028,0.087v0.015c0,0.042,0,0.027-0.015,0.057v0.026l-0.013,0.03l-0.116,0.492
		c-0.028,0.143-0.028,0.188-0.073,0.361l-0.043,0.173c-0.145,0.563-0.13,0.534-0.145,0.65c-0.043,0.188-0.013,0.147-0.043,0.26
		c-0.013,0.075-0.013,0.03-0.086,0.451c-0.015,0.102-0.028,0.143-0.028,0.143c-0.131,0.681-0.073,0.448-0.131,0.722
		c-0.1,0.564-0.072,0.335-0.145,0.737c-0.1,0.563-0.158,0.925-0.158,1.113c0,0.146,0.086,0.218,0.303,0.218h0.073
		c0.102,0,0.117,0,0.391-0.061c0.028,0,0,0,0.114-0.011c0.059-0.015,0.028-0.015,0.088-0.03c0.128-0.016,0.128-0.016,0.201-0.029
		L73.127,141.968z M73.127,133.775l-0.462,0.214l-0.073,0.03c-0.013,0-0.013-0.016-0.028-0.03l-0.015-0.03
		c-0.043-0.082-0.013,0.02-0.129-0.315l-0.043-0.128c-0.043-0.075-0.03-0.061-0.043-0.132c-0.015-0.03-0.03-0.087-0.059-0.157
		l-0.043-0.091c0-0.011,0,0-0.013-0.041c-0.03-0.071-0.045-0.116-0.045-0.132l0.059-0.117l0.434-0.199l0.331-0.218l0.073-0.026
		l0.086-0.029c0.058,0.056,0.073,0.07,0.086,0.116l0.175,0.376c0.072,0.143,0.059,0.128,0.086,0.215
		c0.015,0.029,0.015,0,0.043,0.102l0.043,0.131l0.028,0.102C73.59,133.527,73.476,133.613,73.127,133.775z"/>
	<path fill="#808284" d="M80.789,141.998c-0.78,0.275-1.331,0.422-1.707,0.422c-0.317,0-0.506-0.174-0.506-0.451
		c0-0.301,0.146-1.099,0.305-1.79l0.217-0.914l0.274-1.21c0.116-0.523,0.159-0.84,0.159-1.057c0-0.422-0.274-0.707-0.679-0.707
		c-0.868,0-2.01,1.24-2.69,2.947c-0.145,0.361-0.346,1.012-0.432,1.402c-0.044,0.215-0.073,0.447-0.146,0.981l-0.058,0.421
		c-0.028,0.245-0.071,0.301-0.173,0.29l-0.305-0.03c0,0-0.1,0.016-0.201,0.016c-0.058,0,0.013,0.015-0.216,0.015h-0.017
		c-0.057,0-0.115-0.045-0.115-0.087l0.03-0.116l0.084-0.35l0.117-0.605c0-0.03,0.015-0.102,0.028-0.203
		c0.074-0.315,0.088-0.433,0.218-1.154c0-0.06,0.015-0.087,0.101-0.594c0.087-0.493,0.13-0.636,0.217-1.083
		c0.114-0.538,0.231-1.361,0.231-1.564c0-0.057-0.028-0.128-0.071-0.244c-0.13-0.057-0.318-0.117-0.536-0.143
		c-0.072-0.016-0.203-0.045-0.26-0.061l0.1-0.478c0.059,0,0.102,0,0.218-0.011c0.015,0,0.203-0.031,0.462-0.031h0.13
		c0.059,0,0.015,0,0.188-0.015c0.074,0,0.392-0.03,0.593-0.045c0.015-0.011,0.015-0.011,0.059-0.011c0.015,0-0.014,0,0.114-0.016
		h0.061h0.071l0.102,0.117v0.143c0,0-0.016,0.045-0.03,0.086c0,0-0.015,0.045-0.028,0.087c0,0.015-0.015,0.06-0.03,0.132
		c-0.013,0.041-0.028,0.086-0.028,0.143l-0.116,0.492l-0.216,0.88l-0.201,0.813c1.228-2.256,1.951-2.952,3.077-2.952
		c0.768,0,1.345,0.595,1.345,1.402c0,0.365-0.014,0.523-0.188,1.189l-0.274,1.082l-0.272,1.14c-0.117,0.492-0.205,0.898-0.205,1.042
		c0,0.188,0.145,0.318,0.378,0.318c0.173,0,0.315-0.029,0.923-0.172L80.789,141.998z"/>
	<path fill="#808284" d="M88.234,135.869l-0.073,0.248c-0.028,0.113-0.028,0.083-0.071,0.271l-0.044,0.173h-0.276h-0.346h-0.274
		h-0.116c0.058,0.391,0.073,0.624,0.073,0.782c0,1.459-1.286,2.76-2.719,2.76c-0.173,0-0.317-0.016-0.577-0.057
		c-0.043,0.117-0.087,0.173-0.16,0.305c-0.058,0.102-0.173,0.361-0.231,0.533c0.016,0.147,0.13,0.188,0.897,0.377
		c0.577,0.146,1.344,0.375,1.705,0.519c0.563,0.218,0.838,0.595,0.838,1.112c0,1.377-1.85,2.779-3.687,2.779
		c-1.329,0-2.384-0.768-2.384-1.737c0-0.636,0.433-1.315,1.098-1.718l0.478-0.29l0.115-0.071c-0.303-0.248-0.374-0.35-0.374-0.492
		c0-0.117,0.028-0.158,0.173-0.32c0.028-0.025,0.071-0.086,0.145-0.158c0.028-0.029,0.043-0.056,0.071-0.086
		c0.028-0.045,0.059-0.071,0.073-0.086l0.694-0.839c-0.638-0.579-0.825-0.955-0.825-1.662c0-1.504,1.244-2.733,2.762-2.733
		c0.549,0,0.795,0.086,1.474,0.508c0.102,0,0.231-0.016,0.289-0.03c0.016,0,0.057,0,0.117-0.015
		c0.084-0.012,0.157-0.027,0.186-0.027c0.132-0.029,0.219-0.045,0.231-0.045l0.521-0.102l0.26-0.057L88.234,135.869z
		 M84.908,142.633l-0.549-0.173l-0.767-0.203l-0.52-0.158c-0.811,0.402-1.187,0.91-1.187,1.576c0,0.809,0.636,1.33,1.619,1.33
		c1.199,0,2.213-0.736,2.213-1.605C85.718,142.994,85.558,142.836,84.908,142.633z M84.879,136.072
		c-0.854,0-1.488,0.793-1.488,1.892c0,0.884,0.533,1.519,1.271,1.519c0.825,0,1.418-0.793,1.418-1.88
		C86.08,136.662,85.617,136.072,84.879,136.072z"/>
	<path fill="#808284" d="M95.026,136.896c-0.145-0.621-0.391-0.854-0.925-0.854c-0.419,0-0.795,0.289-0.795,0.619
		c0,0.305,0.159,0.666,0.795,1.768c0.737,1.271,0.854,1.561,0.854,2.08c0,1.184-0.911,1.951-2.327,1.951
		c-0.65,0-1.012-0.143-1.605-0.621l0.825-0.883c0.274,0.635,0.592,0.868,1.185,0.868c0.563,0,0.968-0.376,0.968-0.895
		c0-0.364-0.216-0.854-0.882-1.967c-0.65-1.087-0.765-1.372-0.765-1.823c0-0.981,0.866-1.678,2.094-1.678
		c0.595,0,0.884,0.117,1.505,0.595L95.026,136.896z"/>
	<path fill="#808284" d="M100.403,137.388c0.073-0.391,0.073-0.422,0.073-0.538c0-0.417-0.304-0.722-0.736-0.722
		c-1.302,0-2.516,1.835-2.516,3.816c0,0.91,0.447,1.52,1.126,1.52c0.607,0,1.113-0.32,1.923-1.2v0.753
		c-0.854,0.996-1.402,1.326-2.226,1.326c-1.098,0-1.878-0.98-1.878-2.368c0-2.373,1.937-4.468,4.119-4.468
		c0.679,0,1.026,0.188,1.415,0.783L100.403,137.388z"/>
	<path fill="#808284" d="M104.422,141.968c-0.722,0.263-1.315,0.391-1.837,0.391c-0.274,0-0.404-0.102-0.404-0.316
		c0-0.116,0.057-0.508,0.13-0.854l0.16-0.736l0.216-1.057c0.203-0.996,0.219-1.026,0.333-1.794c0.087-0.519,0.145-0.966,0.13-1.026
		c0-0.041-0.015-0.102-0.028-0.143c-0.043-0.087-0.043-0.087-0.059-0.102c-0.013-0.016-0.013-0.016-0.058-0.03
		c-0.044-0.011-0.028-0.011-0.201-0.056c-0.16-0.046-0.231-0.057-0.276-0.057h-0.014c0,0-0.03-0.016-0.058-0.016
		c-0.016-0.015-0.044-0.015-0.102-0.029c-0.028,0-0.044,0-0.087-0.016l0.102-0.488h0.231l0.636-0.031
		c0.304-0.015,0.376-0.015,0.549-0.045c0.116-0.015,0.203-0.015,0.218-0.015c0.071-0.011,0.059,0,0.143-0.011
		c0.045-0.016,0.016-0.016,0.045-0.016h0.044h0.013h0.073l0.115,0.117v0.143c-0.028,0.057-0.028,0.029-0.071,0.232
		c-0.016,0.072-0.016,0.042-0.03,0.087v0.015c0,0.042,0,0.027-0.014,0.057v0.026l-0.015,0.03l-0.115,0.492
		c-0.029,0.143-0.029,0.188-0.073,0.361l-0.043,0.173c-0.145,0.563-0.13,0.534-0.145,0.65c-0.043,0.188-0.014,0.147-0.043,0.26
		c-0.014,0.075-0.014,0.03-0.087,0.451c-0.015,0.102-0.028,0.143-0.028,0.143c-0.132,0.681-0.071,0.448-0.132,0.722
		c-0.1,0.564-0.071,0.335-0.145,0.737c-0.1,0.563-0.158,0.925-0.158,1.113c0,0.146,0.087,0.218,0.303,0.218h0.073
		c0.102,0,0.115,0,0.392-0.061c0.028,0,0,0,0.114-0.011c0.059-0.015,0.028-0.015,0.087-0.03c0.13-0.016,0.13-0.016,0.203-0.029
		L104.422,141.968z M104.422,133.775l-0.462,0.214l-0.073,0.03c-0.014,0-0.014-0.016-0.028-0.03l-0.016-0.03
		c-0.043-0.082-0.015,0.02-0.13-0.315l-0.043-0.128c-0.043-0.075-0.03-0.061-0.043-0.132c-0.015-0.03-0.028-0.087-0.059-0.157
		l-0.043-0.091c0-0.011,0,0-0.015-0.041c-0.028-0.071-0.044-0.116-0.044-0.132l0.059-0.117l0.435-0.199l0.331-0.218l0.073-0.026
		l0.086-0.029c0.059,0.056,0.073,0.07,0.087,0.116l0.175,0.376c0.071,0.143,0.056,0.128,0.084,0.215
		c0.018,0.029,0.018,0,0.046,0.102l0.043,0.131l0.028,0.102C104.885,133.527,104.768,133.613,104.422,133.775z"/>
	<path fill="#808284" d="M109.423,138.603c-0.78,0.462-1.461,0.65-2.848,0.777c-0.028,0.203-0.028,0.233-0.028,0.534
		c0,1.128,0.447,1.662,1.374,1.662c0.563,0,0.923-0.144,1.764-0.677l-0.03,0.59c-0.811,0.595-1.561,0.898-2.299,0.898
		c-1.113,0-1.922-0.969-1.922-2.285c0-2.43,1.979-4.61,4.162-4.61c0.739,0,1.245,0.437,1.245,1.068
		C110.841,137.343,110.348,138.054,109.423,138.603z M109.09,136.173c-0.606,0-1.258,0.402-1.778,1.098
		c-0.36,0.504-0.419,0.636-0.679,1.576c0.823-0.057,1.128-0.102,1.619-0.305c0.91-0.361,1.517-1.083,1.517-1.764
		C109.769,136.417,109.497,136.173,109.09,136.173z"/>
	<path fill="#808284" d="M117.75,141.998c-0.78,0.275-1.331,0.422-1.707,0.422c-0.318,0-0.506-0.174-0.506-0.451
		c0-0.301,0.145-1.099,0.305-1.79l0.216-0.914l0.274-1.21c0.115-0.523,0.16-0.84,0.16-1.057c0-0.422-0.274-0.707-0.679-0.707
		c-0.869,0-2.01,1.24-2.69,2.947c-0.145,0.361-0.346,1.012-0.433,1.402c-0.043,0.215-0.073,0.447-0.145,0.981l-0.059,0.421
		c-0.028,0.245-0.071,0.301-0.173,0.29l-0.305-0.03c0,0-0.102,0.016-0.201,0.016c-0.059,0,0.014,0.015-0.216,0.015h-0.018
		c-0.056,0-0.114-0.045-0.114-0.087l0.03-0.116l0.084-0.35l0.117-0.605c0-0.03,0.015-0.102,0.028-0.203
		c0.073-0.315,0.088-0.433,0.218-1.154c0-0.06,0.015-0.087,0.102-0.594c0.087-0.493,0.13-0.636,0.216-1.083
		c0.115-0.538,0.231-1.361,0.231-1.564c0-0.057-0.028-0.128-0.071-0.244c-0.132-0.057-0.317-0.117-0.536-0.143
		c-0.071-0.016-0.203-0.045-0.259-0.061l0.1-0.478c0.058,0,0.102,0,0.218-0.011c0.015,0,0.203-0.031,0.463-0.031h0.129
		c0.059,0,0.016,0,0.188-0.015c0.073,0,0.391-0.03,0.592-0.045c0.016-0.011,0.016-0.011,0.059-0.011c0.015,0-0.015,0,0.115-0.016
		h0.06h0.071l0.102,0.117v0.143c0,0-0.015,0.045-0.03,0.086c0,0-0.015,0.045-0.027,0.087c0,0.015-0.016,0.06-0.03,0.132
		c-0.014,0.041-0.028,0.086-0.028,0.143l-0.116,0.492l-0.217,0.88l-0.201,0.813c1.228-2.256,1.951-2.952,3.078-2.952
		c0.767,0,1.344,0.595,1.344,1.402c0,0.365-0.013,0.523-0.188,1.189l-0.275,1.082l-0.274,1.14c-0.114,0.492-0.202,0.898-0.202,1.042
		c0,0.188,0.145,0.318,0.377,0.318c0.174,0,0.316-0.029,0.924-0.172L117.75,141.998z"/>
	<path fill="#808284" d="M123.026,137.388c0.073-0.391,0.073-0.422,0.073-0.538c0-0.417-0.305-0.722-0.739-0.722
		c-1.301,0-2.514,1.835-2.514,3.816c0,0.91,0.447,1.52,1.126,1.52c0.607,0,1.115-0.32,1.924-1.2v0.753
		c-0.854,0.996-1.402,1.326-2.227,1.326c-1.098,0-1.88-0.98-1.88-2.368c0-2.373,1.938-4.468,4.121-4.468
		c0.679,0,1.024,0.188,1.416,0.783L123.026,137.388z"/>
	<path fill="#808284" d="M128.288,138.603c-0.782,0.462-1.461,0.65-2.848,0.777c-0.028,0.203-0.028,0.233-0.028,0.534
		c0,1.128,0.447,1.662,1.372,1.662c0.564,0,0.925-0.144,1.764-0.677l-0.028,0.59c-0.811,0.595-1.561,0.898-2.3,0.898
		c-1.112,0-1.921-0.969-1.921-2.285c0-2.43,1.979-4.61,4.162-4.61c0.737,0,1.243,0.437,1.243,1.068
		C129.704,137.343,129.21,138.054,128.288,138.603z M127.955,136.173c-0.606,0-1.258,0.402-1.778,1.098
		c-0.36,0.504-0.419,0.636-0.681,1.576c0.825-0.057,1.13-0.102,1.621-0.305c0.91-0.361,1.517-1.083,1.517-1.764
		C128.633,136.417,128.359,136.173,127.955,136.173z"/>
	<path fill="#808284" d="M130.875,142.434l-0.274,0.157c-0.015,0-0.028,0.016-0.043,0.016c-0.028,0.012-0.071,0.026-0.13,0.057
		c-0.102,0.025-0.175,0.057-0.231,0.071l-0.159,0.03l-0.074-0.087v-0.03c0-0.015,0,0-0.013-0.057
		c-0.028-0.172-0.028-0.217-0.059-0.289l-0.102-0.319c-0.013-0.128-0.028-0.173-0.028-0.173v-0.016c0-0.116,0.016-0.127,0.435-0.305
		c0.014,0,0.071-0.025,0.158-0.07l0.435-0.215c0.145,0.33,0.23,0.752,0.23,1.012v0.029
		C131.019,142.333,131.035,142.302,130.875,142.434z"/>
	<path fill="#808284" d="M147.297,132.804l-0.06,0.768l-0.057,0.854v0.158l-0.463,0.015c-0.06-0.463-0.161-0.854-0.274-1.057
		l-0.075-0.128c-0.199-0.102-0.62-0.146-1.226-0.146h-0.278c-0.793,0-0.504,0-1.372,0.057l-0.042,0.176l-0.319,1.516l-0.331,1.662
		l-0.029,0.146c0.304,0.016,0.304,0.016,0.62,0.016h0.376c0.782,0,1.098-0.03,1.215-0.102c0.131-0.076,0.334-0.508,0.451-0.898
		l0.041-0.144l0.433-0.015l-0.042,0.173c-0.015,0.102-0.102,0.447-0.188,0.925c-0.03,0.071-0.061,0.219-0.087,0.376
		c-0.071,0.437-0.071,0.595-0.188,1.128l-0.045,0.203l-0.433,0.03v-0.173c0-0.553-0.03-0.782-0.117-0.884h-0.056
		c-0.681-0.071-0.869-0.087-1.158-0.087c-0.012,0-0.071,0.016-0.402,0.016h-0.061h-0.173l-0.086,0.015h-0.203l-0.447,2.095
		c-0.175,0.793-0.218,1.057-0.246,1.301c-0.03,0.274-0.058,0.478-0.073,0.52l-0.013,0.07c-0.059,0.264,0.216,0.365,1.042,0.365
		c0.215,0,0.361,0,0.361-0.016c0.011-0.015,0.041-0.015,0.086-0.015h0.173h0.245h0.086c1.229,0,1.229,0,2.023-1.489h0.522
		l-0.045,0.144l-0.331,0.913l-0.305,0.91l-0.041,0.132l-2.343-0.045l-2.271,0.03h-1.474h-0.231l0.158-0.451l0.116-0.027
		c0.809-0.203,0.621-0.131,0.722-0.161l0.16-0.087c0.071-0.041,0.13-0.203,0.201-0.519l0.709-3.399l0.636-3.223
		c0.058-0.304,0.102-0.518,0.102-0.549c0.015-0.116,0.029-0.199,0.029-0.214c0.014-0.06,0.014-0.102,0.014-0.116l-0.028-0.158
		c-0.087-0.09-0.173-0.117-0.722-0.278l-0.102-0.026l0.028-0.391l1.546,0.029h1.534h0.331c1.85,0,1.662,0,2.485-0.09
		L147.297,132.804z"/>
	<path fill="#808284" d="M154.017,141.998c-0.782,0.275-1.331,0.422-1.703,0.422c-0.32,0-0.508-0.174-0.508-0.451
		c0-0.301,0.143-1.099,0.305-1.79l0.214-0.914l0.274-1.21c0.117-0.523,0.162-0.84,0.162-1.057c0-0.422-0.274-0.707-0.681-0.707
		c-0.869,0-2.008,1.24-2.688,2.947c-0.143,0.361-0.346,1.012-0.433,1.402c-0.045,0.215-0.075,0.447-0.146,0.981l-0.057,0.421
		c-0.03,0.245-0.075,0.301-0.177,0.29l-0.301-0.03c0,0-0.102,0.016-0.203,0.016c-0.056,0,0.016,0.015-0.218,0.015h-0.012
		c-0.06,0-0.116-0.045-0.116-0.087l0.026-0.116l0.09-0.35l0.113-0.605c0-0.03,0.015-0.102,0.03-0.203
		c0.071-0.315,0.086-0.433,0.218-1.154c0-0.06,0.012-0.087,0.102-0.594c0.087-0.493,0.128-0.636,0.215-1.083
		c0.116-0.538,0.232-1.361,0.232-1.564c0-0.057-0.03-0.128-0.075-0.244c-0.128-0.057-0.315-0.117-0.534-0.143
		c-0.071-0.016-0.199-0.045-0.259-0.061l0.102-0.478c0.057,0,0.102,0,0.218-0.011c0.012,0,0.203-0.031,0.463-0.031h0.128
		c0.06,0,0.015,0,0.188-0.015c0.075,0,0.392-0.03,0.594-0.045c0.016-0.011,0.016-0.011,0.057-0.011c0.016,0-0.015,0,0.117-0.016
		h0.056h0.075l0.098,0.117v0.143c0,0-0.011,0.045-0.026,0.086c0,0-0.015,0.045-0.029,0.087c0,0.015-0.016,0.06-0.026,0.132
		c-0.016,0.041-0.03,0.086-0.03,0.143l-0.116,0.492l-0.219,0.88l-0.203,0.813c1.229-2.256,1.952-2.952,3.08-2.952
		c0.767,0,1.346,0.595,1.346,1.402c0,0.365-0.015,0.523-0.188,1.189l-0.274,1.082l-0.275,1.14c-0.116,0.492-0.202,0.898-0.202,1.042
		c0,0.188,0.146,0.318,0.376,0.318c0.173,0,0.315-0.029,0.925-0.172L154.017,141.998z"/>
	<path fill="#808284" d="M161.461,141.998c-0.808,0.29-1.346,0.422-1.718,0.422c-0.365,0-0.522-0.162-0.522-0.493
		c0-0.233,0.029-0.376,0.203-1.229c0.102-0.508,0.102-0.478,0.143-0.65c0.06-0.203,0.102-0.402,0.218-0.91l0.26-1.143
		c0.071-0.32,0.132-0.764,0.132-0.996c0-0.392-0.305-0.707-0.696-0.707c-1.256,0-2.76,2.327-3.181,4.914l-0.071,0.447
		c-0.026,0.158-0.042,0.26-0.042,0.305c0,0.057-0.015,0.071-0.015,0.102c0,0.012,0,0,0,0.071c-0.015,0.042-0.015,0.026-0.015,0.042
		c-0.016,0.045-0.016,0.029-0.016,0.06l-0.041,0.087l-0.03,0.041l-0.391-0.026l-0.478,0.026l-0.026-0.016l-0.03-0.086l0.03-0.102
		c0-0.012,0-0.026,0.015-0.071c0-0.026,0.012-0.087,0.041-0.144c0.016-0.06,0.03-0.102,0.03-0.131l0.117-0.605l0.62-2.993
		l0.636-3.079c0.128-0.65,0.188-0.94,0.391-2.053c0-0.057,0.015-0.087,0.015-0.117c0.012-0.071,0.012-0.117,0.012-0.128v-0.045
		v-0.057c-0.012-0.102-0.112-0.157-0.244-0.157c-0.03,0-0.057-0.016-0.274-0.046c-0.219-0.041-0.144-0.03-0.203-0.041
		c-0.158-0.015-0.229-0.03-0.29-0.046l0.102-0.432c0.173-0.016,0.203-0.016,0.91-0.061c0.609-0.041,0.666-0.057,1.158-0.143
		l0.086-0.016l0.087,0.087c0,0,0,0,0,0.015c-0.015,0.042-0.015,0.016-0.015,0.057v0.03l-0.016,0.015v0.016v0.026
		c0,0.03-0.026,0.102-0.057,0.188c-0.071,0.176-0.143,0.466-0.232,0.838c-0.012,0.061-0.026,0.086-0.042,0.188
		c-0.015,0.102-0.102,0.437-0.202,0.884c-0.046,0.128-0.102,0.347-0.158,0.636c-0.102,0.433-0.132,0.564-0.219,0.967
		c-0.029,0.131-0.015,0.045-0.071,0.289c-0.03,0.132,0.016,0-0.086,0.38l-0.071,0.271c-0.046,0.188-0.072,0.274-0.072,0.274
		c-0.116,0.466-0.191,0.798-0.202,0.839l-0.132,0.478c0.563-0.997,0.722-1.256,1.067-1.692c0.624-0.748,1.229-1.098,1.94-1.098
		c0.778,0,1.343,0.579,1.343,1.387c0,0.523-0.102,0.986-0.621,3.05c-0.146,0.564-0.274,1.218-0.274,1.418
		c0,0.188,0.143,0.304,0.361,0.304c0.203,0,0.331-0.029,0.939-0.172L161.461,141.998z"/>
	<path fill="#808284" d="M168.328,135.797c0,0,0,0.015-0.015,0.042c-0.016,0.06-0.045,0.146-0.071,0.263
		c-0.057,0.244-0.046,0.157-0.147,0.605l-0.478,2.067l-0.443,2.399c-0.015,0.087-0.015,0.06-0.015,0.144
		c-0.016,0.029-0.016,0.045-0.016,0.045v0.057c0,0.157,0.128,0.217,0.504,0.217c0.087,0,0.087,0,0.695-0.086l-0.074,0.447
		c-0.794,0.26-1.459,0.402-1.892,0.402c-0.188,0-0.29-0.112-0.29-0.342c0-0.219,0.016-0.365,0.057-0.579c0,0,0-0.03,0-0.06
		c0.015-0.031,0-0.031,0.015-0.102c0.016-0.072,0.03-0.102,0.03-0.102v-0.057c0.03-0.128,0.016-0.072,0.045-0.188
		c0-0.026,0.012-0.071,0.012-0.116c-1.113,1.173-1.632,1.504-2.343,1.504c-0.951,0-1.474-0.681-1.474-1.892
		c0-2.546,1.865-4.944,3.831-4.944c0.174,0,0.493,0.041,0.914,0.117c0.083,0.011,0.26,0.025,0.331,0.025c0.447,0,0.391,0,0.65-0.071
		h0.102l0.102,0.071L168.328,135.797z M167.027,136.794c0-0.448-0.29-0.737-0.752-0.737h-0.057c-1.433,0-2.82,1.981-2.82,4.03
		c0,0.828,0.347,1.377,0.884,1.377c0.677,0,1.602-0.711,2.008-1.561c0.331-0.681,0.737-2.373,0.737-3.054V136.794z"/>
	<path fill="#808284" d="M175.93,141.998c-0.781,0.275-1.331,0.422-1.707,0.422c-0.315,0-0.504-0.174-0.504-0.451
		c0-0.301,0.144-1.099,0.305-1.79l0.215-0.914l0.274-1.21c0.116-0.523,0.161-0.84,0.161-1.057c0-0.422-0.277-0.707-0.68-0.707
		c-0.869,0-2.012,1.24-2.688,2.947c-0.147,0.361-0.347,1.012-0.433,1.402c-0.045,0.215-0.075,0.447-0.146,0.981l-0.057,0.421
		c-0.03,0.245-0.071,0.301-0.173,0.29l-0.305-0.03c0,0-0.102,0.016-0.203,0.016c-0.057,0,0.015,0.015-0.218,0.015h-0.012
		c-0.061,0-0.116-0.045-0.116-0.087l0.026-0.116l0.09-0.35l0.113-0.605c0-0.03,0.015-0.102,0.029-0.203
		c0.072-0.315,0.087-0.433,0.219-1.154c0-0.06,0.011-0.087,0.102-0.594c0.086-0.493,0.128-0.636,0.214-1.083
		c0.116-0.538,0.233-1.361,0.233-1.564c0-0.057-0.03-0.128-0.071-0.244c-0.132-0.057-0.32-0.117-0.538-0.143
		c-0.071-0.016-0.203-0.045-0.26-0.061l0.102-0.478c0.057,0,0.102,0,0.219-0.011c0.011,0,0.199-0.031,0.462-0.031h0.128
		c0.061,0,0.016,0,0.188-0.015c0.071,0,0.391-0.03,0.594-0.045c0.015-0.011,0.015-0.011,0.057-0.011c0.015,0-0.016,0,0.116-0.016
		h0.057h0.075l0.102,0.117v0.143c0,0-0.016,0.045-0.03,0.086c0,0-0.015,0.045-0.03,0.087c0,0.015-0.015,0.06-0.03,0.132
		c-0.011,0.041-0.025,0.086-0.025,0.143l-0.117,0.492l-0.218,0.88l-0.199,0.813c1.226-2.256,1.947-2.952,3.075-2.952
		c0.768,0,1.347,0.595,1.347,1.402c0,0.365-0.016,0.523-0.188,1.189l-0.274,1.082l-0.274,1.14c-0.116,0.492-0.203,0.898-0.203,1.042
		c0,0.188,0.143,0.318,0.376,0.318c0.173,0,0.319-0.029,0.925-0.172L175.93,141.998z"/>
	<path fill="#808284" d="M181.206,137.388c0.072-0.391,0.072-0.422,0.072-0.538c0-0.417-0.301-0.722-0.733-0.722
		c-1.305,0-2.516,1.835-2.516,3.816c0,0.91,0.447,1.52,1.124,1.52c0.609,0,1.113-0.32,1.925-1.2v0.753
		c-0.854,0.996-1.402,1.326-2.226,1.326c-1.102,0-1.88-0.98-1.88-2.368c0-2.373,1.937-4.468,4.121-4.468
		c0.677,0,1.022,0.188,1.414,0.783L181.206,137.388z"/>
	<path fill="#808284" d="M185.225,141.968c-0.722,0.263-1.315,0.391-1.835,0.391c-0.274,0-0.405-0.102-0.405-0.316
		c0-0.116,0.056-0.508,0.131-0.854l0.158-0.736l0.218-1.057c0.199-0.996,0.215-1.026,0.331-1.794
		c0.087-0.519,0.146-0.966,0.132-1.026c0-0.041-0.015-0.102-0.03-0.143c-0.045-0.087-0.045-0.087-0.057-0.102
		c-0.015-0.016-0.015-0.016-0.06-0.03c-0.042-0.011-0.03-0.011-0.199-0.056c-0.162-0.046-0.233-0.057-0.278-0.057h-0.012
		c0,0-0.03-0.016-0.06-0.016c-0.016-0.015-0.042-0.015-0.102-0.029c-0.03,0-0.042,0-0.087-0.016l0.102-0.488h0.233l0.636-0.031
		c0.301-0.015,0.376-0.015,0.549-0.045c0.112-0.015,0.203-0.015,0.214-0.015c0.075-0.011,0.061,0,0.146-0.011
		c0.042-0.016,0.016-0.016,0.042-0.016h0.045h0.015h0.071l0.117,0.117v0.143c-0.03,0.057-0.03,0.029-0.071,0.232
		c-0.016,0.072-0.016,0.042-0.03,0.087v0.015c0,0.042,0,0.027-0.016,0.057v0.026l-0.015,0.03l-0.116,0.492
		c-0.026,0.143-0.026,0.188-0.072,0.361l-0.041,0.173c-0.146,0.563-0.132,0.534-0.146,0.65c-0.041,0.188-0.015,0.147-0.041,0.26
		c-0.016,0.075-0.016,0.03-0.091,0.451c-0.011,0.102-0.026,0.143-0.026,0.143c-0.131,0.681-0.071,0.448-0.131,0.722
		c-0.102,0.564-0.072,0.335-0.144,0.737c-0.102,0.563-0.158,0.925-0.158,1.113c0,0.146,0.087,0.218,0.302,0.218h0.074
		c0.102,0,0.113,0,0.392-0.061c0.026,0,0,0,0.112-0.011c0.061-0.015,0.03-0.015,0.087-0.03c0.132-0.016,0.132-0.016,0.203-0.029
		L185.225,141.968z M185.225,133.775l-0.462,0.214l-0.071,0.03c-0.016,0-0.016-0.016-0.03-0.03l-0.016-0.03
		c-0.045-0.082-0.015,0.02-0.128-0.315l-0.045-0.128c-0.041-0.075-0.029-0.061-0.041-0.132c-0.015-0.03-0.03-0.087-0.061-0.157
		l-0.041-0.091c0-0.011,0,0-0.015-0.041c-0.03-0.071-0.046-0.116-0.046-0.132l0.061-0.117l0.433-0.199l0.331-0.218l0.075-0.026
		l0.086-0.029c0.057,0.056,0.071,0.07,0.087,0.116l0.173,0.376c0.071,0.143,0.057,0.128,0.086,0.215
		c0.016,0.029,0.016,0,0.042,0.102l0.045,0.131l0.03,0.102C185.688,133.527,185.572,133.613,185.225,133.775z"/>
	<path fill="#808284" d="M192.884,141.998c-0.778,0.275-1.327,0.422-1.703,0.422c-0.319,0-0.508-0.174-0.508-0.451
		c0-0.301,0.147-1.099,0.305-1.79l0.219-0.914l0.274-1.21c0.112-0.523,0.157-0.84,0.157-1.057c0-0.422-0.274-0.707-0.68-0.707
		c-0.865,0-2.009,1.24-2.688,2.947c-0.144,0.361-0.347,1.012-0.433,1.402c-0.045,0.215-0.071,0.447-0.144,0.981l-0.06,0.421
		c-0.03,0.245-0.071,0.301-0.173,0.29l-0.305-0.03c0,0-0.102,0.016-0.203,0.016c-0.057,0,0.015,0.015-0.215,0.015h-0.015
		c-0.061,0-0.116-0.045-0.116-0.087l0.03-0.116l0.086-0.35l0.116-0.605c0-0.03,0.012-0.102,0.026-0.203
		c0.075-0.315,0.087-0.433,0.219-1.154c0-0.06,0.015-0.087,0.102-0.594c0.086-0.493,0.128-0.636,0.218-1.083
		c0.113-0.538,0.229-1.361,0.229-1.564c0-0.057-0.03-0.128-0.071-0.244c-0.132-0.057-0.32-0.117-0.538-0.143
		c-0.071-0.016-0.199-0.045-0.26-0.061l0.102-0.478c0.061,0,0.102,0,0.219-0.011c0.015,0,0.203-0.031,0.462-0.031h0.128
		c0.061,0,0.019,0,0.192-0.015c0.071,0,0.387-0.03,0.59-0.045c0.015-0.011,0.015-0.011,0.061-0.011c0.011,0-0.016,0,0.112-0.016
		h0.061h0.071l0.102,0.117v0.143c0,0-0.016,0.045-0.03,0.086c0,0-0.015,0.045-0.026,0.087c0,0.015-0.015,0.06-0.03,0.132
		c-0.015,0.041-0.029,0.086-0.029,0.143l-0.117,0.492l-0.214,0.88l-0.203,0.813c1.229-2.256,1.951-2.952,3.079-2.952
		c0.768,0,1.343,0.595,1.343,1.402c0,0.365-0.016,0.523-0.188,1.189l-0.274,1.082l-0.274,1.14c-0.116,0.492-0.203,0.898-0.203,1.042
		c0,0.188,0.146,0.318,0.376,0.318c0.173,0,0.32-0.029,0.925-0.172L192.884,141.998z"/>
	<path fill="#808284" d="M200.33,135.869l-0.071,0.248c-0.03,0.113-0.03,0.083-0.071,0.271l-0.045,0.173h-0.275h-0.346h-0.274
		h-0.116c0.06,0.391,0.071,0.624,0.071,0.782c0,1.459-1.286,2.76-2.715,2.76c-0.173,0-0.319-0.016-0.579-0.057
		c-0.045,0.117-0.086,0.173-0.158,0.305c-0.06,0.102-0.173,0.361-0.232,0.533c0.015,0.147,0.131,0.188,0.898,0.377
		c0.575,0.146,1.342,0.375,1.703,0.519c0.564,0.218,0.839,0.595,0.839,1.112c0,1.377-1.851,2.779-3.686,2.779
		c-1.331,0-2.388-0.768-2.388-1.737c0-0.636,0.437-1.315,1.103-1.718l0.478-0.29l0.112-0.071c-0.305-0.248-0.376-0.35-0.376-0.492
		c0-0.117,0.03-0.158,0.173-0.32c0.03-0.025,0.071-0.086,0.146-0.158c0.026-0.029,0.042-0.056,0.071-0.086
		c0.03-0.045,0.057-0.071,0.072-0.086l0.695-0.839c-0.636-0.579-0.823-0.955-0.823-1.662c0-1.504,1.24-2.733,2.76-2.733
		c0.549,0,0.793,0.086,1.474,0.508c0.102,0,0.233-0.016,0.29-0.03c0.015,0,0.056,0,0.116-0.015c0.087-0.012,0.158-0.027,0.188-0.027
		c0.127-0.029,0.214-0.045,0.229-0.045l0.523-0.102l0.259-0.057L200.33,135.869z M197.005,142.633l-0.549-0.173l-0.767-0.203
		l-0.52-0.158c-0.808,0.402-1.184,0.91-1.184,1.576c0,0.809,0.635,1.33,1.616,1.33c1.199,0,2.215-0.736,2.215-1.605
		C197.818,142.994,197.656,142.836,197.005,142.633z M196.976,136.072c-0.851,0-1.489,0.793-1.489,1.892
		c0,0.884,0.537,1.519,1.274,1.519c0.823,0,1.418-0.793,1.418-1.88C198.179,136.662,197.712,136.072,196.976,136.072z"/>
	<path fill="#808284" d="M207.139,132.023c-0.057,0.218-0.26,0.924-0.361,1.346c-0.056,0.218-0.146,0.635-0.232,0.996
		c-0.057,0.248,0,0.016-0.174,0.768c-0.346,1.575-0.289,1.301-0.462,2.139l-0.564,2.734c-0.199,0.951-0.229,1.154-0.229,1.301
		c0,0.199,0.132,0.285,0.418,0.285c0.203,0,0.421-0.025,0.782-0.086l-0.087,0.463c-0.609,0.248-1.372,0.432-1.764,0.432
		c-0.319,0-0.391-0.127-0.391-0.646c0-0.564,0.132-0.898,0.376-2.414l0.015-0.086l0.132-0.609c0.301-1.43,0.286-1.388,0.519-2.5
		c0.188-0.94,0.132-0.621,0.203-0.997l0.057-0.274l0.057-0.289c0.188-0.971,0.319-1.707,0.319-1.809c0-0.158-0.03-0.174-0.233-0.199
		c-0.011-0.016,0-0.016-0.098-0.031c-0.045,0,0.012,0-0.218-0.045c-0.087-0.011-0.116-0.011-0.132-0.025
		c-0.03,0,0,0.015-0.214-0.031c-0.03,0-0.061-0.015-0.117-0.015l0.087-0.433h0.214l0.711-0.06l0.29-0.026
		c0.767-0.075,0.681-0.061,0.752-0.075c0.116-0.026,0.188-0.042,0.199-0.042h0.102l0.075,0.072c0,0,0,0,0,0.029
		C207.169,131.925,207.154,131.966,207.139,132.023z"/>
	<path fill="#808284" d="M209.959,141.968c-0.726,0.263-1.316,0.391-1.839,0.391c-0.274,0-0.402-0.102-0.402-0.316
		c0-0.116,0.057-0.508,0.128-0.854l0.158-0.736l0.218-1.057c0.203-0.996,0.218-1.026,0.335-1.794
		c0.086-0.519,0.143-0.966,0.127-1.026c0-0.041-0.011-0.102-0.029-0.143c-0.042-0.087-0.042-0.087-0.057-0.102
		c-0.016-0.016-0.016-0.016-0.057-0.03c-0.045-0.011-0.03-0.011-0.203-0.056c-0.158-0.046-0.233-0.057-0.274-0.057h-0.015
		c0,0-0.026-0.016-0.057-0.016c-0.015-0.015-0.045-0.015-0.102-0.029c-0.03,0-0.045,0-0.087-0.016l0.102-0.488h0.229l0.636-0.031
		c0.305-0.015,0.376-0.015,0.553-0.045c0.112-0.015,0.199-0.015,0.214-0.015c0.072-0.011,0.057,0,0.147-0.011
		c0.041-0.016,0.011-0.016,0.041-0.016h0.041h0.02h0.071l0.116,0.117v0.143c-0.03,0.057-0.03,0.029-0.075,0.232
		c-0.015,0.072-0.015,0.042-0.03,0.087v0.015c0,0.042,0,0.027-0.011,0.057v0.026l-0.016,0.03l-0.116,0.492
		c-0.03,0.143-0.03,0.188-0.071,0.361l-0.045,0.173c-0.144,0.563-0.128,0.534-0.144,0.65c-0.045,0.188-0.015,0.147-0.045,0.26
		c-0.015,0.075-0.015,0.03-0.086,0.451c-0.012,0.102-0.026,0.143-0.026,0.143c-0.132,0.681-0.075,0.448-0.132,0.722
		c-0.102,0.564-0.071,0.335-0.144,0.737c-0.101,0.563-0.161,0.925-0.161,1.113c0,0.146,0.087,0.218,0.305,0.218h0.071
		c0.102,0,0.116,0,0.391-0.061c0.03,0,0,0,0.117-0.011c0.057-0.015,0.03-0.015,0.086-0.03c0.132-0.016,0.132-0.016,0.203-0.029
		L209.959,141.968z M209.959,133.775l-0.463,0.214l-0.075,0.03c-0.015,0-0.015-0.016-0.026-0.03l-0.015-0.03
		c-0.045-0.082-0.016,0.02-0.132-0.315l-0.041-0.128c-0.046-0.075-0.03-0.061-0.046-0.132c-0.015-0.03-0.026-0.087-0.056-0.157
		l-0.046-0.091c0-0.011,0,0-0.015-0.041c-0.026-0.071-0.041-0.116-0.041-0.132l0.056-0.117l0.437-0.199l0.331-0.218l0.071-0.026
		l0.087-0.029c0.06,0.056,0.071,0.07,0.086,0.116l0.173,0.376c0.075,0.143,0.061,0.128,0.091,0.215c0.011,0.029,0.011,0,0.041,0.102
		l0.041,0.131l0.03,0.102C210.417,133.527,210.305,133.613,209.959,133.775z"/>
	<path fill="#808284" d="M215.712,133.338c-0.188-0.692-0.361-0.91-0.726-0.91c-0.174,0-0.331,0.061-0.475,0.188
		c-0.263,0.218-0.35,0.432-0.522,1.285l-0.36,1.723l0.244-0.045h0.624l0.361-0.057h0.214l-0.112,0.636h-1.448l-0.086,0.534
		l-0.65,3.439c-0.504,2.658-0.794,3.588-1.357,4.295c-0.564,0.707-1.52,1.199-2.358,1.199c-0.026,0-0.143,0-0.274-0.016
		c-0.029,0-0.086-0.015-0.143-0.015l0.504-0.981c0.289,0.102,0.492,0.158,0.64,0.158c0.808,0,1.271-0.955,1.759-3.584l0.666-3.572
		l0.248-1.428h-0.914l0.132-0.549h0.925c0.016-0.046,0-0.046,0.016-0.117c0.015-0.016,0.015-0.061,0.03-0.117
		c0.112-0.721,0.346-1.646,0.504-2.008c0.447-1.011,1.301-1.605,2.282-1.605c0.65,0,0.97,0.144,1.478,0.666L215.712,133.338z"/>
	<path fill="#808284" d="M218.863,138.603c-0.782,0.462-1.463,0.65-2.85,0.777c-0.026,0.203-0.026,0.233-0.026,0.534
		c0,1.128,0.447,1.662,1.372,1.662c0.564,0,0.925-0.144,1.764-0.677l-0.03,0.59c-0.809,0.595-1.561,0.898-2.297,0.898
		c-1.113,0-1.922-0.969-1.922-2.285c0-2.43,1.978-4.61,4.162-4.61c0.737,0,1.245,0.437,1.245,1.068
		C220.281,137.343,219.788,138.054,218.863,138.603z M218.529,136.173c-0.605,0-1.256,0.402-1.779,1.098
		c-0.36,0.504-0.417,0.636-0.677,1.576c0.824-0.057,1.125-0.102,1.617-0.305c0.91-0.361,1.519-1.083,1.519-1.764
		C219.208,136.417,218.934,136.173,218.529,136.173z"/>
	<path fill="#808284" d="M221.45,142.434l-0.274,0.157c-0.015,0-0.03,0.016-0.045,0.016c-0.026,0.012-0.071,0.026-0.128,0.057
		c-0.102,0.025-0.173,0.057-0.233,0.071l-0.157,0.03l-0.072-0.087v-0.03c0-0.015,0,0-0.015-0.057
		c-0.03-0.172-0.03-0.217-0.061-0.289l-0.102-0.319c-0.011-0.128-0.025-0.173-0.025-0.173v-0.016c0-0.116,0.015-0.127,0.432-0.305
		c0.016,0,0.071-0.025,0.162-0.07l0.433-0.215c0.143,0.33,0.229,0.752,0.229,1.012v0.029
		C221.593,142.333,221.608,142.302,221.45,142.434z"/>
</g>
<g>
	<path fill="#808285" d="M291.286,7.603V2.212h-2.277V1.406h5.436v0.806h-2.277v5.391H291.286z"/>
	<path fill="#808285" d="M295.17,7.603V1.406h0.771l2.229,2.604l2.232-2.604h0.771v6.197h-0.859V2.766l-2.144,2.499l-2.14-2.499
		v4.837H295.17z"/>
</g>
</svg>
